{"glyphs":{"0":{"ha":778,"x_min":47,"x_max":732,"o":"m 290 433 q 297 244 290 318 q 317 128 304 171 q 347 70 329 86 q 388 54 365 54 q 428 70 410 54 q 460 129 446 86 q 481 245 474 172 q 489 433 489 318 q 481 622 489 549 q 460 739 474 696 q 428 798 446 782 q 388 814 410 814 q 347 798 365 814 q 317 740 329 782 q 297 623 304 697 q 290 433 290 549 m 388 889 q 518 862 456 889 q 628 778 581 835 q 704 636 676 722 q 732 433 732 550 q 704 231 732 317 q 628 88 676 144 q 518 5 581 32 q 388 -22 456 -22 q 257 5 318 -22 q 149 88 196 32 q 74 231 101 144 q 47 433 47 317 q 74 636 47 550 q 149 778 101 722 q 257 862 196 835 q 388 889 318 889 z "},"1":{"ha":778,"x_min":101,"x_max":675,"o":"m 144 806 l 514 883 l 533 869 l 528 672 l 528 288 q 528 201 528 244 q 529 113 528 157 l 675 71 l 675 0 l 101 0 l 101 71 l 258 111 q 260 200 260 156 q 260 288 260 244 l 260 726 l 144 715 l 144 806 z "},"2":{"ha":778,"x_min":69,"x_max":719,"o":"m 75 0 l 75 138 q 164 224 119 182 q 250 308 208 267 q 334 398 297 357 q 396 478 371 439 q 433 559 421 518 q 446 650 446 600 q 411 772 446 729 q 315 814 376 814 l 293 814 l 281 714 q 263 649 275 674 q 235 611 251 625 q 202 592 219 597 q 168 588 185 588 q 110 604 136 588 q 69 649 83 621 q 97 752 69 707 q 170 827 124 797 q 278 873 217 857 q 410 889 340 889 q 545 870 489 889 q 638 819 601 851 q 692 742 675 786 q 710 647 710 697 q 622 450 710 543 q 356 256 533 357 q 302 225 328 240 q 251 194 276 210 l 719 194 l 719 0 l 75 0 z "},"3":{"ha":778,"x_min":58,"x_max":736,"o":"m 260 489 l 294 489 q 411 526 369 489 q 453 656 453 564 q 419 776 453 738 q 322 814 385 814 l 311 814 l 299 715 q 284 668 294 688 q 258 637 274 649 q 224 620 243 625 q 186 615 206 615 q 138 627 160 615 q 104 657 117 639 q 123 762 100 718 q 185 834 146 806 q 278 876 225 863 q 389 889 331 889 q 533 872 472 889 q 633 824 593 854 q 691 753 672 793 q 710 665 710 713 q 699 603 710 635 q 665 544 689 572 q 601 494 640 517 q 507 457 563 471 q 685 376 635 435 q 736 225 736 318 q 712 126 736 171 q 642 48 688 81 q 528 -3 596 15 q 375 -22 461 -22 q 135 43 213 -22 q 58 221 58 108 q 97 273 71 257 q 151 289 124 289 q 226 262 197 289 q 263 156 256 235 l 271 54 l 286 54 q 419 97 374 54 q 465 238 465 140 q 423 365 465 322 q 301 408 381 408 l 260 408 l 260 489 z "},"4":{"ha":778,"x_min":28,"x_max":732,"o":"m 732 151 l 611 151 l 611 0 l 382 0 l 382 151 l 28 151 l 28 300 l 428 867 l 611 867 l 611 332 l 732 332 l 732 151 m 382 332 l 382 656 l 156 332 l 382 332 z "},"5":{"ha":778,"x_min":57,"x_max":746,"o":"m 360 -22 q 231 -5 288 -22 q 136 45 175 13 q 77 122 97 78 q 57 221 57 167 q 97 272 69 256 q 154 289 124 289 q 228 260 201 289 q 261 163 256 231 l 268 58 q 311 54 286 54 q 423 101 378 54 q 468 233 468 147 q 429 376 468 328 q 319 424 390 424 q 253 420 283 424 q 188 408 222 417 l 149 443 l 178 867 l 708 867 l 708 672 l 263 672 l 251 521 q 317 530 283 528 q 388 532 351 532 q 651 464 557 532 q 746 261 746 396 q 716 135 746 188 q 634 47 686 82 q 511 -6 582 11 q 360 -22 440 -22 z "},"6":{"ha":778,"x_min":33,"x_max":740,"o":"m 403 -22 q 251 2 319 -22 q 134 74 182 26 q 60 190 86 121 q 33 350 33 260 q 81 552 33 458 q 212 717 128 646 q 412 833 296 789 q 664 889 528 878 l 672 810 q 426 689 519 771 q 307 483 333 607 q 388 530 343 515 q 485 544 432 544 q 678 472 615 544 q 740 279 740 399 q 713 147 740 204 q 640 53 686 90 q 532 -3 593 15 q 403 -22 471 -22 m 403 54 q 460 99 438 54 q 483 247 483 143 q 460 395 483 343 q 382 447 436 447 q 338 438 360 447 q 297 406 317 429 l 297 388 q 306 231 297 294 q 328 128 314 167 q 362 72 343 89 q 403 54 381 54 z "},"7":{"ha":778,"x_min":76,"x_max":718,"o":"m 138 14 l 556 672 l 76 672 l 76 867 l 718 867 l 718 746 l 393 0 l 151 0 l 138 14 z "},"8":{"ha":778,"x_min":60,"x_max":719,"o":"m 60 181 q 105 301 60 249 q 235 389 150 353 q 113 492 156 432 q 71 631 71 551 q 95 737 71 689 q 163 819 119 785 q 267 871 207 853 q 399 889 328 889 q 534 873 478 889 q 626 830 590 857 q 678 767 661 803 q 694 693 694 732 q 656 590 694 638 q 524 504 618 543 q 719 236 719 406 q 628 47 719 115 q 361 -22 538 -22 q 131 35 203 -22 q 60 181 60 92 m 286 711 q 292 671 286 690 q 316 631 299 651 q 364 588 333 610 q 444 542 394 567 q 483 625 474 589 q 493 701 493 661 q 466 781 493 749 q 392 813 439 813 q 318 785 350 813 q 286 711 286 758 m 385 54 q 431 63 411 54 q 463 88 450 72 q 481 122 475 103 q 488 163 488 142 q 452 259 488 215 q 321 349 417 303 q 281 272 293 308 q 269 193 269 236 q 302 93 269 132 q 385 54 335 54 z "},"9":{"ha":778,"x_min":39,"x_max":746,"o":"m 147 -28 l 133 51 q 356 170 276 99 q 464 365 436 242 q 399 338 436 347 q 317 328 361 328 q 205 344 256 328 q 117 394 154 361 q 60 477 81 428 q 39 592 39 526 q 67 724 39 668 q 143 817 96 781 q 253 871 190 853 q 382 889 315 889 q 653 790 561 889 q 746 510 746 690 q 700 307 746 399 q 574 147 654 215 q 385 33 494 78 q 147 -28 275 -11 m 296 613 q 326 472 296 522 q 414 421 357 421 q 476 435 449 421 q 481 488 479 460 q 482 546 482 515 q 476 680 482 628 q 457 762 469 732 q 427 803 444 792 q 389 814 410 814 q 324 768 351 814 q 296 613 296 722 z "}," ":{"ha":286,"x_min":0,"x_max":0,"o":""},"A":{"ha":944,"x_min":14,"x_max":924,"o":"m 14 0 l 14 82 l 124 97 l 401 906 l 568 906 l 849 86 l 924 78 l 924 0 l 475 0 l 475 78 l 571 92 l 521 250 l 258 250 l 211 99 l 306 82 l 306 0 l 14 0 m 494 338 l 392 667 l 288 338 l 494 338 z "},"B":{"ha":917,"x_min":39,"x_max":896,"o":"m 136 438 l 136 467 q 136 640 136 554 q 135 814 136 726 l 39 824 l 39 906 l 507 906 q 665 890 601 906 q 767 845 729 874 q 822 778 806 817 q 839 696 839 740 q 828 629 839 661 q 790 571 817 597 q 715 524 763 544 q 594 490 667 503 q 826 414 757 474 q 896 257 896 354 q 878 169 896 215 q 810 86 860 124 q 671 24 760 49 q 440 0 582 0 l 39 0 l 39 82 l 135 92 q 136 264 136 178 q 136 438 136 350 m 438 819 l 408 819 q 406 668 406 744 q 406 514 406 592 l 431 514 q 540 556 504 514 q 575 675 575 597 q 542 783 575 746 q 438 819 510 819 m 440 436 l 406 436 q 406 257 406 343 q 408 86 406 171 l 438 86 q 567 129 519 86 q 615 260 615 172 q 572 395 615 354 q 440 436 528 436 z "},"C":{"ha":858,"x_min":39,"x_max":828,"o":"m 574 56 q 671 78 622 56 l 714 263 l 828 263 l 822 44 q 696 -6 769 15 q 526 -28 622 -28 q 340 -1 428 -28 q 185 85 251 26 q 78 234 118 143 q 39 453 39 325 q 81 675 39 583 q 193 824 124 767 q 353 907 263 881 q 540 933 444 933 q 692 915 628 933 q 814 864 756 896 l 819 643 l 706 643 l 661 833 q 579 851 624 851 q 483 829 529 851 q 401 759 436 807 q 344 635 365 711 q 324 451 324 560 q 344 268 324 343 q 400 146 365 193 q 480 77 435 99 q 574 56 525 56 z "},"D":{"ha":976,"x_min":39,"x_max":938,"o":"m 136 431 l 136 475 q 136 644 136 560 q 135 814 136 729 l 39 824 l 39 906 l 453 906 q 658 874 568 906 q 810 783 749 842 q 905 642 872 725 q 938 457 938 558 q 903 265 938 350 q 802 122 868 181 q 642 31 736 63 q 429 0 547 0 l 39 0 l 39 82 l 135 92 q 136 260 136 175 q 136 431 136 344 m 411 432 q 411 259 411 344 q 414 86 411 174 l 433 86 q 598 181 536 86 q 660 454 660 276 q 598 726 660 633 q 432 819 536 819 l 414 819 q 411 649 411 735 q 411 475 411 563 l 411 432 z "},"E":{"ha":821,"x_min":39,"x_max":793,"o":"m 136 431 l 136 475 q 136 644 136 560 q 135 814 136 729 l 39 824 l 39 906 l 756 906 l 765 669 l 635 669 l 608 824 l 414 824 q 411 670 411 747 q 411 514 411 593 l 539 514 l 556 614 l 643 614 l 643 326 l 556 326 l 540 425 l 411 425 q 411 249 411 333 q 414 81 411 164 l 636 81 l 663 236 l 793 236 l 783 0 l 39 0 l 39 82 l 135 92 q 136 260 136 175 q 136 431 136 344 z "},"F":{"ha":806,"x_min":39,"x_max":778,"o":"m 136 431 l 136 475 q 136 644 136 560 q 135 814 136 729 l 39 824 l 39 906 l 768 906 l 778 669 l 647 669 l 621 824 l 414 824 q 411 670 411 747 q 411 514 411 593 l 540 514 l 557 614 l 644 614 l 644 313 l 557 313 l 539 425 l 411 425 q 411 255 411 336 q 413 94 411 174 l 536 82 l 536 0 l 39 0 l 39 82 l 135 92 q 136 260 136 175 q 136 431 136 344 z "},"G":{"ha":933,"x_min":39,"x_max":913,"o":"m 843 110 l 843 53 q 695 -9 769 10 q 525 -28 621 -28 q 327 3 417 -28 q 174 97 238 35 q 74 249 110 158 q 39 456 39 339 q 72 656 39 567 q 169 806 106 744 q 328 901 233 868 q 546 933 422 933 q 678 918 608 933 q 811 871 749 903 l 817 649 l 700 649 l 654 838 q 579 851 617 851 q 483 829 529 851 q 401 759 436 807 q 344 636 365 711 q 324 456 324 561 q 344 274 324 350 q 399 149 365 199 q 478 77 433 100 q 572 54 524 54 l 585 54 l 585 117 q 584 236 585 179 q 582 353 583 293 l 465 371 l 465 453 l 913 453 l 913 371 l 846 361 q 844 237 844 299 q 843 110 843 175 z "},"H":{"ha":1050,"x_min":39,"x_max":1011,"o":"m 133 431 l 133 475 q 133 644 133 560 q 132 814 133 729 l 39 824 l 39 906 l 496 906 l 496 824 l 410 815 q 408 664 408 740 q 408 510 408 588 l 642 510 q 642 663 642 586 q 640 815 642 739 l 554 824 l 554 906 l 1011 906 l 1011 824 l 918 814 q 917 646 917 731 q 917 475 917 561 l 917 431 q 917 261 917 346 q 918 92 917 176 l 1011 82 l 1011 0 l 554 0 l 554 82 l 640 90 q 642 259 642 175 q 642 422 642 343 l 408 422 q 408 253 408 335 q 410 90 408 171 l 496 82 l 496 0 l 39 0 l 39 82 l 132 92 q 133 260 133 175 q 133 431 133 344 z "},"I":{"ha":549,"x_min":39,"x_max":510,"o":"m 136 431 l 136 475 q 136 644 136 560 q 135 814 136 729 l 39 824 l 39 906 l 510 906 l 510 824 l 413 814 q 411 646 411 731 q 411 475 411 561 l 411 432 q 411 261 411 346 q 413 92 411 176 l 510 82 l 510 0 l 39 0 l 39 82 l 135 92 q 136 260 136 175 q 136 431 136 344 z "},"J":{"ha":561,"x_min":-143,"x_max":526,"o":"m 42 824 l 42 906 l 526 906 l 526 824 l 429 814 q 428 655 428 735 q 428 493 428 575 l 428 378 q 409 115 428 224 q 349 -67 390 7 q 221 -199 300 -151 q 43 -246 142 -246 q -143 -150 -83 -246 q -108 -66 -143 -99 q -22 -33 -74 -33 q 49 -56 18 -33 q 114 -125 81 -79 l 139 -161 q 156 -72 151 -129 q 160 68 160 -15 q 157 366 160 178 q 150 813 154 554 l 42 824 z "},"K":{"ha":983,"x_min":39,"x_max":976,"o":"m 136 431 l 136 475 q 136 644 136 560 q 135 814 136 729 l 39 824 l 39 906 l 496 906 l 496 824 l 400 814 q 399 646 399 731 q 399 475 399 561 l 399 449 l 688 807 l 601 824 l 601 906 l 924 906 l 924 824 l 794 807 l 628 611 l 900 90 l 976 82 l 976 0 l 557 0 l 557 82 l 604 88 l 453 404 l 399 340 q 399 215 399 278 q 400 90 399 153 l 475 82 l 475 0 l 39 0 l 39 82 l 135 92 q 136 260 136 175 q 136 431 136 344 z "},"L":{"ha":797,"x_min":39,"x_max":783,"o":"m 136 475 q 136 644 136 560 q 135 814 136 729 l 39 824 l 39 906 l 524 906 l 524 824 l 413 813 q 411 645 411 729 q 411 475 411 561 l 411 411 q 411 253 411 336 q 414 83 411 171 l 624 83 l 661 276 l 783 276 l 769 0 l 39 0 l 39 82 l 135 92 q 136 251 136 175 q 136 390 136 328 l 136 475 z "},"M":{"ha":1240,"x_min":14,"x_max":1203,"o":"m 14 0 l 14 82 l 151 99 l 151 810 l 31 824 l 31 906 l 442 906 l 633 358 l 814 906 l 1196 906 l 1196 824 l 1107 814 q 1106 644 1106 729 q 1106 475 1106 560 l 1106 431 q 1106 260 1106 344 q 1107 92 1106 175 l 1203 82 l 1203 0 l 733 0 l 733 82 l 828 93 q 830 253 831 176 q 831 390 829 329 l 835 674 l 608 0 l 486 0 l 246 674 q 248 538 247 607 q 249 399 249 469 l 249 100 l 364 82 l 364 0 l 14 0 z "},"N":{"ha":1007,"x_min":33,"x_max":974,"o":"m 33 0 l 33 82 l 151 99 l 151 782 l 128 815 l 33 822 l 33 906 l 388 906 l 758 397 l 758 806 l 594 824 l 594 906 l 974 906 l 974 824 l 856 807 l 856 0 l 710 0 l 249 646 l 249 100 l 413 82 l 413 0 l 33 0 z "},"O":{"ha":972,"x_min":39,"x_max":933,"o":"m 324 453 q 333 290 324 363 q 361 165 342 217 q 411 85 381 114 q 486 57 442 57 q 561 85 531 57 q 611 165 592 114 q 640 290 631 217 q 649 453 649 363 q 640 615 649 542 q 611 741 631 689 q 561 822 592 793 q 486 850 531 850 q 411 822 442 850 q 361 741 381 793 q 333 615 342 689 q 324 453 324 542 m 486 933 q 654 904 574 933 q 797 815 735 875 q 897 665 860 756 q 933 453 933 575 q 897 240 933 331 q 798 90 860 150 q 655 1 736 31 q 486 -28 574 -28 q 317 1 399 -28 q 174 90 236 31 q 76 240 113 150 q 39 453 39 331 q 76 665 39 575 q 175 815 113 756 q 318 904 238 875 q 486 933 399 933 z "},"P":{"ha":864,"x_min":39,"x_max":844,"o":"m 136 431 l 136 475 q 136 644 136 560 q 135 814 136 729 l 39 824 l 39 906 l 418 906 q 616 886 535 906 q 748 831 697 867 q 822 745 799 796 q 844 632 844 694 q 824 519 844 572 q 756 427 804 467 q 630 365 708 388 q 436 342 551 342 l 411 342 q 411 224 411 288 q 413 94 411 161 l 536 82 l 536 0 l 39 0 l 39 82 l 135 92 q 136 260 136 175 q 136 431 136 344 m 411 475 l 411 425 l 431 425 q 551 482 510 425 q 593 633 593 539 q 548 774 593 728 q 425 819 503 819 l 414 819 q 411 649 411 735 q 411 475 411 563 z "},"Q":{"ha":972,"x_min":39,"x_max":933,"o":"m 681 -281 q 446 -207 529 -281 q 353 -10 363 -133 q 229 46 286 8 q 130 141 172 83 q 63 276 88 199 q 39 453 39 354 q 76 665 39 575 q 175 815 113 756 q 318 904 238 875 q 486 933 399 933 q 654 904 574 933 q 797 815 735 875 q 897 665 860 756 q 933 453 933 575 q 908 274 933 353 q 838 136 882 194 q 735 41 794 78 q 608 -12 676 4 q 648 -124 611 -83 q 747 -164 685 -164 q 794 -161 768 -164 q 844 -147 821 -158 l 881 -236 q 794 -270 846 -260 q 681 -281 743 -281 m 324 453 q 333 290 324 363 q 361 165 342 217 q 411 85 381 114 q 486 57 442 57 q 561 85 531 57 q 611 165 592 114 q 640 290 631 217 q 649 453 649 363 q 640 615 649 542 q 611 741 631 689 q 561 822 592 793 q 486 850 531 850 q 411 822 442 850 q 361 741 381 793 q 333 615 342 689 q 324 453 324 542 z "},"R":{"ha":967,"x_min":39,"x_max":967,"o":"m 136 431 l 136 475 q 136 644 136 560 q 135 814 136 729 l 39 824 l 39 906 l 517 906 q 770 846 683 906 q 857 681 857 786 q 845 614 857 647 q 805 551 833 581 q 728 500 776 522 q 606 467 679 478 q 719 439 675 458 q 791 390 764 419 q 831 319 818 360 q 850 226 843 278 l 867 93 l 967 82 l 967 0 q 915 -11 936 -7 q 877 -18 894 -15 q 840 -22 860 -21 q 794 -22 821 -22 q 706 -14 746 -22 q 638 13 667 -6 q 591 63 608 32 q 569 142 574 94 l 556 278 q 525 379 549 343 q 449 415 501 415 l 406 415 q 406 251 406 331 q 407 92 406 171 l 508 82 l 508 0 l 39 0 l 39 82 l 135 92 q 136 260 136 175 q 136 431 136 344 m 439 819 l 408 819 q 406 652 406 735 q 406 499 406 569 l 436 499 q 518 513 486 499 q 568 549 550 526 q 593 601 586 572 q 600 660 600 629 q 558 781 600 743 q 439 819 515 819 z "},"S":{"ha":768,"x_min":43,"x_max":733,"o":"m 358 60 q 454 95 424 60 q 485 178 485 131 q 462 256 485 228 q 386 308 439 283 l 325 338 q 210 400 260 368 q 128 470 161 432 q 77 555 94 508 q 60 661 60 601 q 155 861 60 789 q 418 933 250 933 q 568 915 494 933 q 694 864 642 897 l 682 664 l 538 664 l 513 829 q 426 846 471 846 q 378 838 401 846 q 338 814 356 829 q 311 778 321 799 q 301 732 301 757 q 330 651 301 681 q 415 594 358 622 l 485 561 q 597 499 550 529 q 674 433 644 468 q 719 355 704 397 q 733 258 733 313 q 710 144 733 197 q 641 53 688 92 q 524 -6 594 15 q 357 -28 453 -28 q 193 -12 278 -28 q 43 44 108 4 l 51 256 l 199 256 l 226 81 q 358 60 289 60 z "},"T":{"ha":897,"x_min":28,"x_max":869,"o":"m 311 431 l 311 475 q 311 649 311 563 q 308 824 311 736 l 182 824 l 158 643 l 28 643 l 31 906 l 868 906 l 869 643 l 740 643 l 717 824 l 589 824 q 586 651 586 738 q 586 475 586 564 l 586 432 q 586 262 586 346 q 588 93 586 178 l 699 82 l 699 0 l 200 0 l 200 82 l 310 93 q 311 260 311 176 q 311 431 311 344 z "},"U":{"ha":1017,"x_min":35,"x_max":986,"o":"m 407 389 q 418 260 407 313 q 451 174 429 207 q 508 125 474 140 q 592 110 543 110 q 725 174 675 110 q 775 385 775 239 l 775 815 l 656 824 l 656 906 l 986 906 l 986 824 l 874 815 l 874 399 q 776 74 874 176 q 493 -28 678 -28 q 349 -8 415 -28 q 235 55 283 11 q 159 169 186 99 q 132 343 132 240 l 132 494 q 132 653 132 574 q 131 814 132 733 l 35 824 l 35 906 l 513 906 l 513 824 l 408 814 q 407 655 407 735 q 407 494 407 575 l 407 389 z "},"V":{"ha":911,"x_min":7,"x_max":911,"o":"m 365 0 l 78 817 l 7 824 l 7 906 l 483 906 l 483 831 l 371 815 l 543 282 l 722 811 l 618 831 l 618 906 l 911 906 l 911 824 l 815 807 l 532 0 l 365 0 z "},"W":{"ha":1374,"x_min":7,"x_max":1374,"o":"m 851 0 l 674 597 l 494 0 l 328 0 l 81 817 l 7 824 l 7 906 l 460 906 l 460 824 l 367 814 l 499 289 l 647 813 l 561 824 l 561 906 l 993 906 l 993 824 l 879 810 l 1022 276 l 1175 810 l 1089 824 l 1089 906 l 1374 906 l 1374 824 l 1268 806 l 1018 0 l 851 0 z "},"X":{"ha":913,"x_min":8,"x_max":904,"o":"m 8 0 l 8 82 l 106 89 l 325 414 l 96 814 l 11 824 l 11 906 l 464 906 l 464 824 l 396 817 l 517 606 l 644 819 l 572 824 l 572 906 l 851 906 l 851 824 l 754 818 l 564 524 l 813 92 l 904 82 l 904 0 l 421 0 l 421 82 l 511 92 l 372 333 l 217 88 l 294 82 l 294 0 l 8 0 z "},"Y":{"ha":863,"x_min":7,"x_max":863,"o":"m 685 0 l 186 0 l 186 82 l 296 93 q 297 205 297 144 q 297 356 297 265 l 72 818 l 7 824 l 7 906 l 478 906 l 478 824 l 385 813 l 528 489 l 672 810 l 588 824 l 588 906 l 863 906 l 863 824 l 771 807 l 572 408 q 572 304 572 350 q 572 222 572 258 q 573 153 572 185 q 574 93 574 122 l 685 82 l 685 0 z "},"Z":{"ha":789,"x_min":28,"x_max":761,"o":"m 639 263 l 761 263 l 750 0 l 28 0 l 28 69 l 442 822 l 197 822 l 161 643 l 42 643 l 53 906 l 753 906 l 753 836 l 339 83 l 604 83 l 639 263 z "},"a":{"ha":750,"x_min":35,"x_max":761,"o":"m 346 99 q 404 122 372 99 l 404 353 q 364 338 383 347 q 333 319 349 331 q 304 290 318 307 q 282 251 290 274 q 274 200 274 228 q 294 124 274 149 q 346 99 315 99 m 575 -22 q 469 3 508 -22 q 413 76 431 28 q 373 36 392 54 q 331 5 354 18 q 281 -15 308 -8 q 215 -22 253 -22 q 83 24 132 -22 q 35 157 35 71 q 47 231 35 197 q 92 294 60 265 q 180 349 125 324 q 319 396 235 374 q 358 406 336 400 q 404 418 381 411 l 404 468 q 400 542 404 513 q 384 590 396 572 q 352 616 372 608 q 299 624 332 624 l 278 624 l 278 576 q 243 456 278 492 q 164 421 208 421 q 58 496 79 421 q 144 642 58 586 q 397 699 229 699 q 519 683 469 699 q 601 635 569 668 q 646 551 632 603 q 660 429 660 500 l 660 111 q 683 88 660 88 q 700 93 692 88 q 721 118 708 99 l 761 96 q 693 5 736 32 q 575 -22 650 -22 z "},"b":{"ha":865,"x_min":28,"x_max":835,"o":"m 39 -1 l 39 69 l 101 83 q 103 190 103 133 q 103 290 103 247 l 103 867 l 28 876 l 28 939 l 344 1001 l 368 986 l 363 793 l 363 618 q 560 699 444 699 q 667 676 617 699 q 754 610 717 654 q 813 499 792 565 q 835 343 835 432 q 809 190 835 257 q 742 75 783 122 q 646 3 700 28 q 533 -22 592 -22 q 428 -2 472 -22 q 351 56 385 18 l 324 -22 l 39 -1 m 432 111 q 521 167 488 111 q 554 343 554 224 q 521 512 554 463 q 432 561 488 561 q 367 540 399 561 l 367 131 q 432 111 394 111 z "},"c":{"ha":726,"x_min":31,"x_max":693,"o":"m 460 624 q 409 610 436 624 q 360 567 382 597 q 323 488 338 536 q 308 367 308 439 q 358 189 308 250 q 490 128 407 128 q 569 147 536 128 q 632 193 603 165 l 686 140 q 566 17 642 56 q 390 -22 490 -22 q 254 0 319 -22 q 140 67 189 22 q 60 178 90 111 q 31 336 31 246 q 61 490 31 422 q 145 603 92 557 q 272 674 199 650 q 428 699 344 699 q 534 682 486 699 q 616 636 582 665 q 670 569 650 607 q 693 488 690 531 q 654 426 679 446 q 588 407 629 407 q 545 415 565 407 q 508 440 525 422 q 481 489 492 458 q 468 565 469 519 l 465 624 l 460 624 z "},"d":{"ha":840,"x_min":31,"x_max":807,"o":"m 311 335 q 345 172 311 229 q 436 115 379 115 q 493 131 467 115 l 493 553 q 442 565 469 565 q 347 508 383 565 q 311 335 311 451 m 513 -17 l 500 58 q 306 -22 421 -22 q 199 0 249 -22 q 111 67 149 22 q 52 177 74 111 q 31 332 31 243 q 58 488 31 419 q 128 602 85 556 q 228 674 172 649 q 340 699 283 699 q 434 682 396 699 q 503 635 472 665 l 503 863 l 414 876 l 414 939 l 739 1001 l 763 986 l 757 793 l 757 83 l 807 71 l 807 0 l 513 -17 z "},"e":{"ha":731,"x_min":31,"x_max":703,"o":"m 404 699 q 535 675 479 699 q 628 610 590 651 q 684 513 665 568 q 703 394 703 457 q 701 356 703 372 q 696 321 700 340 l 310 321 q 369 173 321 218 q 481 128 418 128 q 572 147 533 128 q 639 193 610 165 l 693 140 q 572 17 649 56 q 392 -22 496 -22 q 247 2 314 -22 q 133 73 181 26 q 58 187 85 119 q 31 340 31 254 q 63 497 31 429 q 149 609 96 564 q 269 676 203 654 q 404 699 336 699 m 388 624 q 357 613 371 624 q 333 576 343 603 q 316 507 322 550 q 308 400 310 464 l 374 400 q 441 420 424 400 q 458 493 458 440 q 437 594 458 565 q 388 624 415 624 z "},"f":{"ha":507,"x_min":24,"x_max":656,"o":"m 103 292 l 103 572 l 24 572 l 24 664 l 107 674 q 156 831 121 775 q 229 921 190 888 q 349 994 288 972 q 476 1015 411 1015 q 536 1010 507 1015 q 590 992 565 1004 q 631 958 614 979 q 656 906 649 936 q 628 831 656 861 q 550 801 600 801 q 478 829 511 801 q 415 924 446 857 l 413 929 q 401 914 404 918 q 367 813 375 871 q 363 676 360 756 l 494 676 l 494 572 l 367 572 l 367 292 q 367 194 367 243 q 368 94 367 144 l 468 71 l 468 0 l 38 0 l 38 71 l 100 85 q 102 188 101 138 q 103 292 103 239 z "},"g":{"ha":768,"x_min":10,"x_max":761,"o":"m 340 -218 q 492 -192 442 -218 q 542 -126 542 -167 q 522 -81 542 -103 q 454 -58 503 -58 l 315 -58 q 233 -55 271 -58 q 164 -42 194 -51 q 155 -70 157 -57 q 153 -104 153 -83 q 197 -191 153 -164 q 340 -218 240 -218 m 39 475 q 56 562 39 521 q 110 633 74 603 q 206 681 147 663 q 346 699 264 699 q 488 681 429 699 q 583 632 547 663 l 739 703 l 761 689 l 761 574 l 631 574 q 653 475 653 531 q 635 391 653 431 q 581 322 618 351 q 486 274 544 292 q 346 256 428 256 q 210 272 265 256 q 200 219 200 251 q 219 183 200 196 q 281 171 238 171 l 435 171 q 583 155 524 171 q 679 111 643 139 q 731 44 715 83 q 746 -42 746 4 q 718 -147 746 -99 q 635 -231 690 -196 q 498 -287 579 -267 q 311 -308 417 -308 q 163 -294 221 -308 q 70 -258 104 -281 q 23 -207 36 -236 q 10 -149 10 -178 q 38 -69 10 -104 q 117 -11 65 -35 q 56 39 74 8 q 39 103 39 69 q 70 204 39 157 q 153 293 101 251 q 66 372 93 324 q 39 475 39 419 m 346 629 q 289 590 307 629 q 271 478 271 551 q 288 365 271 404 q 346 325 304 325 q 406 365 388 325 q 424 478 424 404 q 404 590 424 551 q 346 629 385 629 z "},"h":{"ha":867,"x_min":28,"x_max":843,"o":"m 569 699 q 723 640 663 699 q 783 467 783 581 l 783 292 q 783 190 783 247 q 785 83 783 133 l 843 71 l 843 0 l 458 0 l 458 71 l 518 85 q 519 191 519 135 q 519 292 519 247 l 519 449 q 508 528 519 506 q 461 550 496 550 q 416 537 440 550 q 367 500 392 524 l 367 292 q 367 190 367 247 q 368 82 367 133 l 421 71 l 421 0 l 38 0 l 38 71 l 101 86 q 103 192 103 136 q 103 292 103 249 l 103 863 l 28 876 l 28 939 l 344 1001 l 368 986 l 363 793 l 363 589 q 465 676 418 654 q 569 699 511 699 z "},"i":{"ha":450,"x_min":24,"x_max":426,"o":"m 232 781 q 142 814 179 781 q 104 900 104 847 q 142 986 104 953 q 232 1019 179 1019 q 322 986 285 1019 q 360 900 360 953 q 322 814 360 847 q 232 781 285 781 m 426 0 l 39 0 l 39 71 l 101 85 q 103 192 103 136 q 103 292 103 249 l 103 358 q 101 453 103 415 q 99 533 100 492 l 24 546 l 24 603 l 346 699 l 371 683 l 367 476 l 367 292 q 367 190 367 247 q 368 83 367 133 l 426 71 l 426 0 z "},"j":{"ha":444,"x_min":-183,"x_max":365,"o":"m 226 781 q 136 814 174 781 q 99 900 99 847 q 136 986 99 953 q 226 1019 174 1019 q 317 986 279 1019 q 354 900 354 953 q 317 814 354 847 q 226 781 279 781 m 97 106 l 97 358 q 96 453 97 415 q 93 533 94 492 l 18 546 l 18 603 l 340 699 l 365 683 l 361 476 l 361 49 q 356 -44 361 -4 q 339 -116 350 -85 q 310 -172 328 -147 q 268 -222 293 -197 q 204 -272 238 -253 q 138 -303 171 -292 q 73 -318 104 -314 q 17 -322 42 -322 q -112 -292 -62 -322 q -183 -219 -161 -261 q -170 -168 -182 -190 q -140 -131 -158 -146 q -99 -108 -121 -115 q -53 -100 -76 -100 q 23 -124 -12 -100 q 82 -197 58 -149 l 93 -222 q 101 -194 100 -210 q 106 -131 106 -168 q 103 -52 106 -93 q 99 30 101 -11 q 97 106 97 71 z "},"k":{"ha":860,"x_min":28,"x_max":857,"o":"m 28 939 l 349 1001 l 372 986 l 367 793 l 367 389 l 586 597 l 494 611 l 494 676 l 819 676 l 819 611 l 697 594 l 586 494 l 769 94 l 857 71 l 857 0 l 535 0 l 403 326 l 367 294 q 367 191 367 250 q 368 83 367 132 l 428 71 l 428 0 l 38 0 l 38 71 l 101 86 q 102 140 101 111 q 103 196 103 168 q 103 249 103 224 q 103 292 103 274 l 103 863 l 28 876 l 28 939 z "},"l":{"ha":464,"x_min":28,"x_max":432,"o":"m 28 939 l 349 1001 l 372 986 l 367 793 l 367 292 q 367 188 367 239 q 369 83 368 136 l 432 71 l 432 0 l 38 0 l 38 71 l 100 85 q 102 188 101 138 q 103 292 103 239 l 103 863 l 28 876 l 28 939 z "},"m":{"ha":1264,"x_min":18,"x_max":1240,"o":"m 564 699 q 756 578 711 699 q 811 638 785 614 q 863 674 838 661 q 913 693 888 688 q 968 699 939 699 q 1131 636 1082 699 q 1181 451 1181 574 l 1181 292 q 1181 190 1181 247 q 1182 83 1181 133 l 1240 71 l 1240 0 l 868 0 l 868 71 l 921 85 q 922 191 922 135 q 922 292 922 247 l 922 432 q 908 526 922 503 q 858 550 894 550 q 769 517 814 550 q 772 493 771 506 q 772 467 772 481 l 772 292 q 772 190 772 247 q 774 82 772 133 l 826 71 l 826 0 l 453 0 l 453 71 l 513 86 q 514 191 514 135 q 514 292 514 247 l 514 432 q 501 523 514 496 q 447 550 488 550 q 404 540 426 550 q 361 515 382 531 l 361 292 q 361 190 361 247 q 363 82 361 133 l 415 71 l 415 0 l 32 0 l 32 71 l 96 86 q 97 192 97 136 q 97 292 97 249 l 97 378 q 97 427 97 407 q 97 464 97 447 q 95 497 96 481 q 93 533 94 513 l 18 546 l 18 603 l 325 699 l 350 683 l 357 588 q 453 672 406 646 q 564 699 501 699 z "},"n":{"ha":861,"x_min":18,"x_max":838,"o":"m 568 699 q 652 683 614 699 q 718 639 690 668 q 762 567 746 610 q 778 467 778 524 l 778 292 q 778 190 778 247 q 779 83 778 133 l 838 71 l 838 0 l 453 0 l 453 71 l 513 85 q 514 191 514 135 q 514 292 514 247 l 514 449 q 499 527 514 504 q 451 550 485 550 q 410 540 433 550 q 361 514 386 531 l 361 292 q 361 190 361 247 q 363 82 361 133 l 415 71 l 415 0 l 32 0 l 32 71 l 96 86 q 97 192 97 136 q 97 292 97 249 l 97 378 q 97 427 97 407 q 97 464 97 447 q 95 497 96 481 q 93 533 94 513 l 18 546 l 18 603 l 325 699 l 350 683 l 357 589 q 410 643 385 622 q 461 676 436 664 q 513 694 486 689 q 568 699 539 699 z "},"o":{"ha":794,"x_min":31,"x_max":764,"o":"m 397 -22 q 239 6 307 -22 q 124 83 171 33 q 54 199 78 132 q 31 343 31 265 q 58 486 31 421 q 133 599 85 551 q 249 672 182 646 q 397 699 317 699 q 545 673 478 699 q 661 600 613 647 q 737 488 710 553 q 764 343 764 422 q 740 197 764 264 q 670 81 717 131 q 555 5 624 32 q 397 -22 486 -22 m 397 54 q 465 120 443 54 q 486 339 486 186 q 465 556 486 490 q 397 622 443 622 q 330 556 351 622 q 308 339 308 490 q 330 120 308 186 q 397 54 351 54 z "},"p":{"ha":865,"x_min":24,"x_max":835,"o":"m 554 342 q 521 511 554 461 q 432 561 488 561 q 367 540 399 561 l 367 131 q 432 111 394 111 q 521 167 488 111 q 554 342 554 222 m 103 11 l 103 378 q 103 427 103 407 q 102 464 103 447 q 101 497 101 481 q 99 533 100 513 l 24 546 l 24 603 l 328 699 l 351 686 l 357 613 q 449 677 400 656 q 560 699 499 699 q 667 676 617 699 q 754 609 717 654 q 813 497 792 564 q 835 342 835 431 q 809 188 835 256 q 742 74 783 121 q 646 3 700 28 q 533 -22 592 -22 q 436 -5 478 -22 q 363 44 394 13 l 363 11 q 363 -93 363 -37 q 365 -215 364 -149 l 439 -236 l 439 -308 l 38 -308 l 38 -236 l 100 -222 q 102 -94 101 -151 q 103 11 103 -37 z "},"q":{"ha":825,"x_min":31,"x_max":811,"o":"m 311 333 q 345 172 311 228 q 436 115 379 115 q 493 131 467 115 l 493 556 q 444 565 469 565 q 347 508 382 565 q 311 333 311 450 m 757 -17 q 758 -120 757 -69 q 760 -224 758 -171 l 811 -236 l 811 -308 l 421 -308 l 421 -236 l 496 -215 q 497 -117 497 -167 q 497 -17 497 -67 l 497 56 q 410 -3 457 15 q 306 -22 363 -22 q 199 0 249 -22 q 111 66 149 22 q 52 176 74 110 q 31 331 31 242 q 57 487 31 418 q 128 603 83 556 q 232 674 174 650 q 354 699 290 699 q 525 621 453 699 l 713 699 l 761 685 l 757 497 l 757 -17 z "},"r":{"ha":671,"x_min":18,"x_max":672,"o":"m 29 0 l 29 71 l 96 86 q 97 192 97 136 q 97 292 97 249 l 97 379 q 97 428 97 408 q 97 464 97 447 q 95 497 96 481 q 93 533 94 513 l 18 546 l 18 603 l 325 699 l 350 683 l 361 524 q 441 656 389 613 q 543 699 493 699 q 630 669 594 699 q 672 575 665 639 q 639 488 669 518 q 567 457 608 457 q 505 475 532 457 q 450 533 478 493 l 443 543 q 394 471 418 515 q 361 379 369 426 l 361 292 q 361 197 361 251 q 363 94 361 143 l 471 71 l 471 0 l 29 0 z "},"s":{"ha":643,"x_min":31,"x_max":618,"o":"m 286 -22 q 31 46 142 -22 l 38 224 l 164 224 l 186 79 q 234 65 210 69 q 286 60 258 60 q 368 76 339 60 q 397 132 397 92 q 376 181 397 160 q 285 222 354 203 l 206 243 q 80 321 122 265 q 38 458 38 376 q 58 554 38 510 q 117 631 78 599 q 215 681 157 663 q 347 699 272 699 q 465 685 411 699 q 578 643 519 671 l 567 486 l 439 486 l 408 610 q 378 615 394 613 q 340 617 363 617 q 274 599 300 617 q 247 546 247 582 q 251 524 247 535 q 267 503 256 514 q 301 483 279 493 q 358 463 322 472 l 436 442 q 576 360 533 415 q 618 222 618 306 q 594 115 618 161 q 528 39 571 69 q 424 -7 485 8 q 286 -22 363 -22 z "},"t":{"ha":517,"x_min":17,"x_max":531,"o":"m 360 200 q 379 131 360 153 q 428 108 399 108 q 496 136 460 108 l 531 104 q 450 10 503 43 q 311 -22 397 -22 q 151 26 208 -22 q 94 185 94 74 q 95 259 94 225 q 96 333 96 293 l 96 572 l 17 572 l 17 664 l 111 676 l 194 874 l 360 874 l 360 676 l 488 676 l 488 572 l 360 572 l 360 200 z "},"u":{"ha":857,"x_min":24,"x_max":838,"o":"m 838 -1 l 515 -17 l 510 93 q 414 8 468 39 q 293 -22 360 -22 q 210 -9 247 -22 q 145 34 172 4 q 103 111 118 64 q 90 228 89 158 l 96 564 l 24 581 l 24 643 l 339 692 l 364 676 l 357 479 l 357 221 q 374 147 357 167 q 418 126 390 126 q 462 140 439 126 q 507 175 485 154 l 513 565 l 446 581 l 446 636 l 753 692 l 778 676 l 774 479 l 774 83 l 838 69 l 838 -1 z "},"v":{"ha":744,"x_min":-14,"x_max":738,"o":"m 425 0 l 300 0 l 53 597 l -14 611 l -14 676 l 404 676 l 404 611 l 331 594 l 446 276 l 553 596 l 476 611 l 476 676 l 738 676 l 738 611 l 654 597 l 425 0 z "},"w":{"ha":1111,"x_min":-14,"x_max":1104,"o":"m 683 0 q 588 255 625 153 q 532 428 551 357 l 383 0 l 258 0 l 40 603 l -14 611 l -14 676 l 372 676 l 372 611 l 303 601 l 397 275 l 504 601 l 432 611 l 432 676 l 785 676 l 785 611 l 721 601 l 817 286 l 921 601 l 851 611 l 851 676 l 1104 676 l 1104 611 l 1024 601 l 808 0 l 683 0 z "},"x":{"ha":782,"x_min":14,"x_max":768,"o":"m 271 71 l 271 0 l 14 0 l 14 71 l 113 85 l 264 301 l 86 601 l 17 611 l 17 676 l 439 676 l 439 611 l 386 603 l 474 460 l 558 599 l 504 611 l 504 676 l 739 676 l 739 611 l 661 596 l 515 390 l 700 83 l 768 71 l 768 0 l 346 0 l 346 71 l 397 78 l 308 228 l 217 82 l 271 71 z "},"y":{"ha":754,"x_min":-7,"x_max":747,"o":"m 151 -322 q 50 -290 93 -322 q 1 -212 7 -258 q 46 -135 11 -160 q 125 -111 81 -111 q 188 -123 153 -111 q 251 -181 224 -135 l 261 -196 q 306 -133 285 -168 q 342 -60 328 -99 l 54 600 l -7 611 l -7 676 l 414 676 l 414 613 l 332 594 l 451 260 l 569 594 l 489 611 l 489 676 l 747 676 l 747 611 l 664 597 l 401 -82 q 356 -183 379 -139 q 305 -258 333 -228 q 239 -306 276 -289 q 151 -322 201 -322 z "},"z":{"ha":650,"x_min":19,"x_max":636,"o":"m 39 676 l 625 676 l 625 621 l 314 67 l 467 67 l 507 235 l 636 235 l 622 0 l 19 0 l 19 57 l 346 611 l 193 611 l 156 457 l 28 463 l 39 676 z "},"À":{"ha":944,"x_min":14,"x_max":924,"o":"m 14 0 l 14 82 l 124 97 l 401 906 l 568 906 l 849 86 l 924 78 l 924 0 l 475 0 l 475 78 l 571 92 l 521 250 l 258 250 l 211 99 l 306 82 l 306 0 l 14 0 m 494 338 l 392 667 l 288 338 l 494 338 m 565 1013 l 522 950 q 408 997 465 974 q 292 1044 351 1019 q 247 1069 264 1056 q 222 1095 231 1082 q 210 1121 213 1108 q 207 1143 207 1133 q 231 1198 207 1172 q 292 1224 254 1224 q 343 1212 319 1224 q 401 1168 367 1200 q 482 1092 440 1132 q 565 1013 524 1053 z "},"Á":{"ha":944,"x_min":14,"x_max":924,"o":"m 14 0 l 14 82 l 124 97 l 401 906 l 568 906 l 849 86 l 924 78 l 924 0 l 475 0 l 475 78 l 571 92 l 521 250 l 258 250 l 211 99 l 306 82 l 306 0 l 14 0 m 494 338 l 392 667 l 288 338 l 494 338 m 374 1013 q 456 1092 414 1053 q 536 1167 497 1131 q 596 1212 572 1200 q 647 1224 619 1224 q 708 1198 685 1224 q 732 1143 732 1172 q 717 1097 732 1124 q 650 1047 703 1069 q 533 999 590 1022 q 417 950 475 975 l 374 1013 z "},"Â":{"ha":944,"x_min":14,"x_max":924,"o":"m 14 0 l 14 82 l 124 97 l 401 906 l 568 906 l 849 86 l 924 78 l 924 0 l 475 0 l 475 78 l 571 92 l 521 250 l 258 250 l 211 99 l 306 82 l 306 0 l 14 0 m 494 338 l 392 667 l 288 338 l 494 338 m 535 1225 l 753 993 l 706 938 l 478 1063 l 250 938 l 203 993 l 421 1225 l 535 1225 z "},"Ã":{"ha":944,"x_min":14,"x_max":924,"o":"m 14 0 l 14 82 l 124 97 l 401 906 l 568 906 l 849 86 l 924 78 l 924 0 l 475 0 l 475 78 l 571 92 l 521 250 l 258 250 l 211 99 l 306 82 l 306 0 l 14 0 m 494 338 l 392 667 l 288 338 l 494 338 m 221 992 q 278 1140 232 1089 q 386 1190 324 1190 q 441 1180 417 1190 q 488 1157 465 1169 q 529 1134 507 1146 q 576 1122 551 1122 q 628 1141 606 1122 q 663 1193 650 1160 l 728 1165 q 671 1017 717 1069 q 567 965 625 965 q 510 976 539 965 q 460 999 482 986 q 419 1022 440 1010 q 371 1033 397 1033 q 320 1015 342 1033 q 286 964 299 996 l 221 992 z "},"Ä":{"ha":944,"x_min":14,"x_max":924,"o":"m 14 0 l 14 82 l 124 97 l 401 906 l 568 906 l 849 86 l 924 78 l 924 0 l 475 0 l 475 78 l 571 92 l 521 250 l 258 250 l 211 99 l 306 82 l 306 0 l 14 0 m 494 338 l 392 667 l 288 338 l 494 338 m 303 972 q 226 999 260 972 q 192 1076 192 1026 q 226 1153 192 1126 q 303 1181 260 1181 q 381 1153 347 1181 q 414 1076 414 1126 q 381 999 414 1026 q 303 972 347 972 m 664 972 q 587 999 621 972 q 553 1076 553 1026 q 587 1153 553 1126 q 664 1181 621 1181 q 742 1153 708 1181 q 775 1076 775 1126 q 742 999 775 1026 q 664 972 708 972 z "},"Ā":{"ha":944,"x_min":14,"x_max":924,"o":"m 14 0 l 14 82 l 124 97 l 401 906 l 568 906 l 849 86 l 924 78 l 924 0 l 475 0 l 475 78 l 571 92 l 521 250 l 258 250 l 211 99 l 306 82 l 306 0 l 14 0 m 494 338 l 392 667 l 288 338 l 494 338 m 254 996 l 254 1135 l 713 1135 l 713 996 l 254 996 z "},"Ă":{"ha":944,"x_min":14,"x_max":924,"o":"m 14 0 l 14 82 l 124 97 l 401 906 l 568 906 l 849 86 l 924 78 l 924 0 l 475 0 l 475 78 l 571 92 l 521 250 l 258 250 l 211 99 l 306 82 l 306 0 l 14 0 m 494 338 l 392 667 l 288 338 l 494 338 m 240 1160 l 313 1189 q 378 1117 339 1142 q 481 1093 418 1093 q 583 1117 543 1093 q 649 1189 622 1142 l 721 1160 q 695 1085 713 1119 q 649 1024 678 1050 q 578 984 619 999 q 481 969 536 969 q 383 984 425 969 q 313 1024 342 999 q 266 1085 283 1050 q 240 1160 249 1119 z "},"Ắ":{"ha":944,"x_min":14,"x_max":924,"o":"m 14 0 l 14 82 l 124 97 l 401 906 l 568 906 l 849 86 l 924 78 l 924 0 l 475 0 l 475 78 l 571 92 l 521 250 l 258 250 l 211 99 l 306 82 l 306 0 l 14 0 m 494 338 l 392 667 l 288 338 l 494 338 m 481 969 q 383 984 425 969 q 313 1024 342 999 q 266 1085 283 1050 q 240 1160 249 1119 l 313 1189 q 378 1117 339 1142 q 481 1093 418 1093 q 583 1117 543 1093 q 649 1189 622 1142 l 721 1160 q 695 1085 713 1119 q 649 1024 678 1050 q 578 984 619 999 q 481 969 536 969 m 399 1206 l 503 1363 q 553 1417 528 1400 q 608 1433 578 1433 q 666 1412 640 1433 q 692 1363 692 1390 q 677 1311 692 1336 q 621 1258 663 1286 l 453 1151 l 399 1206 z "},"Ặ":{"ha":944,"x_min":14,"x_max":924,"o":"m 14 0 l 14 82 l 124 97 l 401 906 l 568 906 l 849 86 l 924 78 l 924 0 l 475 0 l 475 78 l 571 92 l 521 250 l 258 250 l 211 99 l 306 82 l 306 0 l 14 0 m 494 338 l 392 667 l 288 338 l 494 338 m 240 1160 l 313 1189 q 378 1117 339 1142 q 481 1093 418 1093 q 583 1117 543 1093 q 649 1189 622 1142 l 721 1160 q 695 1085 713 1119 q 649 1024 678 1050 q 578 984 619 999 q 481 969 536 969 q 383 984 425 969 q 313 1024 342 999 q 266 1085 283 1050 q 240 1160 249 1119 m 453 -325 q 363 -292 400 -325 q 325 -206 325 -258 q 363 -119 325 -153 q 453 -86 400 -86 q 543 -119 506 -86 q 581 -206 581 -153 q 543 -292 581 -258 q 453 -325 506 -325 z "},"Ằ":{"ha":944,"x_min":14,"x_max":924,"o":"m 14 0 l 14 82 l 124 97 l 401 906 l 568 906 l 849 86 l 924 78 l 924 0 l 475 0 l 475 78 l 571 92 l 521 250 l 258 250 l 211 99 l 306 82 l 306 0 l 14 0 m 494 338 l 392 667 l 288 338 l 494 338 m 481 969 q 383 984 425 969 q 313 1024 342 999 q 266 1085 283 1050 q 240 1160 249 1119 l 313 1189 q 378 1117 339 1142 q 481 1093 418 1093 q 583 1117 543 1093 q 649 1189 622 1142 l 721 1160 q 695 1085 713 1119 q 649 1024 678 1050 q 578 984 619 999 q 481 969 536 969 m 563 1206 l 508 1151 l 340 1258 q 284 1311 299 1286 q 269 1363 269 1336 q 295 1412 269 1390 q 353 1433 321 1433 q 408 1417 383 1433 q 458 1363 433 1400 l 563 1206 z "},"Ẳ":{"ha":944,"x_min":14,"x_max":924,"o":"m 14 0 l 14 82 l 124 97 l 401 906 l 568 906 l 849 86 l 924 78 l 924 0 l 475 0 l 475 78 l 571 92 l 521 250 l 258 250 l 211 99 l 306 82 l 306 0 l 14 0 m 494 338 l 392 667 l 288 338 l 494 338 m 429 1131 l 417 1196 q 478 1215 465 1206 q 490 1233 490 1224 q 467 1257 490 1249 q 376 1271 443 1265 l 389 1429 q 613 1267 613 1411 q 565 1174 613 1207 q 429 1131 517 1142 m 240 1160 l 313 1189 q 378 1117 339 1142 q 481 1093 418 1093 q 583 1117 543 1093 q 649 1189 622 1142 l 721 1160 q 695 1085 713 1119 q 649 1024 678 1050 q 578 984 619 999 q 481 969 536 969 q 383 984 425 969 q 313 1024 342 999 q 266 1085 283 1050 q 240 1160 249 1119 z "},"Ẵ":{"ha":944,"x_min":14,"x_max":924,"o":"m 14 0 l 14 82 l 124 97 l 401 906 l 568 906 l 849 86 l 924 78 l 924 0 l 475 0 l 475 78 l 571 92 l 521 250 l 258 250 l 211 99 l 306 82 l 306 0 l 14 0 m 494 338 l 392 667 l 288 338 l 494 338 m 226 1239 q 278 1364 238 1321 q 383 1407 318 1407 q 446 1399 419 1407 q 494 1383 472 1390 q 537 1371 515 1376 q 583 1365 558 1365 q 669 1419 643 1365 l 735 1397 q 685 1270 724 1314 q 585 1226 646 1226 q 519 1235 549 1226 q 465 1251 489 1244 q 424 1264 444 1258 q 376 1269 403 1269 q 326 1255 347 1269 q 292 1217 304 1240 l 226 1239 m 481 969 q 383 984 425 969 q 313 1024 342 999 q 266 1085 283 1050 q 240 1160 249 1119 l 313 1189 q 378 1117 339 1142 q 481 1093 418 1093 q 583 1117 543 1093 q 649 1189 622 1142 l 721 1160 q 695 1085 713 1119 q 649 1024 678 1050 q 578 984 619 999 q 481 969 536 969 z "},"Ǎ":{"ha":944,"x_min":14,"x_max":924,"o":"m 14 0 l 14 82 l 124 97 l 401 906 l 568 906 l 849 86 l 924 78 l 924 0 l 475 0 l 475 78 l 571 92 l 521 250 l 258 250 l 211 99 l 306 82 l 306 0 l 14 0 m 494 338 l 392 667 l 288 338 l 494 338 m 276 1239 l 481 1111 l 685 1239 l 738 1188 l 543 967 l 418 967 l 225 1188 l 276 1239 z "},"Ấ":{"ha":944,"x_min":14,"x_max":924,"o":"m 14 0 l 14 82 l 124 97 l 401 906 l 568 906 l 849 86 l 924 78 l 924 0 l 475 0 l 475 78 l 571 92 l 521 250 l 258 250 l 211 99 l 306 82 l 306 0 l 14 0 m 494 338 l 392 667 l 288 338 l 494 338 m 253 938 l 206 993 l 424 1225 l 538 1225 l 756 993 l 708 938 l 481 1063 l 253 938 m 732 1086 l 683 1149 l 710 1203 q 774 1288 742 1268 q 833 1308 807 1308 q 888 1285 865 1308 q 911 1226 911 1263 q 883 1163 911 1193 q 808 1115 856 1133 l 732 1086 z "},"Ậ":{"ha":944,"x_min":14,"x_max":924,"o":"m 14 0 l 14 82 l 124 97 l 401 906 l 568 906 l 849 86 l 924 78 l 924 0 l 475 0 l 475 78 l 571 92 l 521 250 l 258 250 l 211 99 l 306 82 l 306 0 l 14 0 m 494 338 l 392 667 l 288 338 l 494 338 m 535 1225 l 753 993 l 706 938 l 478 1063 l 250 938 l 203 993 l 421 1225 l 535 1225 m 425 -325 q 335 -292 372 -325 q 297 -206 297 -258 q 335 -119 297 -153 q 425 -86 372 -86 q 515 -119 478 -86 q 553 -206 553 -153 q 515 -292 553 -258 q 425 -325 478 -325 z "},"Ầ":{"ha":944,"x_min":14,"x_max":924,"o":"m 14 0 l 14 82 l 124 97 l 401 906 l 568 906 l 849 86 l 924 78 l 924 0 l 475 0 l 475 78 l 571 92 l 521 250 l 258 250 l 211 99 l 306 82 l 306 0 l 14 0 m 494 338 l 392 667 l 288 338 l 494 338 m 708 938 l 481 1063 l 253 938 l 206 993 l 424 1225 l 538 1225 l 756 993 l 708 938 m 229 1086 l 153 1115 q 78 1163 106 1133 q 50 1226 50 1193 q 73 1285 50 1263 q 128 1308 96 1308 q 187 1288 154 1308 q 251 1203 219 1268 l 278 1149 l 229 1086 z "},"Ẩ":{"ha":944,"x_min":14,"x_max":924,"o":"m 14 0 l 14 82 l 124 97 l 401 906 l 568 906 l 849 86 l 924 78 l 924 0 l 475 0 l 475 78 l 571 92 l 521 250 l 258 250 l 211 99 l 306 82 l 306 0 l 14 0 m 494 338 l 392 667 l 288 338 l 494 338 m 253 938 l 206 993 l 424 1225 l 538 1225 l 756 993 l 708 938 l 481 1063 l 253 938 m 681 1165 q 742 1186 729 1175 q 754 1207 754 1197 q 731 1228 754 1218 q 640 1244 707 1239 l 653 1403 q 876 1240 876 1385 q 828 1146 876 1181 q 693 1100 781 1111 l 681 1165 z "},"Ẫ":{"ha":944,"x_min":14,"x_max":924,"o":"m 14 0 l 14 82 l 124 97 l 401 906 l 568 906 l 849 86 l 924 78 l 924 0 l 475 0 l 475 78 l 571 92 l 521 250 l 258 250 l 211 99 l 306 82 l 306 0 l 14 0 m 494 338 l 392 667 l 288 338 l 494 338 m 253 936 l 206 992 l 424 1182 l 538 1182 l 756 992 l 708 936 l 481 1039 l 253 936 m 226 1225 q 283 1350 238 1307 q 383 1393 328 1393 q 446 1385 419 1393 q 494 1369 472 1376 q 537 1357 515 1363 q 583 1351 558 1351 q 669 1406 643 1351 l 735 1383 q 715 1310 729 1342 q 679 1257 700 1279 q 634 1224 658 1235 q 585 1213 610 1213 q 519 1222 549 1213 q 465 1238 489 1231 q 424 1250 444 1244 q 376 1256 403 1256 q 326 1241 347 1256 q 292 1203 304 1226 l 226 1225 z "},"Ạ":{"ha":944,"x_min":14,"x_max":924,"o":"m 14 0 l 14 82 l 124 97 l 401 906 l 568 906 l 849 86 l 924 78 l 924 0 l 475 0 l 475 78 l 571 92 l 521 250 l 258 250 l 211 99 l 306 82 l 306 0 l 14 0 m 494 338 l 392 667 l 288 338 l 494 338 m 425 -325 q 335 -292 372 -325 q 297 -206 297 -258 q 335 -119 297 -153 q 425 -86 372 -86 q 515 -119 478 -86 q 553 -206 553 -153 q 515 -292 553 -258 q 425 -325 478 -325 z "},"Ả":{"ha":944,"x_min":14,"x_max":924,"o":"m 14 0 l 14 82 l 124 97 l 401 906 l 568 906 l 849 86 l 924 78 l 924 0 l 475 0 l 475 78 l 571 92 l 521 250 l 258 250 l 211 99 l 306 82 l 306 0 l 14 0 m 494 338 l 392 667 l 288 338 l 494 338 m 415 978 l 403 1043 q 464 1062 451 1053 q 476 1081 476 1071 q 453 1104 476 1096 q 363 1118 429 1113 l 375 1276 q 599 1114 599 1258 q 551 1022 599 1054 q 415 978 503 989 z "},"Å":{"ha":944,"x_min":14,"x_max":924,"o":"m 14 0 l 14 82 l 124 97 l 401 906 l 568 906 l 849 86 l 924 78 l 924 0 l 475 0 l 475 78 l 571 92 l 521 250 l 258 250 l 211 99 l 306 82 l 306 0 l 14 0 m 494 338 l 392 667 l 288 338 l 494 338 m 483 963 q 378 1000 419 963 q 336 1103 336 1038 q 378 1205 336 1167 q 483 1243 419 1243 q 589 1206 547 1243 q 631 1103 631 1169 q 589 999 631 1036 q 483 963 547 963 m 483 1032 q 534 1051 515 1032 q 553 1103 553 1069 q 534 1154 553 1135 q 483 1174 515 1174 q 433 1154 451 1174 q 414 1103 414 1135 q 433 1051 414 1069 q 483 1032 451 1032 z "},"Ą":{"ha":944,"x_min":14,"x_max":940,"o":"m 14 0 l 14 82 l 124 97 l 401 906 l 568 906 l 849 86 l 924 78 l 924 0 l 475 0 l 475 78 l 571 92 l 521 250 l 258 250 l 211 99 l 306 82 l 306 0 l 14 0 m 494 338 l 392 667 l 288 338 l 494 338 m 576 -176 q 622 -65 576 -108 q 750 11 667 -21 l 814 11 q 758 -37 774 -11 q 743 -96 743 -64 q 770 -162 743 -137 q 843 -186 797 -186 q 888 -183 871 -186 q 919 -175 904 -179 l 940 -246 q 852 -297 904 -279 q 740 -315 800 -315 q 618 -275 660 -315 q 576 -176 576 -235 z "},"Æ":{"ha":1222,"x_min":14,"x_max":1194,"o":"m 14 0 l 14 82 l 94 93 l 428 808 l 288 824 l 288 906 l 1157 906 l 1167 669 l 1036 669 l 1010 824 l 815 824 q 813 670 813 747 q 813 514 813 593 l 940 514 l 957 614 l 1044 614 l 1044 326 l 957 326 l 942 425 l 813 425 q 813 249 813 333 q 815 81 813 164 l 1038 81 l 1064 236 l 1194 236 l 1185 0 l 440 0 l 440 82 l 536 92 q 538 215 538 154 q 538 336 538 276 l 310 336 l 201 100 l 306 82 l 306 0 l 14 0 m 538 424 l 538 803 l 521 803 l 349 424 l 538 424 z "},"Ç":{"ha":858,"x_min":39,"x_max":828,"o":"m 574 56 q 671 78 622 56 l 714 263 l 828 263 l 822 44 q 696 -6 769 15 q 526 -28 622 -28 q 340 -1 428 -28 q 185 85 251 26 q 78 234 118 143 q 39 453 39 325 q 81 675 39 583 q 193 824 124 767 q 353 907 263 881 q 540 933 444 933 q 692 915 628 933 q 814 864 756 896 l 819 643 l 706 643 l 661 833 q 579 851 624 851 q 483 829 529 851 q 401 759 436 807 q 344 635 365 711 q 324 451 324 560 q 344 268 324 343 q 400 146 365 193 q 480 77 435 99 q 574 56 525 56 m 447 -125 l 468 7 l 549 7 l 540 -67 q 653 -115 622 -82 q 685 -187 685 -149 q 635 -279 685 -243 q 485 -315 585 -315 q 422 -310 449 -315 q 368 -294 396 -306 l 385 -222 q 461 -236 425 -236 q 514 -223 497 -236 q 531 -187 531 -210 q 447 -125 531 -129 z "},"Ć":{"ha":858,"x_min":39,"x_max":828,"o":"m 574 56 q 671 78 622 56 l 714 263 l 828 263 l 822 44 q 696 -6 769 15 q 526 -28 622 -28 q 340 -1 428 -28 q 185 85 251 26 q 78 234 118 143 q 39 453 39 325 q 81 675 39 583 q 193 824 124 767 q 353 907 263 881 q 540 933 444 933 q 692 915 628 933 q 814 864 756 896 l 819 643 l 706 643 l 661 833 q 579 851 624 851 q 483 829 529 851 q 401 759 436 807 q 344 635 365 711 q 324 451 324 560 q 344 268 324 343 q 400 146 365 193 q 480 77 435 99 q 574 56 525 56 m 431 1026 q 513 1106 471 1067 q 593 1181 554 1144 q 653 1226 629 1214 q 704 1238 676 1238 q 765 1212 742 1238 q 789 1157 789 1186 q 774 1110 789 1138 q 707 1061 760 1083 q 590 1013 647 1036 q 474 964 532 989 l 431 1026 z "},"Č":{"ha":858,"x_min":39,"x_max":828,"o":"m 574 56 q 671 78 622 56 l 714 263 l 828 263 l 822 44 q 696 -6 769 15 q 526 -28 622 -28 q 340 -1 428 -28 q 185 85 251 26 q 78 234 118 143 q 39 453 39 325 q 81 675 39 583 q 193 824 124 767 q 353 907 263 881 q 540 933 444 933 q 692 915 628 933 q 814 864 756 896 l 819 643 l 706 643 l 661 833 q 579 851 624 851 q 483 829 529 851 q 401 759 436 807 q 344 635 365 711 q 324 451 324 560 q 344 268 324 343 q 400 146 365 193 q 480 77 435 99 q 574 56 525 56 m 322 1253 l 526 1125 l 731 1253 l 783 1201 l 589 981 l 464 981 l 271 1201 l 322 1253 z "},"Ĉ":{"ha":858,"x_min":39,"x_max":828,"o":"m 574 56 q 671 78 622 56 l 714 263 l 828 263 l 822 44 q 696 -6 769 15 q 526 -28 622 -28 q 340 -1 428 -28 q 185 85 251 26 q 78 234 118 143 q 39 453 39 325 q 81 675 39 583 q 193 824 124 767 q 353 907 263 881 q 540 933 444 933 q 692 915 628 933 q 814 864 756 896 l 819 643 l 706 643 l 661 833 q 579 851 624 851 q 483 829 529 851 q 401 759 436 807 q 344 635 365 711 q 324 451 324 560 q 344 268 324 343 q 400 146 365 193 q 480 77 435 99 q 574 56 525 56 m 563 1225 l 781 993 l 733 938 l 506 1063 l 278 938 l 231 993 l 449 1225 l 563 1225 z "},"Ċ":{"ha":858,"x_min":39,"x_max":828,"o":"m 574 56 q 671 78 622 56 l 714 263 l 828 263 l 822 44 q 696 -6 769 15 q 526 -28 622 -28 q 340 -1 428 -28 q 185 85 251 26 q 78 234 118 143 q 39 453 39 325 q 81 675 39 583 q 193 824 124 767 q 353 907 263 881 q 540 933 444 933 q 692 915 628 933 q 814 864 756 896 l 819 643 l 706 643 l 661 833 q 579 851 624 851 q 483 829 529 851 q 401 759 436 807 q 344 635 365 711 q 324 451 324 560 q 344 268 324 343 q 400 146 365 193 q 480 77 435 99 q 574 56 525 56 m 515 969 q 425 1003 463 969 q 388 1089 388 1036 q 425 1175 388 1142 q 515 1208 463 1208 q 606 1175 568 1208 q 643 1089 643 1142 q 606 1003 643 1036 q 515 969 568 969 z "},"Ď":{"ha":976,"x_min":39,"x_max":938,"o":"m 136 431 l 136 475 q 136 644 136 560 q 135 814 136 729 l 39 824 l 39 906 l 453 906 q 658 874 568 906 q 810 783 749 842 q 905 642 872 725 q 938 457 938 558 q 903 265 938 350 q 802 122 868 181 q 642 31 736 63 q 429 0 547 0 l 39 0 l 39 82 l 135 92 q 136 260 136 175 q 136 431 136 344 m 411 432 q 411 259 411 344 q 414 86 411 174 l 433 86 q 598 181 536 86 q 660 454 660 276 q 598 726 660 633 q 432 819 536 819 l 414 819 q 411 649 411 735 q 411 475 411 563 l 411 432 m 256 1239 l 460 1111 l 664 1239 l 717 1188 l 522 967 l 397 967 l 204 1188 l 256 1239 z "},"Đ":{"ha":976,"x_min":39,"x_max":938,"o":"m 553 421 l 411 421 q 411 250 411 332 q 414 86 411 168 l 433 86 q 598 181 536 86 q 660 454 660 276 q 598 726 660 633 q 432 819 536 819 l 414 819 q 411 665 411 743 q 411 508 411 588 l 553 508 l 553 421 m 39 0 l 39 82 l 135 92 q 136 258 136 175 q 136 421 136 342 l 39 421 l 39 508 l 136 508 q 136 661 136 585 q 135 814 136 738 l 39 824 l 39 906 l 453 906 q 658 874 568 906 q 810 783 749 842 q 905 642 872 725 q 938 457 938 558 q 903 265 938 350 q 802 122 868 181 q 642 31 736 63 q 429 0 547 0 l 39 0 z "},"Ḍ":{"ha":976,"x_min":39,"x_max":938,"o":"m 136 431 l 136 475 q 136 644 136 560 q 135 814 136 729 l 39 824 l 39 906 l 453 906 q 658 874 568 906 q 810 783 749 842 q 905 642 872 725 q 938 457 938 558 q 903 265 938 350 q 802 122 868 181 q 642 31 736 63 q 429 0 547 0 l 39 0 l 39 82 l 135 92 q 136 260 136 175 q 136 431 136 344 m 411 432 q 411 259 411 344 q 414 86 411 174 l 433 86 q 598 181 536 86 q 660 454 660 276 q 598 726 660 633 q 432 819 536 819 l 414 819 q 411 649 411 735 q 411 475 411 563 l 411 432 m 481 -325 q 390 -292 428 -325 q 353 -206 353 -258 q 390 -119 353 -153 q 481 -86 428 -86 q 571 -119 533 -86 q 608 -206 608 -153 q 571 -292 608 -258 q 481 -325 533 -325 z "},"Ḏ":{"ha":976,"x_min":39,"x_max":938,"o":"m 136 431 l 136 475 q 136 644 136 560 q 135 814 136 729 l 39 824 l 39 906 l 453 906 q 658 874 568 906 q 810 783 749 842 q 905 642 872 725 q 938 457 938 558 q 903 265 938 350 q 802 122 868 181 q 642 31 736 63 q 429 0 547 0 l 39 0 l 39 82 l 135 92 q 136 260 136 175 q 136 431 136 344 m 411 432 q 411 259 411 344 q 414 86 411 174 l 433 86 q 598 181 536 86 q 660 454 660 276 q 598 726 660 633 q 432 819 536 819 l 414 819 q 411 649 411 735 q 411 475 411 563 l 411 432 m 243 -279 l 243 -140 l 718 -140 l 718 -279 l 243 -279 z "},"È":{"ha":821,"x_min":39,"x_max":793,"o":"m 136 431 l 136 475 q 136 644 136 560 q 135 814 136 729 l 39 824 l 39 906 l 756 906 l 765 669 l 635 669 l 608 824 l 414 824 q 411 670 411 747 q 411 514 411 593 l 539 514 l 556 614 l 643 614 l 643 326 l 556 326 l 540 425 l 411 425 q 411 249 411 333 q 414 81 411 164 l 636 81 l 663 236 l 793 236 l 783 0 l 39 0 l 39 82 l 135 92 q 136 260 136 175 q 136 431 136 344 m 519 1013 l 476 950 q 363 997 419 974 q 246 1044 306 1019 q 201 1069 218 1056 q 176 1095 185 1082 q 164 1121 167 1108 q 161 1143 161 1133 q 185 1198 161 1172 q 246 1224 208 1224 q 297 1212 274 1224 q 356 1168 321 1200 q 436 1092 394 1132 q 519 1013 478 1053 z "},"É":{"ha":821,"x_min":39,"x_max":793,"o":"m 136 431 l 136 475 q 136 644 136 560 q 135 814 136 729 l 39 824 l 39 906 l 756 906 l 765 669 l 635 669 l 608 824 l 414 824 q 411 670 411 747 q 411 514 411 593 l 539 514 l 556 614 l 643 614 l 643 326 l 556 326 l 540 425 l 411 425 q 411 249 411 333 q 414 81 411 164 l 636 81 l 663 236 l 793 236 l 783 0 l 39 0 l 39 82 l 135 92 q 136 260 136 175 q 136 431 136 344 m 314 1013 q 396 1092 354 1053 q 476 1167 438 1131 q 536 1212 513 1200 q 588 1224 560 1224 q 649 1198 625 1224 q 672 1143 672 1172 q 658 1097 672 1124 q 590 1047 643 1069 q 473 999 531 1022 q 357 950 415 975 l 314 1013 z "},"Ê":{"ha":821,"x_min":39,"x_max":793,"o":"m 136 431 l 136 475 q 136 644 136 560 q 135 814 136 729 l 39 824 l 39 906 l 756 906 l 765 669 l 635 669 l 608 824 l 414 824 q 411 670 411 747 q 411 514 411 593 l 539 514 l 556 614 l 643 614 l 643 326 l 556 326 l 540 425 l 411 425 q 411 249 411 333 q 414 81 411 164 l 636 81 l 663 236 l 793 236 l 783 0 l 39 0 l 39 82 l 135 92 q 136 260 136 175 q 136 431 136 344 m 494 1225 l 713 993 l 665 938 l 438 1063 l 210 938 l 163 993 l 381 1225 l 494 1225 z "},"Ě":{"ha":821,"x_min":39,"x_max":793,"o":"m 136 431 l 136 475 q 136 644 136 560 q 135 814 136 729 l 39 824 l 39 906 l 756 906 l 765 669 l 635 669 l 608 824 l 414 824 q 411 670 411 747 q 411 514 411 593 l 539 514 l 556 614 l 643 614 l 643 326 l 556 326 l 540 425 l 411 425 q 411 249 411 333 q 414 81 411 164 l 636 81 l 663 236 l 793 236 l 783 0 l 39 0 l 39 82 l 135 92 q 136 260 136 175 q 136 431 136 344 m 219 1239 l 424 1111 l 628 1239 l 681 1188 l 486 967 l 361 967 l 168 1188 l 219 1239 z "},"Ë":{"ha":821,"x_min":39,"x_max":793,"o":"m 136 431 l 136 475 q 136 644 136 560 q 135 814 136 729 l 39 824 l 39 906 l 756 906 l 765 669 l 635 669 l 608 824 l 414 824 q 411 670 411 747 q 411 514 411 593 l 539 514 l 556 614 l 643 614 l 643 326 l 556 326 l 540 425 l 411 425 q 411 249 411 333 q 414 81 411 164 l 636 81 l 663 236 l 793 236 l 783 0 l 39 0 l 39 82 l 135 92 q 136 260 136 175 q 136 431 136 344 m 243 972 q 166 999 200 972 q 132 1076 132 1026 q 166 1153 132 1126 q 243 1181 200 1181 q 321 1153 288 1181 q 354 1076 354 1126 q 321 999 354 1026 q 243 972 288 972 m 604 972 q 527 999 561 972 q 493 1076 493 1026 q 527 1153 493 1126 q 604 1181 561 1181 q 682 1153 649 1181 q 715 1076 715 1126 q 682 999 715 1026 q 604 972 649 972 z "},"Ē":{"ha":821,"x_min":39,"x_max":793,"o":"m 136 431 l 136 475 q 136 644 136 560 q 135 814 136 729 l 39 824 l 39 906 l 756 906 l 765 669 l 635 669 l 608 824 l 414 824 q 411 670 411 747 q 411 514 411 593 l 539 514 l 556 614 l 643 614 l 643 326 l 556 326 l 540 425 l 411 425 q 411 249 411 333 q 414 81 411 164 l 636 81 l 663 236 l 793 236 l 783 0 l 39 0 l 39 82 l 135 92 q 136 260 136 175 q 136 431 136 344 m 208 996 l 208 1135 l 667 1135 l 667 996 l 208 996 z "},"Ė":{"ha":821,"x_min":39,"x_max":793,"o":"m 136 431 l 136 475 q 136 644 136 560 q 135 814 136 729 l 39 824 l 39 906 l 756 906 l 765 669 l 635 669 l 608 824 l 414 824 q 411 670 411 747 q 411 514 411 593 l 539 514 l 556 614 l 643 614 l 643 326 l 556 326 l 540 425 l 411 425 q 411 249 411 333 q 414 81 411 164 l 636 81 l 663 236 l 793 236 l 783 0 l 39 0 l 39 82 l 135 92 q 136 260 136 175 q 136 431 136 344 m 438 969 q 347 1003 385 969 q 310 1089 310 1036 q 347 1175 310 1142 q 438 1208 385 1208 q 528 1175 490 1208 q 565 1089 565 1142 q 528 1003 565 1036 q 438 969 490 969 z "},"Ę":{"ha":821,"x_min":39,"x_max":833,"o":"m 136 431 l 136 475 q 136 644 136 560 q 135 814 136 729 l 39 824 l 39 906 l 756 906 l 765 669 l 635 669 l 608 824 l 414 824 q 411 670 411 747 q 411 514 411 593 l 539 514 l 556 614 l 643 614 l 643 326 l 556 326 l 540 425 l 411 425 q 411 249 411 333 q 414 81 411 164 l 636 81 l 663 236 l 793 236 l 783 0 l 39 0 l 39 82 l 135 92 q 136 260 136 175 q 136 431 136 344 m 469 -176 q 515 -65 469 -108 q 643 11 560 -21 l 707 11 q 651 -37 667 -11 q 636 -96 636 -64 q 663 -162 636 -137 q 736 -186 690 -186 q 781 -183 764 -186 q 813 -175 797 -179 l 833 -246 q 745 -297 797 -279 q 633 -315 693 -315 q 511 -275 553 -315 q 469 -176 469 -235 z "},"Ĕ":{"ha":821,"x_min":39,"x_max":793,"o":"m 136 431 l 136 475 q 136 644 136 560 q 135 814 136 729 l 39 824 l 39 906 l 756 906 l 765 669 l 635 669 l 608 824 l 414 824 q 411 670 411 747 q 411 514 411 593 l 539 514 l 556 614 l 643 614 l 643 326 l 556 326 l 540 425 l 411 425 q 411 249 411 333 q 414 81 411 164 l 636 81 l 663 236 l 793 236 l 783 0 l 39 0 l 39 82 l 135 92 q 136 260 136 175 q 136 431 136 344 m 186 1160 l 258 1189 q 324 1117 285 1142 q 426 1093 364 1093 q 528 1117 489 1093 q 594 1189 568 1142 l 667 1160 q 641 1085 658 1119 q 594 1024 624 1050 q 524 984 565 999 q 426 969 482 969 q 329 984 371 969 q 258 1024 288 999 q 212 1085 229 1050 q 186 1160 194 1119 z "},"Ế":{"ha":821,"x_min":39,"x_max":863,"o":"m 136 431 l 136 475 q 136 644 136 560 q 135 814 136 729 l 39 824 l 39 906 l 756 906 l 765 669 l 635 669 l 608 824 l 414 824 q 411 670 411 747 q 411 514 411 593 l 539 514 l 556 614 l 643 614 l 643 326 l 556 326 l 540 425 l 411 425 q 411 249 411 333 q 414 81 411 164 l 636 81 l 663 236 l 793 236 l 783 0 l 39 0 l 39 82 l 135 92 q 136 260 136 175 q 136 431 136 344 m 204 938 l 157 993 l 375 1225 l 489 1225 l 707 993 l 660 938 l 432 1063 l 204 938 m 683 1086 l 635 1149 l 661 1203 q 726 1288 693 1268 q 785 1308 758 1308 q 840 1285 817 1308 q 863 1226 863 1263 q 835 1163 863 1193 q 760 1115 807 1133 l 683 1086 z "},"Ệ":{"ha":821,"x_min":39,"x_max":793,"o":"m 136 431 l 136 475 q 136 644 136 560 q 135 814 136 729 l 39 824 l 39 906 l 756 906 l 765 669 l 635 669 l 608 824 l 414 824 q 411 670 411 747 q 411 514 411 593 l 539 514 l 556 614 l 643 614 l 643 326 l 556 326 l 540 425 l 411 425 q 411 249 411 333 q 414 81 411 164 l 636 81 l 663 236 l 793 236 l 783 0 l 39 0 l 39 82 l 135 92 q 136 260 136 175 q 136 431 136 344 m 494 1225 l 713 993 l 665 938 l 438 1063 l 210 938 l 163 993 l 381 1225 l 494 1225 m 432 -325 q 342 -292 379 -325 q 304 -206 304 -258 q 342 -119 304 -153 q 432 -86 379 -86 q 522 -119 485 -86 q 560 -206 560 -153 q 522 -292 560 -258 q 432 -325 485 -325 z "},"Ề":{"ha":821,"x_min":-4,"x_max":793,"o":"m 136 431 l 136 475 q 136 644 136 560 q 135 814 136 729 l 39 824 l 39 906 l 756 906 l 765 669 l 635 669 l 608 824 l 414 824 q 411 670 411 747 q 411 514 411 593 l 539 514 l 556 614 l 643 614 l 643 326 l 556 326 l 540 425 l 411 425 q 411 249 411 333 q 414 81 411 164 l 636 81 l 663 236 l 793 236 l 783 0 l 39 0 l 39 82 l 135 92 q 136 260 136 175 q 136 431 136 344 m 654 938 l 426 1063 l 199 938 l 151 993 l 369 1225 l 483 1225 l 701 993 l 654 938 m 175 1086 l 99 1115 q 24 1163 51 1133 q -4 1226 -4 1193 q 19 1285 -4 1263 q 74 1308 42 1308 q 133 1288 100 1308 q 197 1203 165 1268 l 224 1149 l 175 1086 z "},"Ể":{"ha":821,"x_min":39,"x_max":822,"o":"m 136 431 l 136 475 q 136 644 136 560 q 135 814 136 729 l 39 824 l 39 906 l 756 906 l 765 669 l 635 669 l 608 824 l 414 824 q 411 670 411 747 q 411 514 411 593 l 539 514 l 556 614 l 643 614 l 643 326 l 556 326 l 540 425 l 411 425 q 411 249 411 333 q 414 81 411 164 l 636 81 l 663 236 l 793 236 l 783 0 l 39 0 l 39 82 l 135 92 q 136 260 136 175 q 136 431 136 344 m 199 938 l 151 993 l 369 1225 l 483 1225 l 701 993 l 654 938 l 426 1063 l 199 938 m 626 1165 q 688 1186 675 1175 q 700 1207 700 1197 q 676 1228 700 1218 q 586 1244 653 1239 l 599 1403 q 822 1240 822 1385 q 774 1146 822 1181 q 639 1100 726 1111 l 626 1165 z "},"Ễ":{"ha":821,"x_min":39,"x_max":793,"o":"m 136 431 l 136 475 q 136 644 136 560 q 135 814 136 729 l 39 824 l 39 906 l 756 906 l 765 669 l 635 669 l 608 824 l 414 824 q 411 670 411 747 q 411 514 411 593 l 539 514 l 556 614 l 643 614 l 643 326 l 556 326 l 540 425 l 411 425 q 411 249 411 333 q 414 81 411 164 l 636 81 l 663 236 l 793 236 l 783 0 l 39 0 l 39 82 l 135 92 q 136 260 136 175 q 136 431 136 344 m 199 936 l 151 992 l 369 1182 l 483 1182 l 701 992 l 654 936 l 426 1039 l 199 936 m 172 1225 q 228 1350 183 1307 q 329 1393 274 1393 q 392 1385 365 1393 q 440 1369 418 1376 q 483 1357 461 1363 q 529 1351 504 1351 q 615 1406 589 1351 l 681 1383 q 660 1310 675 1342 q 625 1257 646 1279 q 580 1224 604 1235 q 531 1213 556 1213 q 465 1222 494 1213 q 411 1238 435 1231 q 369 1250 390 1244 q 322 1256 349 1256 q 272 1241 293 1256 q 238 1203 250 1226 l 172 1225 z "},"Ẹ":{"ha":821,"x_min":39,"x_max":793,"o":"m 136 431 l 136 475 q 136 644 136 560 q 135 814 136 729 l 39 824 l 39 906 l 756 906 l 765 669 l 635 669 l 608 824 l 414 824 q 411 670 411 747 q 411 514 411 593 l 539 514 l 556 614 l 643 614 l 643 326 l 556 326 l 540 425 l 411 425 q 411 249 411 333 q 414 81 411 164 l 636 81 l 663 236 l 793 236 l 783 0 l 39 0 l 39 82 l 135 92 q 136 260 136 175 q 136 431 136 344 m 432 -325 q 342 -292 379 -325 q 304 -206 304 -258 q 342 -119 304 -153 q 432 -86 379 -86 q 522 -119 485 -86 q 560 -206 560 -153 q 522 -292 560 -258 q 432 -325 485 -325 z "},"Ẻ":{"ha":821,"x_min":39,"x_max":793,"o":"m 136 431 l 136 475 q 136 644 136 560 q 135 814 136 729 l 39 824 l 39 906 l 756 906 l 765 669 l 635 669 l 608 824 l 414 824 q 411 670 411 747 q 411 514 411 593 l 539 514 l 556 614 l 643 614 l 643 326 l 556 326 l 540 425 l 411 425 q 411 249 411 333 q 414 81 411 164 l 636 81 l 663 236 l 793 236 l 783 0 l 39 0 l 39 82 l 135 92 q 136 260 136 175 q 136 431 136 344 m 375 978 l 363 1043 q 424 1062 411 1053 q 436 1081 436 1071 q 413 1104 436 1096 q 322 1118 389 1113 l 335 1276 q 558 1114 558 1258 q 510 1022 558 1054 q 375 978 463 989 z "},"Ẽ":{"ha":821,"x_min":39,"x_max":793,"o":"m 136 431 l 136 475 q 136 644 136 560 q 135 814 136 729 l 39 824 l 39 906 l 756 906 l 765 669 l 635 669 l 608 824 l 414 824 q 411 670 411 747 q 411 514 411 593 l 539 514 l 556 614 l 643 614 l 643 326 l 556 326 l 540 425 l 411 425 q 411 249 411 333 q 414 81 411 164 l 636 81 l 663 236 l 793 236 l 783 0 l 39 0 l 39 82 l 135 92 q 136 260 136 175 q 136 431 136 344 m 174 992 q 231 1140 185 1089 q 339 1190 276 1190 q 394 1180 369 1190 q 440 1157 418 1169 q 482 1134 460 1146 q 529 1122 504 1122 q 581 1141 558 1122 q 615 1193 603 1160 l 681 1165 q 624 1017 669 1069 q 519 965 578 965 q 463 976 492 965 q 413 999 435 986 q 372 1022 393 1010 q 324 1033 350 1033 q 273 1015 294 1033 q 239 964 251 996 l 174 992 z "},"Ğ":{"ha":933,"x_min":39,"x_max":913,"o":"m 843 110 l 843 53 q 695 -9 769 10 q 525 -28 621 -28 q 327 3 417 -28 q 174 97 238 35 q 74 249 110 158 q 39 456 39 339 q 72 656 39 567 q 169 806 106 744 q 328 901 233 868 q 546 933 422 933 q 678 918 608 933 q 811 871 749 903 l 817 649 l 700 649 l 654 838 q 579 851 617 851 q 483 829 529 851 q 401 759 436 807 q 344 636 365 711 q 324 456 324 561 q 344 274 324 350 q 399 149 365 199 q 478 77 433 100 q 572 54 524 54 l 585 54 l 585 117 q 584 236 585 179 q 582 353 583 293 l 465 371 l 465 453 l 913 453 l 913 371 l 846 361 q 844 237 844 299 q 843 110 843 175 m 282 1160 l 354 1189 q 420 1117 381 1142 q 522 1093 460 1093 q 624 1117 585 1093 q 690 1189 664 1142 l 763 1160 q 737 1085 754 1119 q 690 1024 719 1050 q 619 984 661 999 q 522 969 578 969 q 425 984 467 969 q 354 1024 383 999 q 308 1085 325 1050 q 282 1160 290 1119 z "},"Ġ":{"ha":933,"x_min":39,"x_max":913,"o":"m 843 110 l 843 53 q 695 -9 769 10 q 525 -28 621 -28 q 327 3 417 -28 q 174 97 238 35 q 74 249 110 158 q 39 456 39 339 q 72 656 39 567 q 169 806 106 744 q 328 901 233 868 q 546 933 422 933 q 678 918 608 933 q 811 871 749 903 l 817 649 l 700 649 l 654 838 q 579 851 617 851 q 483 829 529 851 q 401 759 436 807 q 344 636 365 711 q 324 456 324 561 q 344 274 324 350 q 399 149 365 199 q 478 77 433 100 q 572 54 524 54 l 585 54 l 585 117 q 584 236 585 179 q 582 353 583 293 l 465 371 l 465 453 l 913 453 l 913 371 l 846 361 q 844 237 844 299 q 843 110 843 175 m 522 969 q 432 1003 469 969 q 394 1089 394 1036 q 432 1175 394 1142 q 522 1208 469 1208 q 613 1175 575 1208 q 650 1089 650 1142 q 613 1003 650 1036 q 522 969 575 969 z "},"Ģ":{"ha":933,"x_min":39,"x_max":913,"o":"m 843 110 l 843 53 q 695 -9 769 10 q 525 -28 621 -28 q 327 3 417 -28 q 174 97 238 35 q 74 249 110 158 q 39 456 39 339 q 72 656 39 567 q 169 806 106 744 q 328 901 233 868 q 546 933 422 933 q 678 918 608 933 q 811 871 749 903 l 817 649 l 700 649 l 654 838 q 579 851 617 851 q 483 829 529 851 q 401 759 436 807 q 344 636 365 711 q 324 456 324 561 q 344 274 324 350 q 399 149 365 199 q 478 77 433 100 q 572 54 524 54 l 585 54 l 585 117 q 584 236 585 179 q 582 353 583 293 l 465 371 l 465 453 l 913 453 l 913 371 l 846 361 q 844 237 844 299 q 843 110 843 175 m 665 -175 q 649 -240 665 -210 q 603 -297 632 -271 q 534 -343 574 -322 q 449 -379 494 -364 l 425 -318 q 481 -292 457 -304 q 525 -262 506 -281 q 468 -217 489 -243 q 447 -157 447 -192 q 478 -93 447 -118 q 556 -68 510 -68 q 600 -74 579 -68 q 651 -99 621 -79 q 665 -175 665 -136 z "},"Ǧ":{"ha":933,"x_min":39,"x_max":913,"o":"m 843 110 l 843 53 q 695 -9 769 10 q 525 -28 621 -28 q 327 3 417 -28 q 174 97 238 35 q 74 249 110 158 q 39 456 39 339 q 72 656 39 567 q 169 806 106 744 q 328 901 233 868 q 546 933 422 933 q 678 918 608 933 q 811 871 749 903 l 817 649 l 700 649 l 654 838 q 579 851 617 851 q 483 829 529 851 q 401 759 436 807 q 344 636 365 711 q 324 456 324 561 q 344 274 324 350 q 399 149 365 199 q 478 77 433 100 q 572 54 524 54 l 585 54 l 585 117 q 584 236 585 179 q 582 353 583 293 l 465 371 l 465 453 l 913 453 l 913 371 l 846 361 q 844 237 844 299 q 843 110 843 175 m 331 1239 l 535 1111 l 739 1239 l 792 1188 l 597 967 l 472 967 l 279 1188 l 331 1239 z "},"Ĝ":{"ha":933,"x_min":39,"x_max":913,"o":"m 843 110 l 843 53 q 695 -9 769 10 q 525 -28 621 -28 q 327 3 417 -28 q 174 97 238 35 q 74 249 110 158 q 39 456 39 339 q 72 656 39 567 q 169 806 106 744 q 328 901 233 868 q 546 933 422 933 q 678 918 608 933 q 811 871 749 903 l 817 649 l 700 649 l 654 838 q 579 851 617 851 q 483 829 529 851 q 401 759 436 807 q 344 636 365 711 q 324 456 324 561 q 344 274 324 350 q 399 149 365 199 q 478 77 433 100 q 572 54 524 54 l 585 54 l 585 117 q 584 236 585 179 q 582 353 583 293 l 465 371 l 465 453 l 913 453 l 913 371 l 846 361 q 844 237 844 299 q 843 110 843 175 m 564 1225 l 782 993 l 735 938 l 507 1063 l 279 938 l 232 993 l 450 1225 l 564 1225 z "},"Ḡ":{"ha":933,"x_min":39,"x_max":913,"o":"m 843 110 l 843 53 q 695 -9 769 10 q 525 -28 621 -28 q 327 3 417 -28 q 174 97 238 35 q 74 249 110 158 q 39 456 39 339 q 72 656 39 567 q 169 806 106 744 q 328 901 233 868 q 546 933 422 933 q 678 918 608 933 q 811 871 749 903 l 817 649 l 700 649 l 654 838 q 579 851 617 851 q 483 829 529 851 q 401 759 436 807 q 344 636 365 711 q 324 456 324 561 q 344 274 324 350 q 399 149 365 199 q 478 77 433 100 q 572 54 524 54 l 585 54 l 585 117 q 584 236 585 179 q 582 353 583 293 l 465 371 l 465 453 l 913 453 l 913 371 l 846 361 q 844 237 844 299 q 843 110 843 175 m 264 996 l 264 1135 l 722 1135 l 722 996 l 264 996 z "},"Ħ":{"ha":1044,"x_min":25,"x_max":1019,"o":"m 408 488 l 408 468 l 636 468 l 636 488 l 636 600 l 408 600 l 408 488 m 133 431 l 133 475 l 133 600 l 25 600 l 25 688 l 133 688 q 132 751 132 719 q 132 814 132 782 l 39 824 l 39 906 l 496 906 l 496 824 l 410 815 q 410 751 410 783 q 408 688 410 719 l 636 688 q 635 751 635 719 q 635 815 635 783 l 549 824 l 549 906 l 1006 906 l 1006 824 l 913 814 q 913 751 913 782 q 911 688 913 719 l 1019 688 l 1019 600 l 911 600 l 911 475 l 911 431 q 911 261 911 346 q 913 92 911 176 l 1006 82 l 1006 0 l 549 0 l 549 82 l 635 90 q 636 234 636 163 q 636 381 636 306 l 408 381 q 408 235 408 307 q 410 90 408 163 l 496 82 l 496 0 l 39 0 l 39 82 l 132 92 q 133 260 133 175 q 133 431 133 344 z "},"Ḫ":{"ha":1050,"x_min":39,"x_max":1011,"o":"m 133 431 l 133 475 q 133 644 133 560 q 132 814 133 729 l 39 824 l 39 906 l 496 906 l 496 824 l 410 815 q 408 664 408 740 q 408 510 408 588 l 642 510 q 642 663 642 586 q 640 815 642 739 l 554 824 l 554 906 l 1011 906 l 1011 824 l 918 814 q 917 646 917 731 q 917 475 917 561 l 917 431 q 917 261 917 346 q 918 92 917 176 l 1011 82 l 1011 0 l 554 0 l 554 82 l 640 90 q 642 259 642 175 q 642 422 642 343 l 408 422 q 408 253 408 335 q 410 90 408 171 l 496 82 l 496 0 l 39 0 l 39 82 l 132 92 q 133 260 133 175 q 133 431 133 344 m 293 -117 l 371 -94 q 430 -178 393 -144 q 524 -212 467 -212 q 619 -178 581 -212 q 676 -94 657 -143 l 754 -117 q 740 -189 751 -150 q 701 -261 728 -228 q 631 -316 675 -294 q 524 -337 588 -337 q 415 -316 458 -337 q 346 -261 372 -294 q 307 -189 319 -228 q 293 -117 294 -150 z "},"Ĥ":{"ha":1050,"x_min":39,"x_max":1011,"o":"m 133 431 l 133 475 q 133 644 133 560 q 132 814 133 729 l 39 824 l 39 906 l 496 906 l 496 824 l 410 815 q 408 664 408 740 q 408 510 408 588 l 642 510 q 642 663 642 586 q 640 815 642 739 l 554 824 l 554 906 l 1011 906 l 1011 824 l 918 814 q 917 646 917 731 q 917 475 917 561 l 917 431 q 917 261 917 346 q 918 92 917 176 l 1011 82 l 1011 0 l 554 0 l 554 82 l 640 90 q 642 259 642 175 q 642 422 642 343 l 408 422 q 408 253 408 335 q 410 90 408 171 l 496 82 l 496 0 l 39 0 l 39 82 l 132 92 q 133 260 133 175 q 133 431 133 344 m 582 1225 l 800 993 l 753 938 l 525 1063 l 297 938 l 250 993 l 468 1225 l 582 1225 z "},"Ḥ":{"ha":1050,"x_min":39,"x_max":1011,"o":"m 133 431 l 133 475 q 133 644 133 560 q 132 814 133 729 l 39 824 l 39 906 l 496 906 l 496 824 l 410 815 q 408 664 408 740 q 408 510 408 588 l 642 510 q 642 663 642 586 q 640 815 642 739 l 554 824 l 554 906 l 1011 906 l 1011 824 l 918 814 q 917 646 917 731 q 917 475 917 561 l 917 431 q 917 261 917 346 q 918 92 917 176 l 1011 82 l 1011 0 l 554 0 l 554 82 l 640 90 q 642 259 642 175 q 642 422 642 343 l 408 422 q 408 253 408 335 q 410 90 408 171 l 496 82 l 496 0 l 39 0 l 39 82 l 132 92 q 133 260 133 175 q 133 431 133 344 m 524 -325 q 433 -292 471 -325 q 396 -206 396 -258 q 433 -119 396 -153 q 524 -86 471 -86 q 614 -119 576 -86 q 651 -206 651 -153 q 614 -292 651 -258 q 524 -325 576 -325 z "},"Ì":{"ha":549,"x_min":25,"x_max":510,"o":"m 136 431 l 136 475 q 136 644 136 560 q 135 814 136 729 l 39 824 l 39 906 l 510 906 l 510 824 l 413 814 q 411 646 411 731 q 411 475 411 561 l 411 432 q 411 261 411 346 q 413 92 411 176 l 510 82 l 510 0 l 39 0 l 39 82 l 135 92 q 136 260 136 175 q 136 431 136 344 m 383 1013 l 340 950 q 226 997 283 974 q 110 1044 169 1019 q 65 1069 82 1056 q 40 1095 49 1082 q 28 1121 31 1108 q 25 1143 25 1133 q 49 1198 25 1172 q 110 1224 72 1224 q 161 1212 138 1224 q 219 1168 185 1200 q 300 1092 258 1132 q 383 1013 342 1053 z "},"Í":{"ha":549,"x_min":39,"x_max":522,"o":"m 136 431 l 136 475 q 136 644 136 560 q 135 814 136 729 l 39 824 l 39 906 l 510 906 l 510 824 l 413 814 q 411 646 411 731 q 411 475 411 561 l 411 432 q 411 261 411 346 q 413 92 411 176 l 510 82 l 510 0 l 39 0 l 39 82 l 135 92 q 136 260 136 175 q 136 431 136 344 m 164 1013 q 246 1092 204 1053 q 326 1167 288 1131 q 386 1212 363 1200 q 438 1224 410 1224 q 499 1198 475 1224 q 522 1143 522 1172 q 508 1097 522 1124 q 440 1047 493 1069 q 323 999 381 1022 q 207 950 265 975 l 164 1013 z "},"Î":{"ha":549,"x_min":-1,"x_max":549,"o":"m 136 431 l 136 475 q 136 644 136 560 q 135 814 136 729 l 39 824 l 39 906 l 510 906 l 510 824 l 413 814 q 411 646 411 731 q 411 475 411 561 l 411 432 q 411 261 411 346 q 413 92 411 176 l 510 82 l 510 0 l 39 0 l 39 82 l 135 92 q 136 260 136 175 q 136 431 136 344 m 331 1225 l 549 993 l 501 938 l 274 1063 l 46 938 l -1 993 l 217 1225 l 331 1225 z "},"Ï":{"ha":549,"x_min":-17,"x_max":567,"o":"m 136 431 l 136 475 q 136 644 136 560 q 135 814 136 729 l 39 824 l 39 906 l 510 906 l 510 824 l 413 814 q 411 646 411 731 q 411 475 411 561 l 411 432 q 411 261 411 346 q 413 92 411 176 l 510 82 l 510 0 l 39 0 l 39 82 l 135 92 q 136 260 136 175 q 136 431 136 344 m 94 972 q 17 999 51 972 q -17 1076 -17 1026 q 17 1153 -17 1126 q 94 1181 51 1181 q 172 1153 139 1181 q 206 1076 206 1126 q 172 999 206 1026 q 94 972 139 972 m 456 972 q 378 999 413 972 q 344 1076 344 1026 q 378 1153 344 1126 q 456 1181 413 1181 q 533 1153 500 1181 q 567 1076 567 1126 q 533 999 567 1026 q 456 972 500 972 z "},"Ī":{"ha":549,"x_min":39,"x_max":510,"o":"m 136 431 l 136 475 q 136 644 136 560 q 135 814 136 729 l 39 824 l 39 906 l 510 906 l 510 824 l 413 814 q 411 646 411 731 q 411 475 411 561 l 411 432 q 411 261 411 346 q 413 92 411 176 l 510 82 l 510 0 l 39 0 l 39 82 l 135 92 q 136 260 136 175 q 136 431 136 344 m 46 996 l 46 1135 l 504 1135 l 504 996 l 46 996 z "},"İ":{"ha":549,"x_min":39,"x_max":510,"o":"m 136 431 l 136 475 q 136 644 136 560 q 135 814 136 729 l 39 824 l 39 906 l 510 906 l 510 824 l 413 814 q 411 646 411 731 q 411 475 411 561 l 411 432 q 411 261 411 346 q 413 92 411 176 l 510 82 l 510 0 l 39 0 l 39 82 l 135 92 q 136 260 136 175 q 136 431 136 344 m 275 969 q 185 1003 222 969 q 147 1089 147 1036 q 185 1175 147 1142 q 275 1208 222 1208 q 365 1175 328 1208 q 403 1089 403 1142 q 365 1003 403 1036 q 275 969 328 969 z "},"Į":{"ha":549,"x_min":39,"x_max":553,"o":"m 136 431 l 136 475 q 136 644 136 560 q 135 814 136 729 l 39 824 l 39 906 l 510 906 l 510 824 l 413 814 q 411 646 411 731 q 411 475 411 561 l 411 432 q 411 261 411 346 q 413 92 411 176 l 510 82 l 510 0 l 39 0 l 39 82 l 135 92 q 136 260 136 175 q 136 431 136 344 m 189 -176 q 234 -65 189 -108 q 363 11 279 -21 l 426 11 q 371 -37 386 -11 q 356 -96 356 -64 q 383 -162 356 -137 q 456 -186 410 -186 q 500 -183 483 -186 q 532 -175 517 -179 l 553 -246 q 465 -297 517 -279 q 353 -315 413 -315 q 231 -275 272 -315 q 189 -176 189 -235 z "},"Ǐ":{"ha":549,"x_min":18,"x_max":531,"o":"m 136 431 l 136 475 q 136 644 136 560 q 135 814 136 729 l 39 824 l 39 906 l 510 906 l 510 824 l 413 814 q 411 646 411 731 q 411 475 411 561 l 411 432 q 411 261 411 346 q 413 92 411 176 l 510 82 l 510 0 l 39 0 l 39 82 l 135 92 q 136 260 136 175 q 136 431 136 344 m 69 1239 l 274 1111 l 478 1239 l 531 1188 l 336 967 l 211 967 l 18 1188 l 69 1239 z "},"Ị":{"ha":549,"x_min":39,"x_max":510,"o":"m 136 431 l 136 475 q 136 644 136 560 q 135 814 136 729 l 39 824 l 39 906 l 510 906 l 510 824 l 413 814 q 411 646 411 731 q 411 475 411 561 l 411 432 q 411 261 411 346 q 413 92 411 176 l 510 82 l 510 0 l 39 0 l 39 82 l 135 92 q 136 260 136 175 q 136 431 136 344 m 274 -325 q 183 -292 221 -325 q 146 -206 146 -258 q 183 -119 146 -153 q 274 -86 221 -86 q 364 -119 326 -86 q 401 -206 401 -153 q 364 -292 401 -258 q 274 -325 326 -325 z "},"Ỉ":{"ha":549,"x_min":39,"x_max":510,"o":"m 136 431 l 136 475 q 136 644 136 560 q 135 814 136 729 l 39 824 l 39 906 l 510 906 l 510 824 l 413 814 q 411 646 411 731 q 411 475 411 561 l 411 432 q 411 261 411 346 q 413 92 411 176 l 510 82 l 510 0 l 39 0 l 39 82 l 135 92 q 136 260 136 175 q 136 431 136 344 m 222 978 l 210 1043 q 271 1062 258 1053 q 283 1081 283 1071 q 260 1104 283 1096 q 169 1118 236 1113 l 182 1276 q 406 1114 406 1258 q 358 1022 406 1054 q 222 978 310 989 z "},"Ĩ":{"ha":549,"x_min":21,"x_max":528,"o":"m 136 431 l 136 475 q 136 644 136 560 q 135 814 136 729 l 39 824 l 39 906 l 510 906 l 510 824 l 413 814 q 411 646 411 731 q 411 475 411 561 l 411 432 q 411 261 411 346 q 413 92 411 176 l 510 82 l 510 0 l 39 0 l 39 82 l 135 92 q 136 260 136 175 q 136 431 136 344 m 21 992 q 78 1140 32 1089 q 186 1190 124 1190 q 241 1180 217 1190 q 288 1157 265 1169 q 329 1134 307 1146 q 376 1122 351 1122 q 428 1141 406 1122 q 463 1193 450 1160 l 528 1165 q 471 1017 517 1069 q 367 965 425 965 q 310 976 339 965 q 260 999 282 986 q 219 1022 240 1010 q 171 1033 197 1033 q 120 1015 142 1033 q 86 964 99 996 l 21 992 z "},"Ĵ":{"ha":561,"x_min":-143,"x_max":556,"o":"m 42 824 l 42 906 l 526 906 l 526 824 l 429 814 q 428 655 428 735 q 428 493 428 575 l 428 378 q 409 115 428 224 q 349 -67 390 7 q 221 -199 300 -151 q 43 -246 142 -246 q -143 -150 -83 -246 q -108 -66 -143 -99 q -22 -33 -74 -33 q 49 -56 18 -33 q 114 -125 81 -79 l 139 -161 q 156 -72 151 -129 q 160 68 160 -15 q 157 366 160 178 q 150 813 154 554 l 42 824 m 338 1225 l 556 993 l 508 938 l 281 1063 l 53 938 l 6 993 l 224 1225 l 338 1225 z "},"Ķ":{"ha":983,"x_min":39,"x_max":976,"o":"m 136 431 l 136 475 q 136 644 136 560 q 135 814 136 729 l 39 824 l 39 906 l 496 906 l 496 824 l 400 814 q 399 646 399 731 q 399 475 399 561 l 399 449 l 688 807 l 601 824 l 601 906 l 924 906 l 924 824 l 794 807 l 628 611 l 900 90 l 976 82 l 976 0 l 557 0 l 557 82 l 604 88 l 453 404 l 399 340 q 399 215 399 278 q 400 90 399 153 l 475 82 l 475 0 l 39 0 l 39 82 l 135 92 q 136 260 136 175 q 136 431 136 344 m 621 -175 q 604 -240 621 -210 q 558 -297 588 -271 q 490 -343 529 -322 q 404 -379 450 -364 l 381 -318 q 437 -292 413 -304 q 481 -262 461 -281 q 424 -217 444 -243 q 403 -157 403 -192 q 434 -93 403 -118 q 511 -68 465 -68 q 556 -74 535 -68 q 607 -99 576 -79 q 621 -175 621 -136 z "},"Ĺ":{"ha":797,"x_min":39,"x_max":783,"o":"m 136 475 q 136 644 136 560 q 135 814 136 729 l 39 824 l 39 906 l 524 906 l 524 824 l 413 813 q 411 645 411 729 q 411 475 411 561 l 411 411 q 411 253 411 336 q 414 83 411 171 l 624 83 l 661 276 l 783 276 l 769 0 l 39 0 l 39 82 l 135 92 q 136 251 136 175 q 136 390 136 328 l 136 475 m 261 1013 q 343 1092 301 1053 q 424 1167 385 1131 q 483 1212 460 1200 q 535 1224 507 1224 q 596 1198 572 1224 q 619 1143 619 1172 q 605 1097 619 1124 q 538 1047 590 1069 q 420 999 478 1022 q 304 950 363 975 l 261 1013 z "},"Ľ":{"ha":797,"x_min":39,"x_max":788,"o":"m 136 475 q 136 644 136 560 q 135 814 136 729 l 39 824 l 39 906 l 524 906 l 524 824 l 413 813 q 411 645 411 729 q 411 475 411 561 l 411 411 q 411 253 411 336 q 414 83 411 171 l 624 83 l 661 276 l 783 276 l 769 0 l 39 0 l 39 82 l 135 92 q 136 251 136 175 q 136 390 136 328 l 136 475 m 714 988 q 773 967 758 988 q 788 915 788 947 q 776 851 788 886 q 746 776 765 817 l 700 686 l 624 686 l 631 963 q 674 982 654 976 q 714 988 693 988 z "},"Ļ":{"ha":797,"x_min":39,"x_max":783,"o":"m 136 475 q 136 644 136 560 q 135 814 136 729 l 39 824 l 39 906 l 524 906 l 524 824 l 413 813 q 411 645 411 729 q 411 475 411 561 l 411 411 q 411 253 411 336 q 414 83 411 171 l 624 83 l 661 276 l 783 276 l 769 0 l 39 0 l 39 82 l 135 92 q 136 251 136 175 q 136 390 136 328 l 136 475 m 525 -175 q 508 -240 525 -210 q 463 -297 492 -271 q 394 -343 433 -322 q 308 -379 354 -364 l 285 -318 q 341 -292 317 -304 q 385 -262 365 -281 q 328 -217 349 -243 q 307 -157 307 -192 q 338 -93 307 -118 q 415 -68 369 -68 q 460 -74 439 -68 q 511 -99 481 -79 q 525 -175 525 -136 z "},"Ŀ":{"ha":797,"x_min":39,"x_max":806,"o":"m 136 475 q 136 644 136 560 q 135 814 136 729 l 39 824 l 39 906 l 524 906 l 524 824 l 413 813 q 411 645 411 729 q 411 475 411 561 l 411 411 q 411 253 411 336 q 414 83 411 171 l 624 83 l 661 276 l 783 276 l 769 0 l 39 0 l 39 82 l 135 92 q 136 251 136 175 q 136 390 136 328 l 136 475 m 669 422 q 616 433 640 422 q 573 461 592 443 q 544 503 554 479 q 533 556 533 528 q 572 653 533 613 q 669 693 611 693 q 767 653 728 693 q 806 556 806 613 q 795 503 806 528 q 766 461 785 479 q 723 433 747 443 q 669 422 699 422 z "},"Ḷ":{"ha":797,"x_min":39,"x_max":783,"o":"m 136 475 q 136 644 136 560 q 135 814 136 729 l 39 824 l 39 906 l 524 906 l 524 824 l 413 813 q 411 645 411 729 q 411 475 411 561 l 411 411 q 411 253 411 336 q 414 83 411 171 l 624 83 l 661 276 l 783 276 l 769 0 l 39 0 l 39 82 l 135 92 q 136 251 136 175 q 136 390 136 328 l 136 475 m 435 -325 q 344 -292 382 -325 q 307 -206 307 -258 q 344 -119 307 -153 q 435 -86 382 -86 q 525 -119 488 -86 q 563 -206 563 -153 q 525 -292 563 -258 q 435 -325 488 -325 z "},"Ḹ":{"ha":797,"x_min":39,"x_max":783,"o":"m 136 475 q 136 644 136 560 q 135 814 136 729 l 39 824 l 39 906 l 524 906 l 524 824 l 413 813 q 411 645 411 729 q 411 475 411 561 l 411 411 q 411 253 411 336 q 414 83 411 171 l 624 83 l 661 276 l 783 276 l 769 0 l 39 0 l 39 82 l 135 92 q 136 251 136 175 q 136 390 136 328 l 136 475 m 435 -325 q 344 -292 382 -325 q 307 -206 307 -258 q 344 -119 307 -153 q 435 -86 382 -86 q 525 -119 488 -86 q 563 -206 563 -153 q 525 -292 563 -258 q 435 -325 488 -325 m 50 996 l 50 1135 l 508 1135 l 508 996 l 50 996 z "},"Ḻ":{"ha":797,"x_min":39,"x_max":783,"o":"m 136 475 q 136 644 136 560 q 135 814 136 729 l 39 824 l 39 906 l 524 906 l 524 824 l 413 813 q 411 645 411 729 q 411 475 411 561 l 411 411 q 411 253 411 336 q 414 83 411 171 l 624 83 l 661 276 l 783 276 l 769 0 l 39 0 l 39 82 l 135 92 q 136 251 136 175 q 136 390 136 328 l 136 475 m 197 -279 l 197 -140 l 672 -140 l 672 -279 l 197 -279 z "},"Ł":{"ha":797,"x_min":36,"x_max":783,"o":"m 561 651 l 561 521 l 411 444 l 411 411 q 411 253 411 336 q 414 83 411 171 l 624 83 l 661 276 l 783 276 l 769 0 l 39 0 l 39 82 l 135 92 q 136 206 136 150 q 136 311 136 261 l 36 260 l 36 390 l 136 442 l 136 475 q 136 644 136 560 q 135 814 136 729 l 39 824 l 39 906 l 524 906 l 524 824 l 413 813 q 411 695 411 754 q 411 575 411 636 l 561 651 z "},"Ḿ":{"ha":1240,"x_min":14,"x_max":1203,"o":"m 14 0 l 14 82 l 151 99 l 151 810 l 31 824 l 31 906 l 442 906 l 633 358 l 814 906 l 1196 906 l 1196 824 l 1107 814 q 1106 644 1106 729 q 1106 475 1106 560 l 1106 431 q 1106 260 1106 344 q 1107 92 1106 175 l 1203 82 l 1203 0 l 733 0 l 733 82 l 828 93 q 830 253 831 176 q 831 390 829 329 l 835 674 l 608 0 l 486 0 l 246 674 q 248 538 247 607 q 249 399 249 469 l 249 100 l 364 82 l 364 0 l 14 0 m 524 999 q 606 1078 564 1039 q 686 1153 647 1117 q 746 1198 722 1186 q 797 1210 769 1210 q 858 1184 835 1210 q 882 1129 882 1158 q 867 1083 882 1110 q 800 1033 853 1056 q 683 985 740 1008 q 567 936 625 961 l 524 999 z "},"Ṃ":{"ha":1240,"x_min":14,"x_max":1203,"o":"m 14 0 l 14 82 l 151 99 l 151 810 l 31 824 l 31 906 l 442 906 l 633 358 l 814 906 l 1196 906 l 1196 824 l 1107 814 q 1106 644 1106 729 q 1106 475 1106 560 l 1106 431 q 1106 260 1106 344 q 1107 92 1106 175 l 1203 82 l 1203 0 l 733 0 l 733 82 l 828 93 q 830 253 831 176 q 831 390 829 329 l 835 674 l 608 0 l 486 0 l 246 674 q 248 538 247 607 q 249 399 249 469 l 249 100 l 364 82 l 364 0 l 14 0 m 553 -325 q 463 -292 500 -325 q 425 -206 425 -258 q 463 -119 425 -153 q 553 -86 500 -86 q 643 -119 606 -86 q 681 -206 681 -153 q 643 -292 681 -258 q 553 -325 606 -325 z "},"Ń":{"ha":1007,"x_min":33,"x_max":974,"o":"m 33 0 l 33 82 l 151 99 l 151 782 l 128 815 l 33 822 l 33 906 l 388 906 l 758 397 l 758 806 l 594 824 l 594 906 l 974 906 l 974 824 l 856 807 l 856 0 l 710 0 l 249 646 l 249 100 l 413 82 l 413 0 l 33 0 m 393 1013 q 475 1092 433 1053 q 556 1167 517 1131 q 615 1212 592 1200 q 667 1224 639 1224 q 728 1198 704 1224 q 751 1143 751 1172 q 737 1097 751 1124 q 669 1047 722 1069 q 552 999 610 1022 q 436 950 494 975 l 393 1013 z "},"Ň":{"ha":1007,"x_min":33,"x_max":974,"o":"m 33 0 l 33 82 l 151 99 l 151 782 l 128 815 l 33 822 l 33 906 l 388 906 l 758 397 l 758 806 l 594 824 l 594 906 l 974 906 l 974 824 l 856 807 l 856 0 l 710 0 l 249 646 l 249 100 l 413 82 l 413 0 l 33 0 m 299 1239 l 503 1111 l 707 1239 l 760 1188 l 565 967 l 440 967 l 247 1188 l 299 1239 z "},"Ǹ":{"ha":1007,"x_min":33,"x_max":974,"o":"m 33 0 l 33 82 l 151 99 l 151 782 l 128 815 l 33 822 l 33 906 l 388 906 l 758 397 l 758 806 l 594 824 l 594 906 l 974 906 l 974 824 l 856 807 l 856 0 l 710 0 l 249 646 l 249 100 l 413 82 l 413 0 l 33 0 m 613 1013 l 569 950 q 456 997 513 974 q 339 1044 399 1019 q 294 1069 311 1056 q 269 1095 278 1082 q 257 1121 260 1108 q 254 1143 254 1133 q 278 1198 254 1172 q 339 1224 301 1224 q 390 1212 367 1224 q 449 1168 414 1200 q 529 1092 488 1132 q 613 1013 571 1053 z "},"Ñ":{"ha":1007,"x_min":33,"x_max":974,"o":"m 33 0 l 33 82 l 151 99 l 151 782 l 128 815 l 33 822 l 33 906 l 388 906 l 758 397 l 758 806 l 594 824 l 594 906 l 974 906 l 974 824 l 856 807 l 856 0 l 710 0 l 249 646 l 249 100 l 413 82 l 413 0 l 33 0 m 250 992 q 307 1140 261 1089 q 415 1190 353 1190 q 470 1180 446 1190 q 517 1157 494 1169 q 558 1134 536 1146 q 606 1122 581 1122 q 657 1141 635 1122 q 692 1193 679 1160 l 757 1165 q 700 1017 746 1069 q 596 965 654 965 q 540 976 568 965 q 489 999 511 986 q 448 1022 469 1010 q 400 1033 426 1033 q 349 1015 371 1033 q 315 964 328 996 l 250 992 z "},"Ņ":{"ha":1007,"x_min":33,"x_max":974,"o":"m 33 0 l 33 82 l 151 99 l 151 782 l 128 815 l 33 822 l 33 906 l 388 906 l 758 397 l 758 806 l 594 824 l 594 906 l 974 906 l 974 824 l 856 807 l 856 0 l 710 0 l 249 646 l 249 100 l 413 82 l 413 0 l 33 0 m 632 -175 q 615 -240 632 -210 q 569 -297 599 -271 q 501 -343 540 -322 q 415 -379 461 -364 l 392 -318 q 448 -292 424 -304 q 492 -262 472 -281 q 435 -217 456 -243 q 414 -157 414 -192 q 445 -93 414 -118 q 522 -68 476 -68 q 567 -74 546 -68 q 618 -99 588 -79 q 632 -175 632 -136 z "},"Ṅ":{"ha":1007,"x_min":33,"x_max":974,"o":"m 33 0 l 33 82 l 151 99 l 151 782 l 128 815 l 33 822 l 33 906 l 388 906 l 758 397 l 758 806 l 594 824 l 594 906 l 974 906 l 974 824 l 856 807 l 856 0 l 710 0 l 249 646 l 249 100 l 413 82 l 413 0 l 33 0 m 503 969 q 413 1003 450 969 q 375 1089 375 1036 q 413 1175 375 1142 q 503 1208 450 1208 q 593 1175 556 1208 q 631 1089 631 1142 q 593 1003 631 1036 q 503 969 556 969 z "},"Ṇ":{"ha":1007,"x_min":33,"x_max":974,"o":"m 33 0 l 33 82 l 151 99 l 151 782 l 128 815 l 33 822 l 33 906 l 388 906 l 758 397 l 758 806 l 594 824 l 594 906 l 974 906 l 974 824 l 856 807 l 856 0 l 710 0 l 249 646 l 249 100 l 413 82 l 413 0 l 33 0 m 522 -325 q 432 -292 469 -325 q 394 -206 394 -258 q 432 -119 394 -153 q 522 -86 469 -86 q 613 -119 575 -86 q 650 -206 650 -153 q 613 -292 650 -258 q 522 -325 575 -325 z "},"Ṉ":{"ha":1007,"x_min":33,"x_max":974,"o":"m 33 0 l 33 82 l 151 99 l 151 782 l 128 815 l 33 822 l 33 906 l 388 906 l 758 397 l 758 806 l 594 824 l 594 906 l 974 906 l 974 824 l 856 807 l 856 0 l 710 0 l 249 646 l 249 100 l 413 82 l 413 0 l 33 0 m 264 -279 l 264 -140 l 739 -140 l 739 -279 l 264 -279 z "},"Ò":{"ha":972,"x_min":39,"x_max":933,"o":"m 324 453 q 333 290 324 363 q 361 165 342 217 q 411 85 381 114 q 486 57 442 57 q 561 85 531 57 q 611 165 592 114 q 640 290 631 217 q 649 453 649 363 q 640 615 649 542 q 611 741 631 689 q 561 822 592 793 q 486 850 531 850 q 411 822 442 850 q 361 741 381 793 q 333 615 342 689 q 324 453 324 542 m 486 933 q 654 904 574 933 q 797 815 735 875 q 897 665 860 756 q 933 453 933 575 q 897 240 933 331 q 798 90 860 150 q 655 1 736 31 q 486 -28 574 -28 q 317 1 399 -28 q 174 90 236 31 q 76 240 113 150 q 39 453 39 331 q 76 665 39 575 q 175 815 113 756 q 318 904 238 875 q 486 933 399 933 m 596 1018 l 553 956 q 439 1002 496 979 q 322 1050 382 1025 q 278 1074 294 1061 q 252 1101 261 1088 q 240 1126 243 1114 q 238 1149 238 1139 q 261 1203 238 1178 q 322 1229 285 1229 q 374 1217 350 1229 q 432 1174 397 1206 q 513 1098 471 1138 q 596 1018 554 1058 z "},"Ó":{"ha":972,"x_min":39,"x_max":933,"o":"m 324 453 q 333 290 324 363 q 361 165 342 217 q 411 85 381 114 q 486 57 442 57 q 561 85 531 57 q 611 165 592 114 q 640 290 631 217 q 649 453 649 363 q 640 615 649 542 q 611 741 631 689 q 561 822 592 793 q 486 850 531 850 q 411 822 442 850 q 361 741 381 793 q 333 615 342 689 q 324 453 324 542 m 486 933 q 654 904 574 933 q 797 815 735 875 q 897 665 860 756 q 933 453 933 575 q 897 240 933 331 q 798 90 860 150 q 655 1 736 31 q 486 -28 574 -28 q 317 1 399 -28 q 174 90 236 31 q 76 240 113 150 q 39 453 39 331 q 76 665 39 575 q 175 815 113 756 q 318 904 238 875 q 486 933 399 933 m 376 1018 q 458 1097 417 1058 q 539 1172 500 1136 q 599 1217 575 1206 q 650 1229 622 1229 q 711 1203 688 1229 q 735 1149 735 1178 q 720 1102 735 1129 q 653 1053 706 1075 q 535 1004 593 1028 q 419 956 478 981 l 376 1018 z "},"Ŏ":{"ha":972,"x_min":39,"x_max":933,"o":"m 324 453 q 333 290 324 363 q 361 165 342 217 q 411 85 381 114 q 486 57 442 57 q 561 85 531 57 q 611 165 592 114 q 640 290 631 217 q 649 453 649 363 q 640 615 649 542 q 611 741 631 689 q 561 822 592 793 q 486 850 531 850 q 411 822 442 850 q 361 741 381 793 q 333 615 342 689 q 324 453 324 542 m 486 933 q 654 904 574 933 q 797 815 735 875 q 897 665 860 756 q 933 453 933 575 q 897 240 933 331 q 798 90 860 150 q 655 1 736 31 q 486 -28 574 -28 q 317 1 399 -28 q 174 90 236 31 q 76 240 113 150 q 39 453 39 331 q 76 665 39 575 q 175 815 113 756 q 318 904 238 875 q 486 933 399 933 m 246 1174 l 318 1203 q 384 1131 344 1156 q 486 1107 424 1107 q 588 1131 549 1107 q 654 1203 628 1156 l 726 1174 q 701 1099 718 1133 q 654 1038 683 1064 q 583 998 625 1013 q 486 983 542 983 q 389 998 431 983 q 318 1038 347 1013 q 272 1099 289 1064 q 246 1174 254 1133 z "},"Ô":{"ha":972,"x_min":39,"x_max":933,"o":"m 324 453 q 333 290 324 363 q 361 165 342 217 q 411 85 381 114 q 486 57 442 57 q 561 85 531 57 q 611 165 592 114 q 640 290 631 217 q 649 453 649 363 q 640 615 649 542 q 611 741 631 689 q 561 822 592 793 q 486 850 531 850 q 411 822 442 850 q 361 741 381 793 q 333 615 342 689 q 324 453 324 542 m 486 933 q 654 904 574 933 q 797 815 735 875 q 897 665 860 756 q 933 453 933 575 q 897 240 933 331 q 798 90 860 150 q 655 1 736 31 q 486 -28 574 -28 q 317 1 399 -28 q 174 90 236 31 q 76 240 113 150 q 39 453 39 331 q 76 665 39 575 q 175 815 113 756 q 318 904 238 875 q 486 933 399 933 m 543 1225 l 761 993 l 714 938 l 486 1063 l 258 938 l 211 993 l 429 1225 l 543 1225 z "},"Õ":{"ha":972,"x_min":39,"x_max":933,"o":"m 324 453 q 333 290 324 363 q 361 165 342 217 q 411 85 381 114 q 486 57 442 57 q 561 85 531 57 q 611 165 592 114 q 640 290 631 217 q 649 453 649 363 q 640 615 649 542 q 611 741 631 689 q 561 822 592 793 q 486 850 531 850 q 411 822 442 850 q 361 741 381 793 q 333 615 342 689 q 324 453 324 542 m 486 933 q 654 904 574 933 q 797 815 735 875 q 897 665 860 756 q 933 453 933 575 q 897 240 933 331 q 798 90 860 150 q 655 1 736 31 q 486 -28 574 -28 q 317 1 399 -28 q 174 90 236 31 q 76 240 113 150 q 39 453 39 331 q 76 665 39 575 q 175 815 113 756 q 318 904 238 875 q 486 933 399 933 m 233 1006 q 290 1153 244 1103 q 399 1204 336 1204 q 453 1194 429 1204 q 500 1171 478 1183 q 542 1148 519 1160 q 589 1136 564 1136 q 640 1155 618 1136 q 675 1207 663 1174 l 740 1179 q 683 1031 729 1083 q 579 979 638 979 q 523 990 551 979 q 472 1013 494 1000 q 431 1035 453 1024 q 383 1047 410 1047 q 333 1028 354 1047 q 299 978 311 1010 l 233 1006 z "},"Ö":{"ha":972,"x_min":39,"x_max":933,"o":"m 324 453 q 333 290 324 363 q 361 165 342 217 q 411 85 381 114 q 486 57 442 57 q 561 85 531 57 q 611 165 592 114 q 640 290 631 217 q 649 453 649 363 q 640 615 649 542 q 611 741 631 689 q 561 822 592 793 q 486 850 531 850 q 411 822 442 850 q 361 741 381 793 q 333 615 342 689 q 324 453 324 542 m 486 933 q 654 904 574 933 q 797 815 735 875 q 897 665 860 756 q 933 453 933 575 q 897 240 933 331 q 798 90 860 150 q 655 1 736 31 q 486 -28 574 -28 q 317 1 399 -28 q 174 90 236 31 q 76 240 113 150 q 39 453 39 331 q 76 665 39 575 q 175 815 113 756 q 318 904 238 875 q 486 933 399 933 m 306 972 q 228 999 263 972 q 194 1076 194 1026 q 228 1153 194 1126 q 306 1181 263 1181 q 383 1153 350 1181 q 417 1076 417 1126 q 383 999 417 1026 q 306 972 350 972 m 667 972 q 590 999 624 972 q 556 1076 556 1026 q 590 1153 556 1126 q 667 1181 624 1181 q 744 1153 711 1181 q 778 1076 778 1126 q 744 999 778 1026 q 667 972 711 972 z "},"Ō":{"ha":972,"x_min":39,"x_max":933,"o":"m 324 453 q 333 290 324 363 q 361 165 342 217 q 411 85 381 114 q 486 57 442 57 q 561 85 531 57 q 611 165 592 114 q 640 290 631 217 q 649 453 649 363 q 640 615 649 542 q 611 741 631 689 q 561 822 592 793 q 486 850 531 850 q 411 822 442 850 q 361 741 381 793 q 333 615 342 689 q 324 453 324 542 m 486 933 q 654 904 574 933 q 797 815 735 875 q 897 665 860 756 q 933 453 933 575 q 897 240 933 331 q 798 90 860 150 q 655 1 736 31 q 486 -28 574 -28 q 317 1 399 -28 q 174 90 236 31 q 76 240 113 150 q 39 453 39 331 q 76 665 39 575 q 175 815 113 756 q 318 904 238 875 q 486 933 399 933 m 257 996 l 257 1135 l 715 1135 l 715 996 l 257 996 z "},"Ő":{"ha":972,"x_min":39,"x_max":933,"o":"m 324 453 q 333 290 324 363 q 361 165 342 217 q 411 85 381 114 q 486 57 442 57 q 561 85 531 57 q 611 165 592 114 q 640 290 631 217 q 649 453 649 363 q 640 615 649 542 q 611 741 631 689 q 561 822 592 793 q 486 850 531 850 q 411 822 442 850 q 361 741 381 793 q 333 615 342 689 q 324 453 324 542 m 486 933 q 654 904 574 933 q 797 815 735 875 q 897 665 860 756 q 933 453 933 575 q 897 240 933 331 q 798 90 860 150 q 655 1 736 31 q 486 -28 574 -28 q 317 1 399 -28 q 174 90 236 31 q 76 240 113 150 q 39 453 39 331 q 76 665 39 575 q 175 815 113 756 q 318 904 238 875 q 486 933 399 933 m 306 990 l 382 1183 q 415 1234 396 1217 q 467 1251 435 1251 q 517 1235 494 1251 q 539 1192 539 1219 q 531 1157 539 1172 q 508 1122 524 1142 l 369 956 l 306 990 m 531 990 l 607 1183 q 640 1234 621 1217 q 692 1251 660 1251 q 742 1235 719 1251 q 764 1192 764 1219 q 756 1157 764 1172 q 733 1122 749 1142 l 594 956 l 531 990 z "},"Ǒ":{"ha":972,"x_min":39,"x_max":933,"o":"m 324 453 q 333 290 324 363 q 361 165 342 217 q 411 85 381 114 q 486 57 442 57 q 561 85 531 57 q 611 165 592 114 q 640 290 631 217 q 649 453 649 363 q 640 615 649 542 q 611 741 631 689 q 561 822 592 793 q 486 850 531 850 q 411 822 442 850 q 361 741 381 793 q 333 615 342 689 q 324 453 324 542 m 486 933 q 654 904 574 933 q 797 815 735 875 q 897 665 860 756 q 933 453 933 575 q 897 240 933 331 q 798 90 860 150 q 655 1 736 31 q 486 -28 574 -28 q 317 1 399 -28 q 174 90 236 31 q 76 240 113 150 q 39 453 39 331 q 76 665 39 575 q 175 815 113 756 q 318 904 238 875 q 486 933 399 933 m 282 1239 l 486 1111 l 690 1239 l 743 1188 l 549 967 l 424 967 l 231 1188 l 282 1239 z "},"Ố":{"ha":972,"x_min":39,"x_max":933,"o":"m 324 453 q 333 290 324 363 q 361 165 342 217 q 411 85 381 114 q 486 57 442 57 q 561 85 531 57 q 611 165 592 114 q 640 290 631 217 q 649 453 649 363 q 640 615 649 542 q 611 741 631 689 q 561 822 592 793 q 486 850 531 850 q 411 822 442 850 q 361 741 381 793 q 333 615 342 689 q 324 453 324 542 m 486 933 q 654 904 574 933 q 797 815 735 875 q 897 665 860 756 q 933 453 933 575 q 897 240 933 331 q 798 90 860 150 q 655 1 736 31 q 486 -28 574 -28 q 317 1 399 -28 q 174 90 236 31 q 76 240 113 150 q 39 453 39 331 q 76 665 39 575 q 175 815 113 756 q 318 904 238 875 q 486 933 399 933 m 258 938 l 211 993 l 429 1225 l 543 1225 l 761 993 l 714 938 l 486 1063 l 258 938 m 738 1086 l 689 1149 l 715 1203 q 780 1288 747 1268 q 839 1308 813 1308 q 894 1285 871 1308 q 917 1226 917 1263 q 889 1163 917 1193 q 814 1115 861 1133 l 738 1086 z "},"Ộ":{"ha":972,"x_min":39,"x_max":933,"o":"m 324 453 q 333 290 324 363 q 361 165 342 217 q 411 85 381 114 q 486 57 442 57 q 561 85 531 57 q 611 165 592 114 q 640 290 631 217 q 649 453 649 363 q 640 615 649 542 q 611 741 631 689 q 561 822 592 793 q 486 850 531 850 q 411 822 442 850 q 361 741 381 793 q 333 615 342 689 q 324 453 324 542 m 486 933 q 654 904 574 933 q 797 815 735 875 q 897 665 860 756 q 933 453 933 575 q 897 240 933 331 q 798 90 860 150 q 655 1 736 31 q 486 -28 574 -28 q 317 1 399 -28 q 174 90 236 31 q 76 240 113 150 q 39 453 39 331 q 76 665 39 575 q 175 815 113 756 q 318 904 238 875 q 486 933 399 933 m 543 1225 l 761 993 l 714 938 l 486 1063 l 258 938 l 211 993 l 429 1225 l 543 1225 m 486 -325 q 396 -292 433 -325 q 358 -206 358 -258 q 396 -119 358 -153 q 486 -86 433 -86 q 576 -119 539 -86 q 614 -206 614 -153 q 576 -292 614 -258 q 486 -325 539 -325 z "},"Ồ":{"ha":972,"x_min":39,"x_max":933,"o":"m 324 453 q 333 290 324 363 q 361 165 342 217 q 411 85 381 114 q 486 57 442 57 q 561 85 531 57 q 611 165 592 114 q 640 290 631 217 q 649 453 649 363 q 640 615 649 542 q 611 741 631 689 q 561 822 592 793 q 486 850 531 850 q 411 822 442 850 q 361 741 381 793 q 333 615 342 689 q 324 453 324 542 m 486 933 q 654 904 574 933 q 797 815 735 875 q 897 665 860 756 q 933 453 933 575 q 897 240 933 331 q 798 90 860 150 q 655 1 736 31 q 486 -28 574 -28 q 317 1 399 -28 q 174 90 236 31 q 76 240 113 150 q 39 453 39 331 q 76 665 39 575 q 175 815 113 756 q 318 904 238 875 q 486 933 399 933 m 714 938 l 486 1063 l 258 938 l 211 993 l 429 1225 l 543 1225 l 761 993 l 714 938 m 235 1086 l 158 1115 q 83 1163 111 1133 q 56 1226 56 1193 q 78 1285 56 1263 q 133 1308 101 1308 q 192 1288 160 1308 q 257 1203 225 1268 l 283 1149 l 235 1086 z "},"Ổ":{"ha":972,"x_min":39,"x_max":933,"o":"m 324 453 q 333 290 324 363 q 361 165 342 217 q 411 85 381 114 q 486 57 442 57 q 561 85 531 57 q 611 165 592 114 q 640 290 631 217 q 649 453 649 363 q 640 615 649 542 q 611 741 631 689 q 561 822 592 793 q 486 850 531 850 q 411 822 442 850 q 361 741 381 793 q 333 615 342 689 q 324 453 324 542 m 486 933 q 654 904 574 933 q 797 815 735 875 q 897 665 860 756 q 933 453 933 575 q 897 240 933 331 q 798 90 860 150 q 655 1 736 31 q 486 -28 574 -28 q 317 1 399 -28 q 174 90 236 31 q 76 240 113 150 q 39 453 39 331 q 76 665 39 575 q 175 815 113 756 q 318 904 238 875 q 486 933 399 933 m 258 938 l 211 993 l 429 1225 l 543 1225 l 761 993 l 714 938 l 486 1063 l 258 938 m 686 1165 q 747 1186 735 1175 q 760 1207 760 1197 q 736 1228 760 1218 q 646 1244 713 1239 l 658 1403 q 882 1240 882 1385 q 834 1146 882 1181 q 699 1100 786 1111 l 686 1165 z "},"Ỗ":{"ha":972,"x_min":39,"x_max":933,"o":"m 324 453 q 333 290 324 363 q 361 165 342 217 q 411 85 381 114 q 486 57 442 57 q 561 85 531 57 q 611 165 592 114 q 640 290 631 217 q 649 453 649 363 q 640 615 649 542 q 611 741 631 689 q 561 822 592 793 q 486 850 531 850 q 411 822 442 850 q 361 741 381 793 q 333 615 342 689 q 324 453 324 542 m 486 933 q 654 904 574 933 q 797 815 735 875 q 897 665 860 756 q 933 453 933 575 q 897 240 933 331 q 798 90 860 150 q 655 1 736 31 q 486 -28 574 -28 q 317 1 399 -28 q 174 90 236 31 q 76 240 113 150 q 39 453 39 331 q 76 665 39 575 q 175 815 113 756 q 318 904 238 875 q 486 933 399 933 m 258 936 l 211 992 l 429 1182 l 543 1182 l 761 992 l 714 936 l 486 1039 l 258 936 m 232 1225 q 288 1350 243 1307 q 389 1393 333 1393 q 451 1385 425 1393 q 500 1369 478 1376 q 542 1357 521 1363 q 589 1351 564 1351 q 675 1406 649 1351 l 740 1383 q 720 1310 735 1342 q 685 1257 706 1279 q 640 1224 664 1235 q 590 1213 615 1213 q 524 1222 554 1213 q 471 1238 494 1231 q 429 1250 450 1244 q 382 1256 408 1256 q 331 1241 353 1256 q 297 1203 310 1226 l 232 1225 z "},"Ọ":{"ha":972,"x_min":39,"x_max":933,"o":"m 324 453 q 333 290 324 363 q 361 165 342 217 q 411 85 381 114 q 486 57 442 57 q 561 85 531 57 q 611 165 592 114 q 640 290 631 217 q 649 453 649 363 q 640 615 649 542 q 611 741 631 689 q 561 822 592 793 q 486 850 531 850 q 411 822 442 850 q 361 741 381 793 q 333 615 342 689 q 324 453 324 542 m 486 933 q 654 904 574 933 q 797 815 735 875 q 897 665 860 756 q 933 453 933 575 q 897 240 933 331 q 798 90 860 150 q 655 1 736 31 q 486 -28 574 -28 q 317 1 399 -28 q 174 90 236 31 q 76 240 113 150 q 39 453 39 331 q 76 665 39 575 q 175 815 113 756 q 318 904 238 875 q 486 933 399 933 m 486 -325 q 396 -292 433 -325 q 358 -206 358 -258 q 396 -119 358 -153 q 486 -86 433 -86 q 576 -119 539 -86 q 614 -206 614 -153 q 576 -292 614 -258 q 486 -325 539 -325 z "},"Ỏ":{"ha":972,"x_min":39,"x_max":933,"o":"m 324 453 q 333 290 324 363 q 361 165 342 217 q 411 85 381 114 q 486 57 442 57 q 561 85 531 57 q 611 165 592 114 q 640 290 631 217 q 649 453 649 363 q 640 615 649 542 q 611 741 631 689 q 561 822 592 793 q 486 850 531 850 q 411 822 442 850 q 361 741 381 793 q 333 615 342 689 q 324 453 324 542 m 486 933 q 654 904 574 933 q 797 815 735 875 q 897 665 860 756 q 933 453 933 575 q 897 240 933 331 q 798 90 860 150 q 655 1 736 31 q 486 -28 574 -28 q 317 1 399 -28 q 174 90 236 31 q 76 240 113 150 q 39 453 39 331 q 76 665 39 575 q 175 815 113 756 q 318 904 238 875 q 486 933 399 933 m 449 978 l 436 1043 q 497 1062 485 1053 q 510 1081 510 1071 q 486 1104 510 1096 q 396 1118 463 1113 l 408 1276 q 632 1114 632 1258 q 584 1022 632 1054 q 449 978 536 989 z "},"Ơ":{"ha":972,"x_min":39,"x_max":933,"o":"m 324 453 q 333 290 324 363 q 361 165 342 217 q 411 85 381 114 q 486 57 442 57 q 561 85 531 57 q 611 165 592 114 q 640 290 631 217 q 649 453 649 363 q 640 615 649 542 q 611 741 631 689 q 561 822 592 793 q 486 850 531 850 q 411 822 442 850 q 361 741 381 793 q 333 615 342 689 q 324 453 324 542 m 486 933 q 654 904 574 933 q 797 815 735 875 q 897 665 860 756 q 933 453 933 575 q 897 240 933 331 q 798 90 860 150 q 655 1 736 31 q 486 -28 574 -28 q 317 1 399 -28 q 174 90 236 31 q 76 240 113 150 q 39 453 39 331 q 76 665 39 575 q 175 815 113 756 q 318 904 238 875 q 486 933 399 933 m 682 756 l 674 825 q 772 853 733 832 q 811 906 811 874 q 803 935 811 922 q 785 963 794 949 q 768 992 776 976 q 760 1032 760 1008 q 785 1088 760 1064 q 849 1111 811 1111 q 919 1086 890 1111 q 932 1043 931 1063 q 933 997 933 1024 q 913 904 933 947 q 856 828 892 861 q 776 777 821 796 q 682 756 731 758 z "},"Ớ":{"ha":972,"x_min":39,"x_max":933,"o":"m 324 453 q 333 290 324 363 q 361 165 342 217 q 411 85 381 114 q 486 57 442 57 q 561 85 531 57 q 611 165 592 114 q 640 290 631 217 q 649 453 649 363 q 640 615 649 542 q 611 741 631 689 q 561 822 592 793 q 486 850 531 850 q 411 822 442 850 q 361 741 381 793 q 333 615 342 689 q 324 453 324 542 m 486 933 q 654 904 574 933 q 797 815 735 875 q 897 665 860 756 q 933 453 933 575 q 897 240 933 331 q 798 90 860 150 q 655 1 736 31 q 486 -28 574 -28 q 317 1 399 -28 q 174 90 236 31 q 76 240 113 150 q 39 453 39 331 q 76 665 39 575 q 175 815 113 756 q 318 904 238 875 q 486 933 399 933 m 682 756 l 674 825 q 772 853 733 832 q 811 906 811 874 q 803 935 811 922 q 785 963 794 949 q 768 992 776 976 q 760 1032 760 1008 q 785 1088 760 1064 q 849 1111 811 1111 q 919 1086 890 1111 q 932 1043 931 1063 q 933 997 933 1024 q 913 904 933 947 q 856 828 892 861 q 776 777 821 796 q 682 756 731 758 m 363 1018 q 444 1097 403 1058 q 525 1172 486 1136 q 585 1217 561 1206 q 636 1229 608 1229 q 697 1203 674 1229 q 721 1149 721 1178 q 706 1102 721 1129 q 639 1053 692 1075 q 522 1004 579 1028 q 406 956 464 981 l 363 1018 z "},"Ợ":{"ha":972,"x_min":39,"x_max":933,"o":"m 324 453 q 333 290 324 363 q 361 165 342 217 q 411 85 381 114 q 486 57 442 57 q 561 85 531 57 q 611 165 592 114 q 640 290 631 217 q 649 453 649 363 q 640 615 649 542 q 611 741 631 689 q 561 822 592 793 q 486 850 531 850 q 411 822 442 850 q 361 741 381 793 q 333 615 342 689 q 324 453 324 542 m 486 933 q 654 904 574 933 q 797 815 735 875 q 897 665 860 756 q 933 453 933 575 q 897 240 933 331 q 798 90 860 150 q 655 1 736 31 q 486 -28 574 -28 q 317 1 399 -28 q 174 90 236 31 q 76 240 113 150 q 39 453 39 331 q 76 665 39 575 q 175 815 113 756 q 318 904 238 875 q 486 933 399 933 m 682 756 l 674 825 q 772 853 733 832 q 811 906 811 874 q 803 935 811 922 q 785 963 794 949 q 768 992 776 976 q 760 1032 760 1008 q 785 1088 760 1064 q 849 1111 811 1111 q 919 1086 890 1111 q 932 1043 931 1063 q 933 997 933 1024 q 913 904 933 947 q 856 828 892 861 q 776 777 821 796 q 682 756 731 758 m 486 -325 q 396 -292 433 -325 q 358 -206 358 -258 q 396 -119 358 -153 q 486 -86 433 -86 q 576 -119 539 -86 q 614 -206 614 -153 q 576 -292 614 -258 q 486 -325 539 -325 z "},"Ờ":{"ha":972,"x_min":39,"x_max":933,"o":"m 324 453 q 333 290 324 363 q 361 165 342 217 q 411 85 381 114 q 486 57 442 57 q 561 85 531 57 q 611 165 592 114 q 640 290 631 217 q 649 453 649 363 q 640 615 649 542 q 611 741 631 689 q 561 822 592 793 q 486 850 531 850 q 411 822 442 850 q 361 741 381 793 q 333 615 342 689 q 324 453 324 542 m 486 933 q 654 904 574 933 q 797 815 735 875 q 897 665 860 756 q 933 453 933 575 q 897 240 933 331 q 798 90 860 150 q 655 1 736 31 q 486 -28 574 -28 q 317 1 399 -28 q 174 90 236 31 q 76 240 113 150 q 39 453 39 331 q 76 665 39 575 q 175 815 113 756 q 318 904 238 875 q 486 933 399 933 m 682 756 l 674 825 q 772 853 733 832 q 811 906 811 874 q 803 935 811 922 q 785 963 794 949 q 768 992 776 976 q 760 1032 760 1008 q 785 1088 760 1064 q 849 1111 811 1111 q 919 1086 890 1111 q 932 1043 931 1063 q 933 997 933 1024 q 913 904 933 947 q 856 828 892 861 q 776 777 821 796 q 682 756 731 758 m 638 1018 l 594 956 q 481 1002 538 979 q 364 1050 424 1025 q 319 1074 336 1061 q 294 1101 303 1088 q 282 1126 285 1114 q 279 1149 279 1139 q 303 1203 279 1178 q 364 1229 326 1229 q 415 1217 392 1229 q 474 1174 439 1206 q 554 1098 513 1138 q 638 1018 596 1058 z "},"Ở":{"ha":972,"x_min":39,"x_max":933,"o":"m 324 453 q 333 290 324 363 q 361 165 342 217 q 411 85 381 114 q 486 57 442 57 q 561 85 531 57 q 611 165 592 114 q 640 290 631 217 q 649 453 649 363 q 640 615 649 542 q 611 741 631 689 q 561 822 592 793 q 486 850 531 850 q 411 822 442 850 q 361 741 381 793 q 333 615 342 689 q 324 453 324 542 m 486 933 q 654 904 574 933 q 797 815 735 875 q 897 665 860 756 q 933 453 933 575 q 897 240 933 331 q 798 90 860 150 q 655 1 736 31 q 486 -28 574 -28 q 317 1 399 -28 q 174 90 236 31 q 76 240 113 150 q 39 453 39 331 q 76 665 39 575 q 175 815 113 756 q 318 904 238 875 q 486 933 399 933 m 682 756 l 674 825 q 772 853 733 832 q 811 906 811 874 q 803 935 811 922 q 785 963 794 949 q 768 992 776 976 q 760 1032 760 1008 q 785 1088 760 1064 q 849 1111 811 1111 q 919 1086 890 1111 q 932 1043 931 1063 q 933 997 933 1024 q 913 904 933 947 q 856 828 892 861 q 776 777 821 796 q 682 756 731 758 m 435 978 l 422 1043 q 483 1062 471 1053 q 496 1081 496 1071 q 472 1104 496 1096 q 382 1118 449 1113 l 394 1276 q 618 1114 618 1258 q 570 1022 618 1054 q 435 978 522 989 z "},"Ỡ":{"ha":972,"x_min":39,"x_max":933,"o":"m 324 453 q 333 290 324 363 q 361 165 342 217 q 411 85 381 114 q 486 57 442 57 q 561 85 531 57 q 611 165 592 114 q 640 290 631 217 q 649 453 649 363 q 640 615 649 542 q 611 741 631 689 q 561 822 592 793 q 486 850 531 850 q 411 822 442 850 q 361 741 381 793 q 333 615 342 689 q 324 453 324 542 m 486 933 q 654 904 574 933 q 797 815 735 875 q 897 665 860 756 q 933 453 933 575 q 897 240 933 331 q 798 90 860 150 q 655 1 736 31 q 486 -28 574 -28 q 317 1 399 -28 q 174 90 236 31 q 76 240 113 150 q 39 453 39 331 q 76 665 39 575 q 175 815 113 756 q 318 904 238 875 q 486 933 399 933 m 682 756 l 674 825 q 772 853 733 832 q 811 906 811 874 q 803 935 811 922 q 785 963 794 949 q 768 992 776 976 q 760 1032 760 1008 q 785 1088 760 1064 q 849 1111 811 1111 q 919 1086 890 1111 q 932 1043 931 1063 q 933 997 933 1024 q 913 904 933 947 q 856 828 892 861 q 776 777 821 796 q 682 756 731 758 m 233 992 q 290 1140 244 1089 q 399 1190 336 1190 q 453 1180 429 1190 q 500 1157 478 1169 q 542 1134 519 1146 q 589 1122 564 1122 q 640 1141 618 1122 q 675 1193 663 1160 l 740 1165 q 683 1017 729 1069 q 579 965 638 965 q 523 976 551 965 q 472 999 494 986 q 431 1022 453 1010 q 383 1033 410 1033 q 333 1015 354 1033 q 299 964 311 996 l 233 992 z "},"Ø":{"ha":972,"x_min":39,"x_max":933,"o":"m 908 889 l 825 786 q 904 644 875 726 q 933 453 933 561 q 897 240 933 331 q 798 90 860 150 q 655 1 736 31 q 486 -28 574 -28 q 351 -10 415 -28 q 231 46 286 8 l 149 -56 l 64 17 l 147 119 q 68 262 97 179 q 39 453 39 344 q 76 665 39 575 q 175 815 113 756 q 318 904 238 875 q 486 933 399 933 q 622 915 557 933 q 742 860 686 897 l 824 961 l 908 889 m 324 453 q 328 344 324 394 l 621 710 q 569 813 603 776 q 486 850 536 850 q 411 822 442 850 q 361 741 381 793 q 333 615 342 689 q 324 453 324 542 m 486 57 q 561 85 531 57 q 611 165 592 114 q 640 290 631 217 q 649 453 649 363 q 644 561 649 511 l 351 196 q 403 93 369 129 q 486 57 436 57 z "},"Œ":{"ha":1288,"x_min":39,"x_max":1260,"o":"m 324 453 q 388 161 324 267 q 569 56 453 56 q 585 56 576 56 q 600 57 593 56 q 603 242 603 149 q 603 431 603 335 l 603 475 q 603 662 603 568 q 600 849 603 756 q 585 850 593 850 q 569 850 576 850 q 388 744 453 850 q 324 453 324 639 m 1129 236 l 1260 236 l 1250 0 l 744 0 q 659 -19 710 -11 q 549 -28 608 -28 q 351 0 444 -28 q 189 86 258 28 q 79 235 119 144 q 39 453 39 326 q 79 670 39 579 q 189 819 119 761 q 351 906 258 878 q 549 933 444 933 q 655 926 604 933 q 744 906 706 919 l 1222 906 l 1232 669 l 1101 669 l 1075 824 l 881 824 q 878 670 878 747 q 878 514 878 593 l 1006 514 l 1022 614 l 1110 614 l 1110 326 l 1022 326 l 1007 425 l 878 425 q 878 249 878 333 q 881 81 878 164 l 1103 81 l 1129 236 z "},"Ŕ":{"ha":967,"x_min":39,"x_max":967,"o":"m 136 431 l 136 475 q 136 644 136 560 q 135 814 136 729 l 39 824 l 39 906 l 517 906 q 770 846 683 906 q 857 681 857 786 q 845 614 857 647 q 805 551 833 581 q 728 500 776 522 q 606 467 679 478 q 719 439 675 458 q 791 390 764 419 q 831 319 818 360 q 850 226 843 278 l 867 93 l 967 82 l 967 0 q 915 -11 936 -7 q 877 -18 894 -15 q 840 -22 860 -21 q 794 -22 821 -22 q 706 -14 746 -22 q 638 13 667 -6 q 591 63 608 32 q 569 142 574 94 l 556 278 q 525 379 549 343 q 449 415 501 415 l 406 415 q 406 251 406 331 q 407 92 406 171 l 508 82 l 508 0 l 39 0 l 39 82 l 135 92 q 136 260 136 175 q 136 431 136 344 m 439 819 l 408 819 q 406 652 406 735 q 406 499 406 569 l 436 499 q 518 513 486 499 q 568 549 550 526 q 593 601 586 572 q 600 660 600 629 q 558 781 600 743 q 439 819 515 819 m 360 1013 q 442 1092 400 1053 q 522 1167 483 1131 q 582 1212 558 1200 q 633 1224 606 1224 q 694 1198 671 1224 q 718 1143 718 1172 q 703 1097 718 1124 q 636 1047 689 1069 q 519 999 576 1022 q 403 950 461 975 l 360 1013 z "},"Ř":{"ha":967,"x_min":39,"x_max":967,"o":"m 136 431 l 136 475 q 136 644 136 560 q 135 814 136 729 l 39 824 l 39 906 l 517 906 q 770 846 683 906 q 857 681 857 786 q 845 614 857 647 q 805 551 833 581 q 728 500 776 522 q 606 467 679 478 q 719 439 675 458 q 791 390 764 419 q 831 319 818 360 q 850 226 843 278 l 867 93 l 967 82 l 967 0 q 915 -11 936 -7 q 877 -18 894 -15 q 840 -22 860 -21 q 794 -22 821 -22 q 706 -14 746 -22 q 638 13 667 -6 q 591 63 608 32 q 569 142 574 94 l 556 278 q 525 379 549 343 q 449 415 501 415 l 406 415 q 406 251 406 331 q 407 92 406 171 l 508 82 l 508 0 l 39 0 l 39 82 l 135 92 q 136 260 136 175 q 136 431 136 344 m 439 819 l 408 819 q 406 652 406 735 q 406 499 406 569 l 436 499 q 518 513 486 499 q 568 549 550 526 q 593 601 586 572 q 600 660 600 629 q 558 781 600 743 q 439 819 515 819 m 265 1239 l 469 1111 l 674 1239 l 726 1188 l 532 967 l 407 967 l 214 1188 l 265 1239 z "},"Ŗ":{"ha":967,"x_min":39,"x_max":967,"o":"m 136 431 l 136 475 q 136 644 136 560 q 135 814 136 729 l 39 824 l 39 906 l 517 906 q 770 846 683 906 q 857 681 857 786 q 845 614 857 647 q 805 551 833 581 q 728 500 776 522 q 606 467 679 478 q 719 439 675 458 q 791 390 764 419 q 831 319 818 360 q 850 226 843 278 l 867 93 l 967 82 l 967 0 q 915 -11 936 -7 q 877 -18 894 -15 q 840 -22 860 -21 q 794 -22 821 -22 q 706 -14 746 -22 q 638 13 667 -6 q 591 63 608 32 q 569 142 574 94 l 556 278 q 525 379 549 343 q 449 415 501 415 l 406 415 q 406 251 406 331 q 407 92 406 171 l 508 82 l 508 0 l 39 0 l 39 82 l 135 92 q 136 260 136 175 q 136 431 136 344 m 439 819 l 408 819 q 406 652 406 735 q 406 499 406 569 l 436 499 q 518 513 486 499 q 568 549 550 526 q 593 601 586 572 q 600 660 600 629 q 558 781 600 743 q 439 819 515 819 m 613 -175 q 596 -240 613 -210 q 550 -297 579 -271 q 481 -343 521 -322 q 396 -379 442 -364 l 372 -318 q 428 -292 404 -304 q 472 -262 453 -281 q 415 -217 436 -243 q 394 -157 394 -192 q 426 -93 394 -118 q 503 -68 457 -68 q 547 -74 526 -68 q 599 -99 568 -79 q 613 -175 613 -136 z "},"Ṛ":{"ha":967,"x_min":39,"x_max":967,"o":"m 136 431 l 136 475 q 136 644 136 560 q 135 814 136 729 l 39 824 l 39 906 l 517 906 q 770 846 683 906 q 857 681 857 786 q 845 614 857 647 q 805 551 833 581 q 728 500 776 522 q 606 467 679 478 q 719 439 675 458 q 791 390 764 419 q 831 319 818 360 q 850 226 843 278 l 867 93 l 967 82 l 967 0 q 915 -11 936 -7 q 877 -18 894 -15 q 840 -22 860 -21 q 794 -22 821 -22 q 706 -14 746 -22 q 638 13 667 -6 q 591 63 608 32 q 569 142 574 94 l 556 278 q 525 379 549 343 q 449 415 501 415 l 406 415 q 406 251 406 331 q 407 92 406 171 l 508 82 l 508 0 l 39 0 l 39 82 l 135 92 q 136 260 136 175 q 136 431 136 344 m 439 819 l 408 819 q 406 652 406 735 q 406 499 406 569 l 436 499 q 518 513 486 499 q 568 549 550 526 q 593 601 586 572 q 600 660 600 629 q 558 781 600 743 q 439 819 515 819 m 510 -325 q 419 -292 457 -325 q 382 -206 382 -258 q 419 -119 382 -153 q 510 -86 457 -86 q 600 -119 563 -86 q 638 -206 638 -153 q 600 -292 638 -258 q 510 -325 563 -325 z "},"Ṝ":{"ha":967,"x_min":39,"x_max":967,"o":"m 136 431 l 136 475 q 136 644 136 560 q 135 814 136 729 l 39 824 l 39 906 l 517 906 q 770 846 683 906 q 857 681 857 786 q 845 614 857 647 q 805 551 833 581 q 728 500 776 522 q 606 467 679 478 q 719 439 675 458 q 791 390 764 419 q 831 319 818 360 q 850 226 843 278 l 867 93 l 967 82 l 967 0 q 915 -11 936 -7 q 877 -18 894 -15 q 840 -22 860 -21 q 794 -22 821 -22 q 706 -14 746 -22 q 638 13 667 -6 q 591 63 608 32 q 569 142 574 94 l 556 278 q 525 379 549 343 q 449 415 501 415 l 406 415 q 406 251 406 331 q 407 92 406 171 l 508 82 l 508 0 l 39 0 l 39 82 l 135 92 q 136 260 136 175 q 136 431 136 344 m 439 819 l 408 819 q 406 652 406 735 q 406 499 406 569 l 436 499 q 518 513 486 499 q 568 549 550 526 q 593 601 586 572 q 600 660 600 629 q 558 781 600 743 q 439 819 515 819 m 510 -325 q 419 -292 457 -325 q 382 -206 382 -258 q 419 -119 382 -153 q 510 -86 457 -86 q 600 -119 563 -86 q 638 -206 638 -153 q 600 -292 638 -258 q 510 -325 563 -325 m 256 996 l 256 1135 l 714 1135 l 714 996 l 256 996 z "},"Ṟ":{"ha":967,"x_min":39,"x_max":967,"o":"m 136 431 l 136 475 q 136 644 136 560 q 135 814 136 729 l 39 824 l 39 906 l 517 906 q 770 846 683 906 q 857 681 857 786 q 845 614 857 647 q 805 551 833 581 q 728 500 776 522 q 606 467 679 478 q 719 439 675 458 q 791 390 764 419 q 831 319 818 360 q 850 226 843 278 l 867 93 l 967 82 l 967 0 q 915 -11 936 -7 q 877 -18 894 -15 q 840 -22 860 -21 q 794 -22 821 -22 q 706 -14 746 -22 q 638 13 667 -6 q 591 63 608 32 q 569 142 574 94 l 556 278 q 525 379 549 343 q 449 415 501 415 l 406 415 q 406 251 406 331 q 407 92 406 171 l 508 82 l 508 0 l 39 0 l 39 82 l 135 92 q 136 260 136 175 q 136 431 136 344 m 439 819 l 408 819 q 406 652 406 735 q 406 499 406 569 l 436 499 q 518 513 486 499 q 568 549 550 526 q 593 601 586 572 q 600 660 600 629 q 558 781 600 743 q 439 819 515 819 m 272 -279 l 272 -140 l 747 -140 l 747 -279 l 272 -279 z "},"Ś":{"ha":768,"x_min":43,"x_max":733,"o":"m 358 60 q 454 95 424 60 q 485 178 485 131 q 462 256 485 228 q 386 308 439 283 l 325 338 q 210 400 260 368 q 128 470 161 432 q 77 555 94 508 q 60 661 60 601 q 155 861 60 789 q 418 933 250 933 q 568 915 494 933 q 694 864 642 897 l 682 664 l 538 664 l 513 829 q 426 846 471 846 q 378 838 401 846 q 338 814 356 829 q 311 778 321 799 q 301 732 301 757 q 330 651 301 681 q 415 594 358 622 l 485 561 q 597 499 550 529 q 674 433 644 468 q 719 355 704 397 q 733 258 733 313 q 710 144 733 197 q 641 53 688 92 q 524 -6 594 15 q 357 -28 453 -28 q 193 -12 278 -28 q 43 44 108 4 l 51 256 l 199 256 l 226 81 q 358 60 289 60 m 315 1018 q 397 1097 356 1058 q 478 1172 439 1136 q 538 1217 514 1206 q 589 1229 561 1229 q 650 1203 626 1229 q 674 1149 674 1178 q 659 1102 674 1129 q 592 1053 644 1075 q 474 1004 532 1028 q 358 956 417 981 l 315 1018 z "},"Š":{"ha":768,"x_min":43,"x_max":733,"o":"m 358 60 q 454 95 424 60 q 485 178 485 131 q 462 256 485 228 q 386 308 439 283 l 325 338 q 210 400 260 368 q 128 470 161 432 q 77 555 94 508 q 60 661 60 601 q 155 861 60 789 q 418 933 250 933 q 568 915 494 933 q 694 864 642 897 l 682 664 l 538 664 l 513 829 q 426 846 471 846 q 378 838 401 846 q 338 814 356 829 q 311 778 321 799 q 301 732 301 757 q 330 651 301 681 q 415 594 358 622 l 485 561 q 597 499 550 529 q 674 433 644 468 q 719 355 704 397 q 733 258 733 313 q 710 144 733 197 q 641 53 688 92 q 524 -6 594 15 q 357 -28 453 -28 q 193 -12 278 -28 q 43 44 108 4 l 51 256 l 199 256 l 226 81 q 358 60 289 60 m 221 1253 l 425 1125 l 629 1253 l 682 1201 l 488 981 l 363 981 l 169 1201 l 221 1253 z "},"Ş":{"ha":768,"x_min":43,"x_max":733,"o":"m 358 60 q 454 95 424 60 q 485 178 485 131 q 462 256 485 228 q 386 308 439 283 l 325 338 q 210 400 260 368 q 128 470 161 432 q 77 555 94 508 q 60 661 60 601 q 155 861 60 789 q 418 933 250 933 q 568 915 494 933 q 694 864 642 897 l 682 664 l 538 664 l 513 829 q 426 846 471 846 q 378 838 401 846 q 338 814 356 829 q 311 778 321 799 q 301 732 301 757 q 330 651 301 681 q 415 594 358 622 l 485 561 q 597 499 550 529 q 674 433 644 468 q 719 355 704 397 q 733 258 733 313 q 710 144 733 197 q 641 53 688 92 q 524 -6 594 15 q 357 -28 453 -28 q 193 -12 278 -28 q 43 44 108 4 l 51 256 l 199 256 l 226 81 q 358 60 289 60 m 336 -125 l 357 7 l 438 7 l 429 -67 q 542 -115 511 -82 q 574 -187 574 -149 q 524 -279 574 -243 q 374 -315 474 -315 q 311 -310 338 -315 q 257 -294 285 -306 l 274 -222 q 350 -236 314 -236 q 403 -223 386 -236 q 419 -187 419 -210 q 336 -125 419 -129 z "},"Ș":{"ha":768,"x_min":43,"x_max":733,"o":"m 358 60 q 454 95 424 60 q 485 178 485 131 q 462 256 485 228 q 386 308 439 283 l 325 338 q 210 400 260 368 q 128 470 161 432 q 77 555 94 508 q 60 661 60 601 q 155 861 60 789 q 418 933 250 933 q 568 915 494 933 q 694 864 642 897 l 682 664 l 538 664 l 513 829 q 426 846 471 846 q 378 838 401 846 q 338 814 356 829 q 311 778 321 799 q 301 732 301 757 q 330 651 301 681 q 415 594 358 622 l 485 561 q 597 499 550 529 q 674 433 644 468 q 719 355 704 397 q 733 258 733 313 q 710 144 733 197 q 641 53 688 92 q 524 -6 594 15 q 357 -28 453 -28 q 193 -12 278 -28 q 43 44 108 4 l 51 256 l 199 256 l 226 81 q 358 60 289 60 m 485 -175 q 468 -240 485 -210 q 422 -297 451 -271 q 353 -343 393 -322 q 268 -379 314 -364 l 244 -318 q 301 -292 276 -304 q 344 -262 325 -281 q 288 -217 308 -243 q 267 -157 267 -192 q 298 -93 267 -118 q 375 -68 329 -68 q 419 -74 399 -68 q 471 -99 440 -79 q 485 -175 485 -136 z "},"Ŝ":{"ha":768,"x_min":43,"x_max":733,"o":"m 358 60 q 454 95 424 60 q 485 178 485 131 q 462 256 485 228 q 386 308 439 283 l 325 338 q 210 400 260 368 q 128 470 161 432 q 77 555 94 508 q 60 661 60 601 q 155 861 60 789 q 418 933 250 933 q 568 915 494 933 q 694 864 642 897 l 682 664 l 538 664 l 513 829 q 426 846 471 846 q 378 838 401 846 q 338 814 356 829 q 311 778 321 799 q 301 732 301 757 q 330 651 301 681 q 415 594 358 622 l 485 561 q 597 499 550 529 q 674 433 644 468 q 719 355 704 397 q 733 258 733 313 q 710 144 733 197 q 641 53 688 92 q 524 -6 594 15 q 357 -28 453 -28 q 193 -12 278 -28 q 43 44 108 4 l 51 256 l 199 256 l 226 81 q 358 60 289 60 m 460 1225 l 678 993 l 631 938 l 403 1063 l 175 938 l 128 993 l 346 1225 l 460 1225 z "},"Ṡ":{"ha":768,"x_min":43,"x_max":733,"o":"m 358 60 q 454 95 424 60 q 485 178 485 131 q 462 256 485 228 q 386 308 439 283 l 325 338 q 210 400 260 368 q 128 470 161 432 q 77 555 94 508 q 60 661 60 601 q 155 861 60 789 q 418 933 250 933 q 568 915 494 933 q 694 864 642 897 l 682 664 l 538 664 l 513 829 q 426 846 471 846 q 378 838 401 846 q 338 814 356 829 q 311 778 321 799 q 301 732 301 757 q 330 651 301 681 q 415 594 358 622 l 485 561 q 597 499 550 529 q 674 433 644 468 q 719 355 704 397 q 733 258 733 313 q 710 144 733 197 q 641 53 688 92 q 524 -6 594 15 q 357 -28 453 -28 q 193 -12 278 -28 q 43 44 108 4 l 51 256 l 199 256 l 226 81 q 358 60 289 60 m 417 969 q 326 1003 364 969 q 289 1089 289 1036 q 326 1175 289 1142 q 417 1208 364 1208 q 507 1175 469 1208 q 544 1089 544 1142 q 507 1003 544 1036 q 417 969 469 969 z "},"Ṣ":{"ha":768,"x_min":43,"x_max":733,"o":"m 358 60 q 454 95 424 60 q 485 178 485 131 q 462 256 485 228 q 386 308 439 283 l 325 338 q 210 400 260 368 q 128 470 161 432 q 77 555 94 508 q 60 661 60 601 q 155 861 60 789 q 418 933 250 933 q 568 915 494 933 q 694 864 642 897 l 682 664 l 538 664 l 513 829 q 426 846 471 846 q 378 838 401 846 q 338 814 356 829 q 311 778 321 799 q 301 732 301 757 q 330 651 301 681 q 415 594 358 622 l 485 561 q 597 499 550 529 q 674 433 644 468 q 719 355 704 397 q 733 258 733 313 q 710 144 733 197 q 641 53 688 92 q 524 -6 594 15 q 357 -28 453 -28 q 193 -12 278 -28 q 43 44 108 4 l 51 256 l 199 256 l 226 81 q 358 60 289 60 m 383 -325 q 293 -292 331 -325 q 256 -206 256 -258 q 293 -119 256 -153 q 383 -86 331 -86 q 474 -119 436 -86 q 511 -206 511 -153 q 474 -292 511 -258 q 383 -325 436 -325 z "},"ẞ":{"ha":1056,"x_min":39,"x_max":1028,"o":"m 39 0 l 39 76 l 133 86 q 136 265 136 174 q 136 444 136 357 l 136 556 q 160 731 136 660 q 239 848 185 803 q 381 913 293 893 q 596 933 468 933 q 756 914 679 933 q 892 863 833 894 l 892 806 q 806 669 806 760 q 821 590 806 621 q 863 535 836 558 l 890 508 q 994 380 960 443 q 1028 242 1028 317 q 1008 143 1028 192 q 950 56 989 94 q 853 -5 911 18 q 718 -28 794 -28 q 593 -11 656 -28 q 482 44 531 6 l 489 256 l 624 256 l 665 60 l 685 60 q 748 92 725 60 q 771 174 771 125 q 767 212 771 194 q 753 247 763 229 q 729 283 744 264 q 692 326 714 301 l 658 363 q 613 415 632 392 q 582 463 594 439 q 564 514 569 488 q 558 574 558 540 q 620 725 558 657 q 786 829 682 793 q 714 842 750 838 q 632 846 678 846 q 523 833 565 846 q 456 790 481 819 q 421 714 431 761 q 411 600 411 667 l 411 390 q 412 210 411 313 q 415 0 413 108 l 39 0 z "},"Ť":{"ha":897,"x_min":28,"x_max":869,"o":"m 311 431 l 311 475 q 311 649 311 563 q 308 824 311 736 l 182 824 l 158 643 l 28 643 l 31 906 l 868 906 l 869 643 l 740 643 l 717 824 l 589 824 q 586 651 586 738 q 586 475 586 564 l 586 432 q 586 262 586 346 q 588 93 586 178 l 699 82 l 699 0 l 200 0 l 200 82 l 310 93 q 311 260 311 176 q 311 431 311 344 m 244 1239 l 449 1111 l 653 1239 l 706 1188 l 511 967 l 386 967 l 193 1188 l 244 1239 z "},"Ţ":{"ha":897,"x_min":28,"x_max":869,"o":"m 311 431 l 311 475 q 311 649 311 563 q 308 824 311 736 l 182 824 l 158 643 l 28 643 l 31 906 l 868 906 l 869 643 l 740 643 l 717 824 l 589 824 q 586 651 586 738 q 586 475 586 564 l 586 432 q 586 262 586 346 q 588 93 586 178 l 699 82 l 699 0 l 200 0 l 200 82 l 310 93 q 311 260 311 176 q 311 431 311 344 m 390 -125 l 411 7 l 492 7 l 483 -67 q 597 -115 565 -82 q 628 -187 628 -149 q 578 -279 628 -243 q 428 -315 528 -315 q 365 -310 392 -315 q 311 -294 339 -306 l 328 -222 q 404 -236 368 -236 q 457 -223 440 -236 q 474 -187 474 -210 q 390 -125 474 -129 z "},"Ț":{"ha":897,"x_min":28,"x_max":869,"o":"m 311 431 l 311 475 q 311 649 311 563 q 308 824 311 736 l 182 824 l 158 643 l 28 643 l 31 906 l 868 906 l 869 643 l 740 643 l 717 824 l 589 824 q 586 651 586 738 q 586 475 586 564 l 586 432 q 586 262 586 346 q 588 93 586 178 l 699 82 l 699 0 l 200 0 l 200 82 l 310 93 q 311 260 311 176 q 311 431 311 344 m 578 -175 q 561 -240 578 -210 q 515 -297 544 -271 q 447 -343 486 -322 q 361 -379 407 -364 l 338 -318 q 394 -292 369 -304 q 438 -262 418 -281 q 381 -217 401 -243 q 360 -157 360 -192 q 391 -93 360 -118 q 468 -68 422 -68 q 513 -74 492 -68 q 564 -99 533 -79 q 578 -175 578 -136 z "},"Ṭ":{"ha":897,"x_min":28,"x_max":869,"o":"m 311 431 l 311 475 q 311 649 311 563 q 308 824 311 736 l 182 824 l 158 643 l 28 643 l 31 906 l 868 906 l 869 643 l 740 643 l 717 824 l 589 824 q 586 651 586 738 q 586 475 586 564 l 586 432 q 586 262 586 346 q 588 93 586 178 l 699 82 l 699 0 l 200 0 l 200 82 l 310 93 q 311 260 311 176 q 311 431 311 344 m 449 -325 q 358 -292 396 -325 q 321 -206 321 -258 q 358 -119 321 -153 q 449 -86 396 -86 q 539 -119 501 -86 q 576 -206 576 -153 q 539 -292 576 -258 q 449 -325 501 -325 z "},"Ṯ":{"ha":897,"x_min":28,"x_max":869,"o":"m 311 431 l 311 475 q 311 649 311 563 q 308 824 311 736 l 182 824 l 158 643 l 28 643 l 31 906 l 868 906 l 869 643 l 740 643 l 717 824 l 589 824 q 586 651 586 738 q 586 475 586 564 l 586 432 q 586 262 586 346 q 588 93 586 178 l 699 82 l 699 0 l 200 0 l 200 82 l 310 93 q 311 260 311 176 q 311 431 311 344 m 211 -279 l 211 -140 l 686 -140 l 686 -279 l 211 -279 z "},"Ù":{"ha":1017,"x_min":35,"x_max":986,"o":"m 407 389 q 418 260 407 313 q 451 174 429 207 q 508 125 474 140 q 592 110 543 110 q 725 174 675 110 q 775 385 775 239 l 775 815 l 656 824 l 656 906 l 986 906 l 986 824 l 874 815 l 874 399 q 776 74 874 176 q 493 -28 678 -28 q 349 -8 415 -28 q 235 55 283 11 q 159 169 186 99 q 132 343 132 240 l 132 494 q 132 653 132 574 q 131 814 132 733 l 35 824 l 35 906 l 513 906 l 513 824 l 408 814 q 407 655 407 735 q 407 494 407 575 l 407 389 m 674 1013 l 631 950 q 517 997 574 974 q 400 1044 460 1019 q 356 1069 372 1056 q 330 1095 339 1082 q 318 1121 321 1108 q 315 1143 315 1133 q 339 1198 315 1172 q 400 1224 363 1224 q 451 1212 428 1224 q 510 1168 475 1200 q 590 1092 549 1132 q 674 1013 632 1053 z "},"Ú":{"ha":1017,"x_min":35,"x_max":986,"o":"m 407 389 q 418 260 407 313 q 451 174 429 207 q 508 125 474 140 q 592 110 543 110 q 725 174 675 110 q 775 385 775 239 l 775 815 l 656 824 l 656 906 l 986 906 l 986 824 l 874 815 l 874 399 q 776 74 874 176 q 493 -28 678 -28 q 349 -8 415 -28 q 235 55 283 11 q 159 169 186 99 q 132 343 132 240 l 132 494 q 132 653 132 574 q 131 814 132 733 l 35 824 l 35 906 l 513 906 l 513 824 l 408 814 q 407 655 407 735 q 407 494 407 575 l 407 389 m 440 1013 q 522 1092 481 1053 q 603 1167 564 1131 q 663 1212 639 1200 q 714 1224 686 1224 q 775 1198 751 1224 q 799 1143 799 1172 q 784 1097 799 1124 q 717 1047 769 1069 q 599 999 657 1022 q 483 950 542 975 l 440 1013 z "},"Û":{"ha":1017,"x_min":35,"x_max":986,"o":"m 407 389 q 418 260 407 313 q 451 174 429 207 q 508 125 474 140 q 592 110 543 110 q 725 174 675 110 q 775 385 775 239 l 775 815 l 656 824 l 656 906 l 986 906 l 986 824 l 874 815 l 874 399 q 776 74 874 176 q 493 -28 678 -28 q 349 -8 415 -28 q 235 55 283 11 q 159 169 186 99 q 132 343 132 240 l 132 494 q 132 653 132 574 q 131 814 132 733 l 35 824 l 35 906 l 513 906 l 513 824 l 408 814 q 407 655 407 735 q 407 494 407 575 l 407 389 m 635 1225 l 853 993 l 806 938 l 578 1063 l 350 938 l 303 993 l 521 1225 l 635 1225 z "},"Ü":{"ha":1017,"x_min":35,"x_max":986,"o":"m 407 389 q 418 260 407 313 q 451 174 429 207 q 508 125 474 140 q 592 110 543 110 q 725 174 675 110 q 775 385 775 239 l 775 815 l 656 824 l 656 906 l 986 906 l 986 824 l 874 815 l 874 399 q 776 74 874 176 q 493 -28 678 -28 q 349 -8 415 -28 q 235 55 283 11 q 159 169 186 99 q 132 343 132 240 l 132 494 q 132 653 132 574 q 131 814 132 733 l 35 824 l 35 906 l 513 906 l 513 824 l 408 814 q 407 655 407 735 q 407 494 407 575 l 407 389 m 390 972 q 313 999 347 972 q 279 1076 279 1026 q 313 1153 279 1126 q 390 1181 347 1181 q 468 1153 435 1181 q 501 1076 501 1126 q 468 999 501 1026 q 390 972 435 972 m 751 972 q 674 999 708 972 q 640 1076 640 1026 q 674 1153 640 1126 q 751 1181 708 1181 q 829 1153 796 1181 q 863 1076 863 1126 q 829 999 863 1026 q 751 972 796 972 z "},"Ū":{"ha":1017,"x_min":35,"x_max":986,"o":"m 407 389 q 418 260 407 313 q 451 174 429 207 q 508 125 474 140 q 592 110 543 110 q 725 174 675 110 q 775 385 775 239 l 775 815 l 656 824 l 656 906 l 986 906 l 986 824 l 874 815 l 874 399 q 776 74 874 176 q 493 -28 678 -28 q 349 -8 415 -28 q 235 55 283 11 q 159 169 186 99 q 132 343 132 240 l 132 494 q 132 653 132 574 q 131 814 132 733 l 35 824 l 35 906 l 513 906 l 513 824 l 408 814 q 407 655 407 735 q 407 494 407 575 l 407 389 m 346 996 l 346 1135 l 804 1135 l 804 996 l 346 996 z "},"Ů":{"ha":1017,"x_min":35,"x_max":986,"o":"m 407 389 q 418 260 407 313 q 451 174 429 207 q 508 125 474 140 q 592 110 543 110 q 725 174 675 110 q 775 385 775 239 l 775 815 l 656 824 l 656 906 l 986 906 l 986 824 l 874 815 l 874 399 q 776 74 874 176 q 493 -28 678 -28 q 349 -8 415 -28 q 235 55 283 11 q 159 169 186 99 q 132 343 132 240 l 132 494 q 132 653 132 574 q 131 814 132 733 l 35 824 l 35 906 l 513 906 l 513 824 l 408 814 q 407 655 407 735 q 407 494 407 575 l 407 389 m 583 963 q 478 1000 519 963 q 436 1103 436 1038 q 478 1205 436 1167 q 583 1243 519 1243 q 689 1206 647 1243 q 731 1103 731 1169 q 689 999 731 1036 q 583 963 647 963 m 583 1032 q 634 1051 615 1032 q 653 1103 653 1069 q 634 1154 653 1135 q 583 1174 615 1174 q 533 1154 551 1174 q 514 1103 514 1135 q 533 1051 514 1069 q 583 1032 551 1032 z "},"Ű":{"ha":1017,"x_min":35,"x_max":986,"o":"m 407 389 q 418 260 407 313 q 451 174 429 207 q 508 125 474 140 q 592 110 543 110 q 725 174 675 110 q 775 385 775 239 l 775 815 l 656 824 l 656 906 l 986 906 l 986 824 l 874 815 l 874 399 q 776 74 874 176 q 493 -28 678 -28 q 349 -8 415 -28 q 235 55 283 11 q 159 169 186 99 q 132 343 132 240 l 132 494 q 132 653 132 574 q 131 814 132 733 l 35 824 l 35 906 l 513 906 l 513 824 l 408 814 q 407 655 407 735 q 407 494 407 575 l 407 389 m 411 990 l 488 1183 q 521 1234 501 1217 q 572 1251 540 1251 q 622 1235 600 1251 q 644 1192 644 1219 q 637 1157 644 1172 q 614 1122 629 1142 l 475 956 l 411 990 m 636 990 l 713 1183 q 746 1234 726 1217 q 797 1251 765 1251 q 847 1235 825 1251 q 869 1192 869 1219 q 862 1157 869 1172 q 839 1122 854 1142 l 700 956 l 636 990 z "},"Ų":{"ha":1017,"x_min":35,"x_max":986,"o":"m 35 824 l 35 906 l 513 906 l 513 824 l 408 814 q 407 655 407 735 q 407 494 407 575 l 407 389 q 418 260 407 313 q 451 174 429 207 q 508 125 474 140 q 592 110 543 110 q 725 174 675 110 q 775 385 775 239 l 775 815 l 656 824 l 656 906 l 986 906 l 986 824 l 874 815 l 874 399 q 826 151 874 246 q 690 11 779 56 q 635 -37 650 -10 q 619 -96 619 -64 q 647 -162 619 -137 q 719 -186 674 -186 q 764 -183 747 -186 q 796 -175 781 -179 l 817 -246 q 728 -297 781 -279 q 617 -315 676 -315 q 494 -275 536 -315 q 453 -176 453 -235 q 477 -90 453 -126 q 547 -25 501 -53 q 522 -27 535 -26 q 493 -28 508 -28 q 349 -8 415 -28 q 235 55 283 11 q 159 169 186 99 q 132 343 132 240 l 132 494 q 132 653 132 574 q 131 814 132 733 l 35 824 z "},"Ŭ":{"ha":1017,"x_min":35,"x_max":986,"o":"m 407 389 q 418 260 407 313 q 451 174 429 207 q 508 125 474 140 q 592 110 543 110 q 725 174 675 110 q 775 385 775 239 l 775 815 l 656 824 l 656 906 l 986 906 l 986 824 l 874 815 l 874 399 q 776 74 874 176 q 493 -28 678 -28 q 349 -8 415 -28 q 235 55 283 11 q 159 169 186 99 q 132 343 132 240 l 132 494 q 132 653 132 574 q 131 814 132 733 l 35 824 l 35 906 l 513 906 l 513 824 l 408 814 q 407 655 407 735 q 407 494 407 575 l 407 389 m 338 1160 l 410 1189 q 476 1117 436 1142 q 578 1093 515 1093 q 680 1117 640 1093 q 746 1189 719 1142 l 818 1160 q 792 1085 810 1119 q 746 1024 775 1050 q 675 984 717 999 q 578 969 633 969 q 481 984 522 969 q 410 1024 439 999 q 363 1085 381 1050 q 338 1160 346 1119 z "},"Ǔ":{"ha":1017,"x_min":35,"x_max":986,"o":"m 407 389 q 418 260 407 313 q 451 174 429 207 q 508 125 474 140 q 592 110 543 110 q 725 174 675 110 q 775 385 775 239 l 775 815 l 656 824 l 656 906 l 986 906 l 986 824 l 874 815 l 874 399 q 776 74 874 176 q 493 -28 678 -28 q 349 -8 415 -28 q 235 55 283 11 q 159 169 186 99 q 132 343 132 240 l 132 494 q 132 653 132 574 q 131 814 132 733 l 35 824 l 35 906 l 513 906 l 513 824 l 408 814 q 407 655 407 735 q 407 494 407 575 l 407 389 m 388 1239 l 592 1111 l 796 1239 l 849 1188 l 654 967 l 529 967 l 336 1188 l 388 1239 z "},"Ǘ":{"ha":1017,"x_min":35,"x_max":986,"o":"m 407 389 q 418 260 407 313 q 451 174 429 207 q 508 125 474 140 q 592 110 543 110 q 725 174 675 110 q 775 385 775 239 l 775 815 l 656 824 l 656 906 l 986 906 l 986 824 l 874 815 l 874 399 q 776 74 874 176 q 493 -28 678 -28 q 349 -8 415 -28 q 235 55 283 11 q 159 169 186 99 q 132 343 132 240 l 132 494 q 132 653 132 574 q 131 814 132 733 l 35 824 l 35 906 l 513 906 l 513 824 l 408 814 q 407 655 407 735 q 407 494 407 575 l 407 389 m 281 1076 q 315 1153 281 1126 q 392 1181 349 1181 q 469 1153 436 1181 q 503 1076 503 1126 q 469 999 503 1026 q 392 972 436 972 q 315 999 349 972 q 281 1076 281 1026 m 551 1168 l 508 1231 l 611 1354 q 659 1395 636 1383 q 706 1407 682 1407 q 761 1382 740 1407 q 782 1329 782 1357 q 768 1288 782 1311 q 704 1242 754 1265 l 551 1168 m 642 1076 q 676 1153 642 1126 q 753 1181 710 1181 q 831 1153 797 1181 q 864 1076 864 1126 q 831 999 864 1026 q 753 972 797 972 q 676 999 710 972 q 642 1076 642 1026 z "},"Ǚ":{"ha":1017,"x_min":35,"x_max":986,"o":"m 407 389 q 418 260 407 313 q 451 174 429 207 q 508 125 474 140 q 592 110 543 110 q 725 174 675 110 q 775 385 775 239 l 775 815 l 656 824 l 656 906 l 986 906 l 986 824 l 874 815 l 874 399 q 776 74 874 176 q 493 -28 678 -28 q 349 -8 415 -28 q 235 55 283 11 q 159 169 186 99 q 132 343 132 240 l 132 494 q 132 653 132 574 q 131 814 132 733 l 35 824 l 35 906 l 513 906 l 513 824 l 408 814 q 407 655 407 735 q 407 494 407 575 l 407 389 m 392 972 q 315 999 349 972 q 281 1076 281 1026 q 315 1153 281 1126 q 392 1181 349 1181 q 469 1153 436 1181 q 503 1076 503 1126 q 469 999 503 1026 q 392 972 436 972 m 753 972 q 676 999 710 972 q 642 1076 642 1026 q 676 1153 642 1126 q 753 1181 710 1181 q 831 1153 797 1181 q 864 1076 864 1126 q 831 999 864 1026 q 753 972 797 972 m 368 1439 l 572 1311 l 776 1439 l 829 1388 l 635 1167 l 510 1167 l 317 1388 l 368 1439 z "},"Ǜ":{"ha":1017,"x_min":35,"x_max":986,"o":"m 407 389 q 418 260 407 313 q 451 174 429 207 q 508 125 474 140 q 592 110 543 110 q 725 174 675 110 q 775 385 775 239 l 775 815 l 656 824 l 656 906 l 986 906 l 986 824 l 874 815 l 874 399 q 776 74 874 176 q 493 -28 678 -28 q 349 -8 415 -28 q 235 55 283 11 q 159 169 186 99 q 132 343 132 240 l 132 494 q 132 653 132 574 q 131 814 132 733 l 35 824 l 35 906 l 513 906 l 513 824 l 408 814 q 407 655 407 735 q 407 494 407 575 l 407 389 m 281 1076 q 314 1153 281 1126 q 392 1181 347 1181 q 469 1153 435 1181 q 503 1076 503 1126 q 469 999 503 1026 q 392 972 435 972 q 314 999 347 972 q 281 1076 281 1026 m 440 1242 q 376 1288 390 1265 q 363 1329 363 1311 q 383 1382 363 1357 q 439 1407 404 1407 q 485 1395 463 1407 q 533 1354 508 1383 l 636 1231 l 593 1168 l 440 1242 m 642 1076 q 675 1153 642 1126 q 753 1181 708 1181 q 830 1153 796 1181 q 864 1076 864 1126 q 830 999 864 1026 q 753 972 796 972 q 675 999 708 972 q 642 1076 642 1026 z "},"Ǖ":{"ha":1017,"x_min":35,"x_max":986,"o":"m 407 389 q 418 260 407 313 q 451 174 429 207 q 508 125 474 140 q 592 110 543 110 q 725 174 675 110 q 775 385 775 239 l 775 815 l 656 824 l 656 906 l 986 906 l 986 824 l 874 815 l 874 399 q 776 74 874 176 q 493 -28 678 -28 q 349 -8 415 -28 q 235 55 283 11 q 159 169 186 99 q 132 343 132 240 l 132 494 q 132 653 132 574 q 131 814 132 733 l 35 824 l 35 906 l 513 906 l 513 824 l 408 814 q 407 655 407 735 q 407 494 407 575 l 407 389 m 392 972 q 315 999 349 972 q 281 1076 281 1026 q 315 1153 281 1126 q 392 1181 349 1181 q 469 1153 436 1181 q 503 1076 503 1126 q 469 999 503 1026 q 392 972 436 972 m 753 972 q 676 999 710 972 q 642 1076 642 1026 q 676 1153 642 1126 q 753 1181 710 1181 q 831 1153 797 1181 q 864 1076 864 1126 q 831 999 864 1026 q 753 972 797 972 m 343 1224 l 343 1363 l 801 1363 l 801 1224 l 343 1224 z "},"Ụ":{"ha":1017,"x_min":35,"x_max":986,"o":"m 407 389 q 418 260 407 313 q 451 174 429 207 q 508 125 474 140 q 592 110 543 110 q 725 174 675 110 q 775 385 775 239 l 775 815 l 656 824 l 656 906 l 986 906 l 986 824 l 874 815 l 874 399 q 776 74 874 176 q 493 -28 678 -28 q 349 -8 415 -28 q 235 55 283 11 q 159 169 186 99 q 132 343 132 240 l 132 494 q 132 653 132 574 q 131 814 132 733 l 35 824 l 35 906 l 513 906 l 513 824 l 408 814 q 407 655 407 735 q 407 494 407 575 l 407 389 m 514 -325 q 424 -292 461 -325 q 386 -206 386 -258 q 424 -119 386 -153 q 514 -86 461 -86 q 604 -119 567 -86 q 642 -206 642 -153 q 604 -292 642 -258 q 514 -325 567 -325 z "},"Ủ":{"ha":1017,"x_min":35,"x_max":986,"o":"m 407 389 q 418 260 407 313 q 451 174 429 207 q 508 125 474 140 q 592 110 543 110 q 725 174 675 110 q 775 385 775 239 l 775 815 l 656 824 l 656 906 l 986 906 l 986 824 l 874 815 l 874 399 q 776 74 874 176 q 493 -28 678 -28 q 349 -8 415 -28 q 235 55 283 11 q 159 169 186 99 q 132 343 132 240 l 132 494 q 132 653 132 574 q 131 814 132 733 l 35 824 l 35 906 l 513 906 l 513 824 l 408 814 q 407 655 407 735 q 407 494 407 575 l 407 389 m 540 978 l 528 1043 q 589 1062 576 1053 q 601 1081 601 1071 q 578 1104 601 1096 q 488 1118 554 1113 l 500 1276 q 724 1114 724 1258 q 676 1022 724 1054 q 540 978 628 989 z "},"Ư":{"ha":1017,"x_min":35,"x_max":1058,"o":"m 407 389 q 418 260 407 313 q 451 174 429 207 q 508 125 474 140 q 592 110 543 110 q 725 174 675 110 q 775 385 775 239 l 775 815 l 656 824 l 656 906 l 874 906 l 874 831 q 919 863 903 843 q 936 906 936 882 q 928 935 936 922 q 910 963 919 949 q 893 992 901 976 q 885 1032 885 1008 q 910 1088 885 1064 q 974 1111 936 1111 q 1044 1086 1015 1111 q 1056 1049 1054 1065 q 1058 1011 1058 1033 q 1044 924 1058 965 q 1004 849 1029 882 q 945 791 979 815 q 874 754 911 767 l 874 399 q 776 74 874 176 q 493 -28 678 -28 q 349 -8 415 -28 q 235 55 283 11 q 159 169 186 99 q 132 343 132 240 l 132 494 q 132 653 132 574 q 131 814 132 733 l 35 824 l 35 906 l 513 906 l 513 824 l 408 814 q 407 655 407 735 q 407 494 407 575 l 407 389 z "},"Ứ":{"ha":1017,"x_min":35,"x_max":1058,"o":"m 407 389 q 418 260 407 313 q 451 174 429 207 q 508 125 474 140 q 592 110 543 110 q 725 174 675 110 q 775 385 775 239 l 775 815 l 656 824 l 656 906 l 874 906 l 874 831 q 919 863 903 843 q 936 906 936 882 q 928 935 936 922 q 910 963 919 949 q 893 992 901 976 q 885 1032 885 1008 q 910 1088 885 1064 q 974 1111 936 1111 q 1044 1086 1015 1111 q 1056 1049 1054 1065 q 1058 1011 1058 1033 q 1044 924 1058 965 q 1004 849 1029 882 q 945 791 979 815 q 874 754 911 767 l 874 399 q 776 74 874 176 q 493 -28 678 -28 q 349 -8 415 -28 q 235 55 283 11 q 159 169 186 99 q 132 343 132 240 l 132 494 q 132 653 132 574 q 131 814 132 733 l 35 824 l 35 906 l 513 906 l 513 824 l 408 814 q 407 655 407 735 q 407 494 407 575 l 407 389 m 482 1013 q 564 1092 522 1053 q 644 1167 606 1131 q 704 1212 681 1200 q 756 1224 728 1224 q 817 1198 793 1224 q 840 1143 840 1172 q 826 1097 840 1124 q 758 1047 811 1069 q 641 999 699 1022 q 525 950 583 975 l 482 1013 z "},"Ự":{"ha":1017,"x_min":35,"x_max":1058,"o":"m 407 389 q 418 260 407 313 q 451 174 429 207 q 508 125 474 140 q 592 110 543 110 q 725 174 675 110 q 775 385 775 239 l 775 815 l 656 824 l 656 906 l 874 906 l 874 831 q 919 863 903 843 q 936 906 936 882 q 928 935 936 922 q 910 963 919 949 q 893 992 901 976 q 885 1032 885 1008 q 910 1088 885 1064 q 974 1111 936 1111 q 1044 1086 1015 1111 q 1056 1049 1054 1065 q 1058 1011 1058 1033 q 1044 924 1058 965 q 1004 849 1029 882 q 945 791 979 815 q 874 754 911 767 l 874 399 q 776 74 874 176 q 493 -28 678 -28 q 349 -8 415 -28 q 235 55 283 11 q 159 169 186 99 q 132 343 132 240 l 132 494 q 132 653 132 574 q 131 814 132 733 l 35 824 l 35 906 l 513 906 l 513 824 l 408 814 q 407 655 407 735 q 407 494 407 575 l 407 389 m 494 -325 q 404 -292 442 -325 q 367 -206 367 -258 q 404 -119 367 -153 q 494 -86 442 -86 q 585 -119 547 -86 q 622 -206 622 -153 q 585 -292 622 -258 q 494 -325 547 -325 z "},"Ừ":{"ha":1017,"x_min":35,"x_max":1058,"o":"m 407 389 q 418 260 407 313 q 451 174 429 207 q 508 125 474 140 q 592 110 543 110 q 725 174 675 110 q 775 385 775 239 l 775 815 l 656 824 l 656 906 l 874 906 l 874 831 q 919 863 903 843 q 936 906 936 882 q 928 935 936 922 q 910 963 919 949 q 893 992 901 976 q 885 1032 885 1008 q 910 1088 885 1064 q 974 1111 936 1111 q 1044 1086 1015 1111 q 1056 1049 1054 1065 q 1058 1011 1058 1033 q 1044 924 1058 965 q 1004 849 1029 882 q 945 791 979 815 q 874 754 911 767 l 874 399 q 776 74 874 176 q 493 -28 678 -28 q 349 -8 415 -28 q 235 55 283 11 q 159 169 186 99 q 132 343 132 240 l 132 494 q 132 653 132 574 q 131 814 132 733 l 35 824 l 35 906 l 513 906 l 513 824 l 408 814 q 407 655 407 735 q 407 494 407 575 l 407 389 m 632 1013 l 589 950 q 475 997 532 974 q 358 1044 418 1019 q 314 1069 331 1056 q 288 1095 297 1082 q 276 1121 279 1108 q 274 1143 274 1133 q 297 1198 274 1172 q 358 1224 321 1224 q 410 1212 386 1224 q 468 1168 433 1200 q 549 1092 507 1132 q 632 1013 590 1053 z "},"Ử":{"ha":1017,"x_min":35,"x_max":1058,"o":"m 407 389 q 418 260 407 313 q 451 174 429 207 q 508 125 474 140 q 592 110 543 110 q 725 174 675 110 q 775 385 775 239 l 775 815 l 656 824 l 656 906 l 874 906 l 874 831 q 919 863 903 843 q 936 906 936 882 q 928 935 936 922 q 910 963 919 949 q 893 992 901 976 q 885 1032 885 1008 q 910 1088 885 1064 q 974 1111 936 1111 q 1044 1086 1015 1111 q 1056 1049 1054 1065 q 1058 1011 1058 1033 q 1044 924 1058 965 q 1004 849 1029 882 q 945 791 979 815 q 874 754 911 767 l 874 399 q 776 74 874 176 q 493 -28 678 -28 q 349 -8 415 -28 q 235 55 283 11 q 159 169 186 99 q 132 343 132 240 l 132 494 q 132 653 132 574 q 131 814 132 733 l 35 824 l 35 906 l 513 906 l 513 824 l 408 814 q 407 655 407 735 q 407 494 407 575 l 407 389 m 568 978 l 556 1043 q 617 1062 604 1053 q 629 1081 629 1071 q 606 1104 629 1096 q 515 1118 582 1113 l 528 1276 q 751 1114 751 1258 q 703 1022 751 1054 q 568 978 656 989 z "},"Ữ":{"ha":1017,"x_min":35,"x_max":1058,"o":"m 407 389 q 418 260 407 313 q 451 174 429 207 q 508 125 474 140 q 592 110 543 110 q 725 174 675 110 q 775 385 775 239 l 775 815 l 656 824 l 656 906 l 874 906 l 874 831 q 919 863 903 843 q 936 906 936 882 q 928 935 936 922 q 910 963 919 949 q 893 992 901 976 q 885 1032 885 1008 q 910 1088 885 1064 q 974 1111 936 1111 q 1044 1086 1015 1111 q 1056 1049 1054 1065 q 1058 1011 1058 1033 q 1044 924 1058 965 q 1004 849 1029 882 q 945 791 979 815 q 874 754 911 767 l 874 399 q 776 74 874 176 q 493 -28 678 -28 q 349 -8 415 -28 q 235 55 283 11 q 159 169 186 99 q 132 343 132 240 l 132 494 q 132 653 132 574 q 131 814 132 733 l 35 824 l 35 906 l 513 906 l 513 824 l 408 814 q 407 655 407 735 q 407 494 407 575 l 407 389 m 325 992 q 382 1140 336 1089 q 490 1190 428 1190 q 545 1180 521 1190 q 592 1157 569 1169 q 633 1134 611 1146 q 681 1122 656 1122 q 732 1141 710 1122 q 767 1193 754 1160 l 832 1165 q 775 1017 821 1069 q 671 965 729 965 q 615 976 643 965 q 564 999 586 986 q 523 1022 544 1010 q 475 1033 501 1033 q 424 1015 446 1033 q 390 964 403 996 l 325 992 z "},"Ũ":{"ha":1017,"x_min":35,"x_max":986,"o":"m 407 389 q 418 260 407 313 q 451 174 429 207 q 508 125 474 140 q 592 110 543 110 q 725 174 675 110 q 775 385 775 239 l 775 815 l 656 824 l 656 906 l 986 906 l 986 824 l 874 815 l 874 399 q 776 74 874 176 q 493 -28 678 -28 q 349 -8 415 -28 q 235 55 283 11 q 159 169 186 99 q 132 343 132 240 l 132 494 q 132 653 132 574 q 131 814 132 733 l 35 824 l 35 906 l 513 906 l 513 824 l 408 814 q 407 655 407 735 q 407 494 407 575 l 407 389 m 325 992 q 382 1140 336 1089 q 490 1190 428 1190 q 545 1180 521 1190 q 592 1157 569 1169 q 633 1134 611 1146 q 681 1122 656 1122 q 732 1141 710 1122 q 767 1193 754 1160 l 832 1165 q 775 1017 821 1069 q 671 965 729 965 q 615 976 643 965 q 564 999 586 986 q 523 1022 544 1010 q 475 1033 501 1033 q 424 1015 446 1033 q 390 964 403 996 l 325 992 z "},"Ẃ":{"ha":1374,"x_min":7,"x_max":1374,"o":"m 851 0 l 674 597 l 494 0 l 328 0 l 81 817 l 7 824 l 7 906 l 460 906 l 460 824 l 367 814 l 499 289 l 647 813 l 561 824 l 561 906 l 993 906 l 993 824 l 879 810 l 1022 276 l 1175 810 l 1089 824 l 1089 906 l 1374 906 l 1374 824 l 1268 806 l 1018 0 l 851 0 m 688 1013 q 769 1092 728 1053 q 850 1167 811 1131 q 910 1212 886 1200 q 961 1224 933 1224 q 1022 1198 999 1224 q 1046 1143 1046 1172 q 1031 1097 1046 1124 q 964 1047 1017 1069 q 847 999 904 1022 q 731 950 789 975 l 688 1013 z "},"Ŵ":{"ha":1374,"x_min":7,"x_max":1374,"o":"m 851 0 l 674 597 l 494 0 l 328 0 l 81 817 l 7 824 l 7 906 l 460 906 l 460 824 l 367 814 l 499 289 l 647 813 l 561 824 l 561 906 l 993 906 l 993 824 l 879 810 l 1022 276 l 1175 810 l 1089 824 l 1089 906 l 1374 906 l 1374 824 l 1268 806 l 1018 0 l 851 0 m 817 1225 l 1035 993 l 988 938 l 760 1063 l 532 938 l 485 993 l 703 1225 l 817 1225 z "},"Ẅ":{"ha":1374,"x_min":7,"x_max":1374,"o":"m 851 0 l 674 597 l 494 0 l 328 0 l 81 817 l 7 824 l 7 906 l 460 906 l 460 824 l 367 814 l 499 289 l 647 813 l 561 824 l 561 906 l 993 906 l 993 824 l 879 810 l 1022 276 l 1175 810 l 1089 824 l 1089 906 l 1374 906 l 1374 824 l 1268 806 l 1018 0 l 851 0 m 579 972 q 502 999 536 972 q 468 1076 468 1026 q 502 1153 468 1126 q 579 1181 536 1181 q 657 1153 624 1181 q 690 1076 690 1126 q 657 999 690 1026 q 579 972 624 972 m 940 972 q 863 999 897 972 q 829 1076 829 1026 q 863 1153 829 1126 q 940 1181 897 1181 q 1018 1153 985 1181 q 1051 1076 1051 1126 q 1018 999 1051 1026 q 940 972 985 972 z "},"Ẁ":{"ha":1374,"x_min":7,"x_max":1374,"o":"m 851 0 l 674 597 l 494 0 l 328 0 l 81 817 l 7 824 l 7 906 l 460 906 l 460 824 l 367 814 l 499 289 l 647 813 l 561 824 l 561 906 l 993 906 l 993 824 l 879 810 l 1022 276 l 1175 810 l 1089 824 l 1089 906 l 1374 906 l 1374 824 l 1268 806 l 1018 0 l 851 0 m 838 1013 l 794 950 q 681 997 738 974 q 564 1044 624 1019 q 519 1069 536 1056 q 494 1095 503 1082 q 482 1121 485 1108 q 479 1143 479 1133 q 503 1198 479 1172 q 564 1224 526 1224 q 615 1212 592 1224 q 674 1168 639 1200 q 754 1092 713 1132 q 838 1013 796 1053 z "},"Ý":{"ha":863,"x_min":7,"x_max":863,"o":"m 685 0 l 186 0 l 186 82 l 296 93 q 297 205 297 144 q 297 356 297 265 l 72 818 l 7 824 l 7 906 l 478 906 l 478 824 l 385 813 l 528 489 l 672 810 l 588 824 l 588 906 l 863 906 l 863 824 l 771 807 l 572 408 q 572 304 572 350 q 572 222 572 258 q 573 153 572 185 q 574 93 574 122 l 685 82 l 685 0 m 408 1013 q 490 1092 449 1053 q 571 1167 532 1131 q 631 1212 607 1200 q 682 1224 654 1224 q 743 1198 719 1224 q 767 1143 767 1172 q 752 1097 767 1124 q 685 1047 738 1069 q 567 999 625 1022 q 451 950 510 975 l 408 1013 z "},"Ÿ":{"ha":863,"x_min":7,"x_max":863,"o":"m 685 0 l 186 0 l 186 82 l 296 93 q 297 205 297 144 q 297 356 297 265 l 72 818 l 7 824 l 7 906 l 478 906 l 478 824 l 385 813 l 528 489 l 672 810 l 588 824 l 588 906 l 863 906 l 863 824 l 771 807 l 572 408 q 572 304 572 350 q 572 222 572 258 q 573 153 572 185 q 574 93 574 122 l 685 82 l 685 0 m 340 972 q 263 999 297 972 q 229 1076 229 1026 q 263 1153 229 1126 q 340 1181 297 1181 q 418 1153 385 1181 q 451 1076 451 1126 q 418 999 451 1026 q 340 972 385 972 m 701 972 q 624 999 658 972 q 590 1076 590 1026 q 624 1153 590 1126 q 701 1181 658 1181 q 779 1153 746 1181 q 813 1076 813 1126 q 779 999 813 1026 q 701 972 746 972 z "},"Ŷ":{"ha":863,"x_min":7,"x_max":863,"o":"m 685 0 l 186 0 l 186 82 l 296 93 q 297 205 297 144 q 297 356 297 265 l 72 818 l 7 824 l 7 906 l 478 906 l 478 824 l 385 813 l 528 489 l 672 810 l 588 824 l 588 906 l 863 906 l 863 824 l 771 807 l 572 408 q 572 304 572 350 q 572 222 572 258 q 573 153 572 185 q 574 93 574 122 l 685 82 l 685 0 m 571 1225 l 789 993 l 742 938 l 514 1063 l 286 938 l 239 993 l 457 1225 l 571 1225 z "},"Ẏ":{"ha":863,"x_min":7,"x_max":863,"o":"m 685 0 l 186 0 l 186 82 l 296 93 q 297 205 297 144 q 297 356 297 265 l 72 818 l 7 824 l 7 906 l 478 906 l 478 824 l 385 813 l 528 489 l 672 810 l 588 824 l 588 906 l 863 906 l 863 824 l 771 807 l 572 408 q 572 304 572 350 q 572 222 572 258 q 573 153 572 185 q 574 93 574 122 l 685 82 l 685 0 m 528 969 q 438 1003 475 969 q 400 1089 400 1036 q 438 1175 400 1142 q 528 1208 475 1208 q 618 1175 581 1208 q 656 1089 656 1142 q 618 1003 656 1036 q 528 969 581 969 z "},"Ỵ":{"ha":863,"x_min":7,"x_max":863,"o":"m 685 0 l 186 0 l 186 82 l 296 93 q 297 205 297 144 q 297 356 297 265 l 72 818 l 7 824 l 7 906 l 478 906 l 478 824 l 385 813 l 528 489 l 672 810 l 588 824 l 588 906 l 863 906 l 863 824 l 771 807 l 572 408 q 572 304 572 350 q 572 222 572 258 q 573 153 572 185 q 574 93 574 122 l 685 82 l 685 0 m 433 -325 q 343 -292 381 -325 q 306 -206 306 -258 q 343 -119 306 -153 q 433 -86 381 -86 q 524 -119 486 -86 q 561 -206 561 -153 q 524 -292 561 -258 q 433 -325 486 -325 z "},"Ỳ":{"ha":863,"x_min":7,"x_max":863,"o":"m 685 0 l 186 0 l 186 82 l 296 93 q 297 205 297 144 q 297 356 297 265 l 72 818 l 7 824 l 7 906 l 478 906 l 478 824 l 385 813 l 528 489 l 672 810 l 588 824 l 588 906 l 863 906 l 863 824 l 771 807 l 572 408 q 572 304 572 350 q 572 222 572 258 q 573 153 572 185 q 574 93 574 122 l 685 82 l 685 0 m 568 1013 l 525 950 q 411 997 468 974 q 294 1044 354 1019 q 250 1069 267 1056 q 224 1095 233 1082 q 213 1121 215 1108 q 210 1143 210 1133 q 233 1198 210 1172 q 294 1224 257 1224 q 346 1212 322 1224 q 404 1168 369 1200 q 485 1092 443 1132 q 568 1013 526 1053 z "},"Ỷ":{"ha":863,"x_min":7,"x_max":863,"o":"m 685 0 l 186 0 l 186 82 l 296 93 q 297 205 297 144 q 297 356 297 265 l 72 818 l 7 824 l 7 906 l 478 906 l 478 824 l 385 813 l 528 489 l 672 810 l 588 824 l 588 906 l 863 906 l 863 824 l 771 807 l 572 408 q 572 304 572 350 q 572 222 572 258 q 573 153 572 185 q 574 93 574 122 l 685 82 l 685 0 m 476 964 l 464 1029 q 525 1048 513 1039 q 538 1067 538 1057 q 514 1090 538 1082 q 424 1104 490 1099 l 436 1263 q 660 1100 660 1244 q 612 1008 660 1040 q 476 964 564 975 z "},"Ỹ":{"ha":863,"x_min":7,"x_max":863,"o":"m 685 0 l 186 0 l 186 82 l 296 93 q 297 205 297 144 q 297 356 297 265 l 72 818 l 7 824 l 7 906 l 478 906 l 478 824 l 385 813 l 528 489 l 672 810 l 588 824 l 588 906 l 863 906 l 863 824 l 771 807 l 572 408 q 572 304 572 350 q 572 222 572 258 q 573 153 572 185 q 574 93 574 122 l 685 82 l 685 0 m 233 992 q 290 1140 244 1089 q 399 1190 336 1190 q 453 1180 429 1190 q 500 1157 478 1169 q 542 1134 519 1146 q 589 1122 564 1122 q 640 1141 618 1122 q 675 1193 663 1160 l 740 1165 q 683 1017 729 1069 q 579 965 638 965 q 523 976 551 965 q 472 999 494 986 q 431 1022 453 1010 q 383 1033 410 1033 q 333 1015 354 1033 q 299 964 311 996 l 233 992 z "},"Ź":{"ha":789,"x_min":28,"x_max":761,"o":"m 639 263 l 761 263 l 750 0 l 28 0 l 28 69 l 442 822 l 197 822 l 161 643 l 42 643 l 53 906 l 753 906 l 753 836 l 339 83 l 604 83 l 639 263 m 354 1013 q 436 1092 394 1053 q 517 1167 478 1131 q 576 1212 553 1200 q 628 1224 600 1224 q 689 1198 665 1224 q 713 1143 713 1172 q 698 1097 713 1124 q 631 1047 683 1069 q 513 999 571 1022 q 397 950 456 975 l 354 1013 z "},"Ž":{"ha":789,"x_min":28,"x_max":761,"o":"m 639 263 l 761 263 l 750 0 l 28 0 l 28 69 l 442 822 l 197 822 l 161 643 l 42 643 l 53 906 l 753 906 l 753 836 l 339 83 l 604 83 l 639 263 m 238 1239 l 442 1111 l 646 1239 l 699 1188 l 504 967 l 379 967 l 186 1188 l 238 1239 z "},"Ż":{"ha":789,"x_min":28,"x_max":761,"o":"m 639 263 l 761 263 l 750 0 l 28 0 l 28 69 l 442 822 l 197 822 l 161 643 l 42 643 l 53 906 l 753 906 l 753 836 l 339 83 l 604 83 l 639 263 m 443 969 q 353 1003 390 969 q 315 1089 315 1036 q 353 1175 315 1142 q 443 1208 390 1208 q 533 1175 496 1208 q 571 1089 571 1142 q 533 1003 571 1036 q 443 969 496 969 z "},"Ẓ":{"ha":789,"x_min":28,"x_max":761,"o":"m 639 263 l 761 263 l 750 0 l 28 0 l 28 69 l 442 822 l 197 822 l 161 643 l 42 643 l 53 906 l 753 906 l 753 836 l 339 83 l 604 83 l 639 263 m 410 -325 q 319 -292 357 -325 q 282 -206 282 -258 q 319 -119 282 -153 q 410 -86 357 -86 q 500 -119 463 -86 q 538 -206 538 -153 q 500 -292 538 -258 q 410 -325 463 -325 z "},"Ð":{"ha":976,"x_min":39,"x_max":938,"o":"m 553 421 l 411 421 q 411 250 411 332 q 414 86 411 168 l 433 86 q 598 181 536 86 q 660 454 660 276 q 598 726 660 633 q 432 819 536 819 l 414 819 q 411 665 411 743 q 411 508 411 588 l 553 508 l 553 421 m 39 0 l 39 82 l 135 92 q 136 258 136 175 q 136 421 136 342 l 39 421 l 39 508 l 136 508 q 136 661 136 585 q 135 814 136 738 l 39 824 l 39 906 l 453 906 q 658 874 568 906 q 810 783 749 842 q 905 642 872 725 q 938 457 938 558 q 903 265 938 350 q 802 122 868 181 q 642 31 736 63 q 429 0 547 0 l 39 0 z "},"Þ":{"ha":869,"x_min":39,"x_max":850,"o":"m 136 431 l 136 475 q 136 644 136 560 q 135 814 136 729 l 39 824 l 39 906 l 515 906 l 515 824 l 406 813 l 406 743 l 425 743 q 623 725 542 743 q 755 673 704 707 q 828 589 806 639 q 850 475 850 539 q 828 356 850 410 q 757 265 807 303 q 624 207 707 228 q 417 186 540 186 l 406 186 l 406 93 l 515 82 l 515 0 l 39 0 l 39 82 l 135 92 q 136 260 136 175 q 136 431 136 344 m 404 432 l 404 274 l 417 274 q 547 326 497 274 q 597 465 597 378 q 554 607 597 557 q 419 657 511 657 l 404 657 l 404 475 l 404 432 z "},"Ə":{"ha":925,"x_min":39,"x_max":886,"o":"m 39 383 q 40 448 39 421 q 47 506 42 475 l 600 506 q 544 748 593 667 q 386 829 494 829 q 263 804 321 829 q 161 736 206 779 l 117 797 q 183 858 146 832 q 260 900 219 883 q 344 925 301 917 q 428 933 386 933 q 616 901 532 933 q 760 806 700 868 q 853 656 821 744 q 886 456 886 568 q 851 240 886 331 q 756 90 815 149 q 619 1 696 31 q 461 -28 543 -28 q 273 4 353 -28 q 141 92 193 36 q 64 223 89 149 q 39 383 39 297 m 467 56 q 563 144 528 56 q 601 418 599 233 l 329 418 q 324 361 325 390 q 322 301 322 332 q 334 183 322 231 q 366 108 346 136 q 413 67 386 79 q 467 56 439 56 z "},"à":{"ha":750,"x_min":35,"x_max":761,"o":"m 346 99 q 404 122 372 99 l 404 353 q 364 338 383 347 q 333 319 349 331 q 304 290 318 307 q 282 251 290 274 q 274 200 274 228 q 294 124 274 149 q 346 99 315 99 m 575 -22 q 469 3 508 -22 q 413 76 431 28 q 373 36 392 54 q 331 5 354 18 q 281 -15 308 -8 q 215 -22 253 -22 q 83 24 132 -22 q 35 157 35 71 q 47 231 35 197 q 92 294 60 265 q 180 349 125 324 q 319 396 235 374 q 358 406 336 400 q 404 418 381 411 l 404 468 q 400 542 404 513 q 384 590 396 572 q 352 616 372 608 q 299 624 332 624 l 278 624 l 278 576 q 243 456 278 492 q 164 421 208 421 q 58 496 79 421 q 144 642 58 586 q 397 699 229 699 q 519 683 469 699 q 601 635 569 668 q 646 551 632 603 q 660 429 660 500 l 660 111 q 683 88 660 88 q 700 93 692 88 q 721 118 708 99 l 761 96 q 693 5 736 32 q 575 -22 650 -22 m 457 815 l 397 767 q 375 781 386 774 q 347 800 364 789 q 308 828 331 811 q 250 869 285 844 q 175 933 204 901 q 146 1001 146 964 q 172 1065 146 1042 q 231 1089 199 1089 q 267 1083 251 1089 q 296 1065 282 1078 q 324 1034 310 1053 q 353 990 338 1015 q 394 923 378 950 q 423 876 411 896 q 442 842 435 856 q 457 815 450 828 z "},"á":{"ha":750,"x_min":35,"x_max":761,"o":"m 346 99 q 404 122 372 99 l 404 353 q 364 338 383 347 q 333 319 349 331 q 304 290 318 307 q 282 251 290 274 q 274 200 274 228 q 294 124 274 149 q 346 99 315 99 m 575 -22 q 469 3 508 -22 q 413 76 431 28 q 373 36 392 54 q 331 5 354 18 q 281 -15 308 -8 q 215 -22 253 -22 q 83 24 132 -22 q 35 157 35 71 q 47 231 35 197 q 92 294 60 265 q 180 349 125 324 q 319 396 235 374 q 358 406 336 400 q 404 418 381 411 l 404 468 q 400 542 404 513 q 384 590 396 572 q 352 616 372 608 q 299 624 332 624 l 278 624 l 278 576 q 243 456 278 492 q 164 421 208 421 q 58 496 79 421 q 144 642 58 586 q 397 699 229 699 q 519 683 469 699 q 601 635 569 668 q 646 551 632 603 q 660 429 660 500 l 660 111 q 683 88 660 88 q 700 93 692 88 q 721 118 708 99 l 761 96 q 693 5 736 32 q 575 -22 650 -22 m 279 815 q 294 841 286 828 q 313 874 301 854 q 340 921 324 893 q 382 989 357 949 q 439 1065 413 1040 q 506 1089 465 1089 q 564 1065 538 1089 q 590 1001 590 1042 q 561 932 590 964 q 486 868 532 900 q 428 828 451 844 q 389 800 406 811 q 360 781 372 789 q 339 767 349 774 l 279 815 z "},"â":{"ha":750,"x_min":35,"x_max":761,"o":"m 346 99 q 404 122 372 99 l 404 353 q 364 338 383 347 q 333 319 349 331 q 304 290 318 307 q 282 251 290 274 q 274 200 274 228 q 294 124 274 149 q 346 99 315 99 m 575 -22 q 469 3 508 -22 q 413 76 431 28 q 373 36 392 54 q 331 5 354 18 q 281 -15 308 -8 q 215 -22 253 -22 q 83 24 132 -22 q 35 157 35 71 q 47 231 35 197 q 92 294 60 265 q 180 349 125 324 q 319 396 235 374 q 358 406 336 400 q 404 418 381 411 l 404 468 q 400 542 404 513 q 384 590 396 572 q 352 616 372 608 q 299 624 332 624 l 278 624 l 278 576 q 243 456 278 492 q 164 421 208 421 q 58 496 79 421 q 144 642 58 586 q 397 699 229 699 q 519 683 469 699 q 601 635 569 668 q 646 551 632 603 q 660 429 660 500 l 660 111 q 683 88 660 88 q 700 93 692 88 q 721 118 708 99 l 761 96 q 693 5 736 32 q 575 -22 650 -22 m 581 756 l 389 893 l 197 756 l 142 808 l 336 1051 l 442 1051 l 636 808 l 581 756 z "},"ã":{"ha":750,"x_min":35,"x_max":761,"o":"m 346 99 q 404 122 372 99 l 404 353 q 364 338 383 347 q 333 319 349 331 q 304 290 318 307 q 282 251 290 274 q 274 200 274 228 q 294 124 274 149 q 346 99 315 99 m 575 -22 q 469 3 508 -22 q 413 76 431 28 q 373 36 392 54 q 331 5 354 18 q 281 -15 308 -8 q 215 -22 253 -22 q 83 24 132 -22 q 35 157 35 71 q 47 231 35 197 q 92 294 60 265 q 180 349 125 324 q 319 396 235 374 q 358 406 336 400 q 404 418 381 411 l 404 468 q 400 542 404 513 q 384 590 396 572 q 352 616 372 608 q 299 624 332 624 l 278 624 l 278 576 q 243 456 278 492 q 164 421 208 421 q 58 496 79 421 q 144 642 58 586 q 397 699 229 699 q 519 683 469 699 q 601 635 569 668 q 646 551 632 603 q 660 429 660 500 l 660 111 q 683 88 660 88 q 700 93 692 88 q 721 118 708 99 l 761 96 q 693 5 736 32 q 575 -22 650 -22 m 121 818 q 178 966 132 915 q 286 1017 224 1017 q 341 1006 317 1017 q 389 983 365 996 q 431 960 408 972 q 478 949 453 949 q 529 967 507 949 q 564 1019 551 986 l 629 992 q 572 844 618 896 q 468 792 526 792 q 412 802 440 792 q 360 825 383 813 q 319 848 340 836 q 271 860 297 860 q 220 841 242 860 q 186 790 199 822 l 121 818 z "},"ä":{"ha":750,"x_min":35,"x_max":761,"o":"m 346 99 q 404 122 372 99 l 404 353 q 364 338 383 347 q 333 319 349 331 q 304 290 318 307 q 282 251 290 274 q 274 200 274 228 q 294 124 274 149 q 346 99 315 99 m 575 -22 q 469 3 508 -22 q 413 76 431 28 q 373 36 392 54 q 331 5 354 18 q 281 -15 308 -8 q 215 -22 253 -22 q 83 24 132 -22 q 35 157 35 71 q 47 231 35 197 q 92 294 60 265 q 180 349 125 324 q 319 396 235 374 q 358 406 336 400 q 404 418 381 411 l 404 468 q 400 542 404 513 q 384 590 396 572 q 352 616 372 608 q 299 624 332 624 l 278 624 l 278 576 q 243 456 278 492 q 164 421 208 421 q 58 496 79 421 q 144 642 58 586 q 397 699 229 699 q 519 683 469 699 q 601 635 569 668 q 646 551 632 603 q 660 429 660 500 l 660 111 q 683 88 660 88 q 700 93 692 88 q 721 118 708 99 l 761 96 q 693 5 736 32 q 575 -22 650 -22 m 550 788 q 469 816 506 788 q 433 897 433 844 q 469 978 433 949 q 550 1007 506 1007 q 632 978 597 1007 q 667 897 667 950 q 632 816 667 844 q 550 788 597 788 m 200 788 q 119 816 156 788 q 83 897 83 844 q 119 978 83 949 q 200 1007 156 1007 q 282 978 247 1007 q 317 897 317 950 q 282 816 317 844 q 200 788 247 788 z "},"ā":{"ha":750,"x_min":35,"x_max":761,"o":"m 346 99 q 404 122 372 99 l 404 353 q 364 338 383 347 q 333 319 349 331 q 304 290 318 307 q 282 251 290 274 q 274 200 274 228 q 294 124 274 149 q 346 99 315 99 m 575 -22 q 469 3 508 -22 q 413 76 431 28 q 373 36 392 54 q 331 5 354 18 q 281 -15 308 -8 q 215 -22 253 -22 q 83 24 132 -22 q 35 157 35 71 q 47 231 35 197 q 92 294 60 265 q 180 349 125 324 q 319 396 235 374 q 358 406 336 400 q 404 418 381 411 l 404 468 q 400 542 404 513 q 384 590 396 572 q 352 616 372 608 q 299 624 332 624 l 278 624 l 278 576 q 243 456 278 492 q 164 421 208 421 q 58 496 79 421 q 144 642 58 586 q 397 699 229 699 q 519 683 469 699 q 601 635 569 668 q 646 551 632 603 q 660 429 660 500 l 660 111 q 683 88 660 88 q 700 93 692 88 q 721 118 708 99 l 761 96 q 693 5 736 32 q 575 -22 650 -22 m 138 810 l 138 949 l 613 949 l 613 810 l 138 810 z "},"ă":{"ha":750,"x_min":35,"x_max":761,"o":"m 346 99 q 404 122 372 99 l 404 353 q 364 338 383 347 q 333 319 349 331 q 304 290 318 307 q 282 251 290 274 q 274 200 274 228 q 294 124 274 149 q 346 99 315 99 m 575 -22 q 469 3 508 -22 q 413 76 431 28 q 373 36 392 54 q 331 5 354 18 q 281 -15 308 -8 q 215 -22 253 -22 q 83 24 132 -22 q 35 157 35 71 q 47 231 35 197 q 92 294 60 265 q 180 349 125 324 q 319 396 235 374 q 358 406 336 400 q 404 418 381 411 l 404 468 q 400 542 404 513 q 384 590 396 572 q 352 616 372 608 q 299 624 332 624 l 278 624 l 278 576 q 243 456 278 492 q 164 421 208 421 q 58 496 79 421 q 144 642 58 586 q 397 699 229 699 q 519 683 469 699 q 601 635 569 668 q 646 551 632 603 q 660 429 660 500 l 660 111 q 683 88 660 88 q 700 93 692 88 q 721 118 708 99 l 761 96 q 693 5 736 32 q 575 -22 650 -22 m 144 1003 l 222 1025 q 281 941 244 975 q 375 907 318 907 q 470 942 432 907 q 528 1025 508 976 l 606 1003 q 591 931 603 969 q 553 858 579 892 q 483 803 526 825 q 375 782 439 782 q 267 803 310 782 q 197 858 224 825 q 158 931 171 892 q 144 1003 146 969 z "},"ắ":{"ha":750,"x_min":35,"x_max":761,"o":"m 346 99 q 404 122 372 99 l 404 353 q 364 338 383 347 q 333 319 349 331 q 304 290 318 307 q 282 251 290 274 q 274 200 274 228 q 294 124 274 149 q 346 99 315 99 m 575 -22 q 469 3 508 -22 q 413 76 431 28 q 373 36 392 54 q 331 5 354 18 q 281 -15 308 -8 q 215 -22 253 -22 q 83 24 132 -22 q 35 157 35 71 q 47 231 35 197 q 92 294 60 265 q 180 349 125 324 q 319 396 235 374 q 358 406 336 400 q 404 418 381 411 l 404 468 q 400 542 404 513 q 384 590 396 572 q 352 616 372 608 q 299 624 332 624 l 278 624 l 278 576 q 243 456 278 492 q 164 421 208 421 q 58 496 79 421 q 144 642 58 586 q 397 699 229 699 q 519 683 469 699 q 601 635 569 668 q 646 551 632 603 q 660 429 660 500 l 660 111 q 683 88 660 88 q 700 93 692 88 q 721 118 708 99 l 761 96 q 693 5 736 32 q 575 -22 650 -22 m 393 768 q 296 783 338 768 q 225 823 254 797 q 178 883 196 849 q 153 958 161 918 l 225 988 q 291 916 251 940 q 393 892 331 892 q 495 916 456 892 q 561 988 535 940 l 633 958 q 608 883 625 918 q 561 823 590 849 q 490 783 532 797 q 393 768 449 768 m 315 983 l 346 1060 q 389 1155 369 1118 q 427 1213 408 1192 q 465 1240 446 1233 q 504 1247 483 1247 q 559 1226 532 1247 q 586 1161 586 1204 q 578 1125 586 1143 q 553 1085 571 1107 q 506 1038 536 1064 q 429 976 475 1011 l 379 939 l 315 983 z "},"ặ":{"ha":750,"x_min":35,"x_max":761,"o":"m 346 99 q 404 122 372 99 l 404 353 q 364 338 383 347 q 333 319 349 331 q 304 290 318 307 q 282 251 290 274 q 274 200 274 228 q 294 124 274 149 q 346 99 315 99 m 575 -22 q 469 3 508 -22 q 413 76 431 28 q 373 36 392 54 q 331 5 354 18 q 281 -15 308 -8 q 215 -22 253 -22 q 83 24 132 -22 q 35 157 35 71 q 47 231 35 197 q 92 294 60 265 q 180 349 125 324 q 319 396 235 374 q 358 406 336 400 q 404 418 381 411 l 404 468 q 400 542 404 513 q 384 590 396 572 q 352 616 372 608 q 299 624 332 624 l 278 624 l 278 576 q 243 456 278 492 q 164 421 208 421 q 58 496 79 421 q 144 642 58 586 q 397 699 229 699 q 519 683 469 699 q 601 635 569 668 q 646 551 632 603 q 660 429 660 500 l 660 111 q 683 88 660 88 q 700 93 692 88 q 721 118 708 99 l 761 96 q 693 5 736 32 q 575 -22 650 -22 m 144 1003 l 222 1025 q 281 941 244 975 q 375 907 318 907 q 470 942 432 907 q 528 1025 508 976 l 606 1003 q 591 931 603 969 q 553 858 579 892 q 483 803 526 825 q 375 782 439 782 q 267 803 310 782 q 197 858 224 825 q 158 931 171 892 q 144 1003 146 969 m 369 -325 q 279 -292 317 -325 q 242 -206 242 -258 q 279 -119 242 -153 q 369 -86 317 -86 q 460 -119 422 -86 q 497 -206 497 -153 q 460 -292 497 -258 q 369 -325 422 -325 z "},"ằ":{"ha":750,"x_min":35,"x_max":761,"o":"m 346 99 q 404 122 372 99 l 404 353 q 364 338 383 347 q 333 319 349 331 q 304 290 318 307 q 282 251 290 274 q 274 200 274 228 q 294 124 274 149 q 346 99 315 99 m 575 -22 q 469 3 508 -22 q 413 76 431 28 q 373 36 392 54 q 331 5 354 18 q 281 -15 308 -8 q 215 -22 253 -22 q 83 24 132 -22 q 35 157 35 71 q 47 231 35 197 q 92 294 60 265 q 180 349 125 324 q 319 396 235 374 q 358 406 336 400 q 404 418 381 411 l 404 468 q 400 542 404 513 q 384 590 396 572 q 352 616 372 608 q 299 624 332 624 l 278 624 l 278 576 q 243 456 278 492 q 164 421 208 421 q 58 496 79 421 q 144 642 58 586 q 397 699 229 699 q 519 683 469 699 q 601 635 569 668 q 646 551 632 603 q 660 429 660 500 l 660 111 q 683 88 660 88 q 700 93 692 88 q 721 118 708 99 l 761 96 q 693 5 736 32 q 575 -22 650 -22 m 135 958 l 207 988 q 273 916 233 940 q 375 892 313 892 q 477 916 438 892 q 543 988 517 940 l 615 958 q 590 883 607 918 q 543 823 572 849 q 472 783 514 797 q 375 768 431 768 q 278 783 319 768 q 207 823 236 797 q 160 883 178 849 q 135 958 143 918 m 339 976 q 263 1038 293 1011 q 215 1085 232 1064 q 190 1125 197 1107 q 182 1161 182 1143 q 209 1226 182 1204 q 264 1247 236 1247 q 303 1240 285 1247 q 341 1213 322 1233 q 379 1155 360 1192 q 422 1060 399 1118 l 453 983 l 389 939 l 339 976 z "},"ẳ":{"ha":750,"x_min":35,"x_max":761,"o":"m 346 99 q 404 122 372 99 l 404 353 q 364 338 383 347 q 333 319 349 331 q 304 290 318 307 q 282 251 290 274 q 274 200 274 228 q 294 124 274 149 q 346 99 315 99 m 575 -22 q 469 3 508 -22 q 413 76 431 28 q 373 36 392 54 q 331 5 354 18 q 281 -15 308 -8 q 215 -22 253 -22 q 83 24 132 -22 q 35 157 35 71 q 47 231 35 197 q 92 294 60 265 q 180 349 125 324 q 319 396 235 374 q 358 406 336 400 q 404 418 381 411 l 404 468 q 400 542 404 513 q 384 590 396 572 q 352 616 372 608 q 299 624 332 624 l 278 624 l 278 576 q 243 456 278 492 q 164 421 208 421 q 58 496 79 421 q 144 642 58 586 q 397 699 229 699 q 519 683 469 699 q 601 635 569 668 q 646 551 632 603 q 660 429 660 500 l 660 111 q 683 88 660 88 q 700 93 692 88 q 721 118 708 99 l 761 96 q 693 5 736 32 q 575 -22 650 -22 m 324 960 l 311 1025 q 372 1044 360 1035 q 385 1063 385 1053 q 361 1086 385 1078 q 271 1100 338 1094 l 283 1258 q 507 1096 507 1240 q 459 1003 507 1036 q 324 960 411 971 m 135 958 l 207 988 q 273 916 233 940 q 375 892 313 892 q 477 916 438 892 q 543 988 517 940 l 615 958 q 590 883 607 918 q 543 823 572 849 q 472 783 514 797 q 375 768 431 768 q 278 783 319 768 q 207 823 236 797 q 160 883 178 849 q 135 958 143 918 z "},"ẵ":{"ha":750,"x_min":35,"x_max":761,"o":"m 346 99 q 404 122 372 99 l 404 353 q 364 338 383 347 q 333 319 349 331 q 304 290 318 307 q 282 251 290 274 q 274 200 274 228 q 294 124 274 149 q 346 99 315 99 m 575 -22 q 469 3 508 -22 q 413 76 431 28 q 373 36 392 54 q 331 5 354 18 q 281 -15 308 -8 q 215 -22 253 -22 q 83 24 132 -22 q 35 157 35 71 q 47 231 35 197 q 92 294 60 265 q 180 349 125 324 q 319 396 235 374 q 358 406 336 400 q 404 418 381 411 l 404 468 q 400 542 404 513 q 384 590 396 572 q 352 616 372 608 q 299 624 332 624 l 278 624 l 278 576 q 243 456 278 492 q 164 421 208 421 q 58 496 79 421 q 144 642 58 586 q 397 699 229 699 q 519 683 469 699 q 601 635 569 668 q 646 551 632 603 q 660 429 660 500 l 660 111 q 683 88 660 88 q 700 93 692 88 q 721 118 708 99 l 761 96 q 693 5 736 32 q 575 -22 650 -22 m 375 768 q 278 783 319 768 q 207 823 236 797 q 160 883 178 849 q 135 958 143 918 l 207 988 q 273 916 233 940 q 375 892 313 892 q 477 916 438 892 q 543 988 517 940 l 615 958 q 590 883 607 918 q 543 823 572 849 q 472 783 514 797 q 375 768 431 768 m 121 1044 q 172 1169 132 1126 q 278 1213 213 1213 q 340 1204 314 1213 q 389 1189 367 1196 q 431 1176 410 1182 q 478 1171 453 1171 q 564 1225 538 1171 l 629 1203 q 579 1076 618 1119 q 479 1032 540 1032 q 413 1041 443 1032 q 360 1057 383 1050 q 318 1069 339 1064 q 271 1075 297 1075 q 220 1060 242 1075 q 186 1022 199 1046 l 121 1044 z "},"ǎ":{"ha":750,"x_min":35,"x_max":761,"o":"m 346 99 q 404 122 372 99 l 404 353 q 364 338 383 347 q 333 319 349 331 q 304 290 318 307 q 282 251 290 274 q 274 200 274 228 q 294 124 274 149 q 346 99 315 99 m 575 -22 q 469 3 508 -22 q 413 76 431 28 q 373 36 392 54 q 331 5 354 18 q 281 -15 308 -8 q 215 -22 253 -22 q 83 24 132 -22 q 35 157 35 71 q 47 231 35 197 q 92 294 60 265 q 180 349 125 324 q 319 396 235 374 q 358 406 336 400 q 404 418 381 411 l 404 468 q 400 542 404 513 q 384 590 396 572 q 352 616 372 608 q 299 624 332 624 l 278 624 l 278 576 q 243 456 278 492 q 164 421 208 421 q 58 496 79 421 q 144 642 58 586 q 397 699 229 699 q 519 683 469 699 q 601 635 569 668 q 646 551 632 603 q 660 429 660 500 l 660 111 q 683 88 660 88 q 700 93 692 88 q 721 118 708 99 l 761 96 q 693 5 736 32 q 575 -22 650 -22 m 203 1082 l 379 939 l 556 1082 l 617 1031 l 442 782 l 317 782 l 142 1031 l 203 1082 z "},"ấ":{"ha":750,"x_min":35,"x_max":793,"o":"m 346 99 q 404 122 372 99 l 404 353 q 364 338 383 347 q 333 319 349 331 q 304 290 318 307 q 282 251 290 274 q 274 200 274 228 q 294 124 274 149 q 346 99 315 99 m 575 -22 q 469 3 508 -22 q 413 76 431 28 q 373 36 392 54 q 331 5 354 18 q 281 -15 308 -8 q 215 -22 253 -22 q 83 24 132 -22 q 35 157 35 71 q 47 231 35 197 q 92 294 60 265 q 180 349 125 324 q 319 396 235 374 q 358 406 336 400 q 404 418 381 411 l 404 468 q 400 542 404 513 q 384 590 396 572 q 352 616 372 608 q 299 624 332 624 l 278 624 l 278 576 q 243 456 278 492 q 164 421 208 421 q 58 496 79 421 q 144 642 58 586 q 397 699 229 699 q 519 683 469 699 q 601 635 569 668 q 646 551 632 603 q 660 429 660 500 l 660 111 q 683 88 660 88 q 700 93 692 88 q 721 118 708 99 l 761 96 q 693 5 736 32 q 575 -22 650 -22 m 165 756 l 118 811 l 336 1043 l 450 1043 l 668 811 l 621 756 l 393 881 l 165 756 m 626 913 l 572 971 l 594 1026 q 653 1119 622 1094 q 711 1143 683 1143 q 767 1122 740 1143 q 793 1060 793 1100 q 769 1001 793 1031 q 700 949 744 971 l 626 913 z "},"ậ":{"ha":750,"x_min":35,"x_max":761,"o":"m 346 99 q 404 122 372 99 l 404 353 q 364 338 383 347 q 333 319 349 331 q 304 290 318 307 q 282 251 290 274 q 274 200 274 228 q 294 124 274 149 q 346 99 315 99 m 575 -22 q 469 3 508 -22 q 413 76 431 28 q 373 36 392 54 q 331 5 354 18 q 281 -15 308 -8 q 215 -22 253 -22 q 83 24 132 -22 q 35 157 35 71 q 47 231 35 197 q 92 294 60 265 q 180 349 125 324 q 319 396 235 374 q 358 406 336 400 q 404 418 381 411 l 404 468 q 400 542 404 513 q 384 590 396 572 q 352 616 372 608 q 299 624 332 624 l 278 624 l 278 576 q 243 456 278 492 q 164 421 208 421 q 58 496 79 421 q 144 642 58 586 q 397 699 229 699 q 519 683 469 699 q 601 635 569 668 q 646 551 632 603 q 660 429 660 500 l 660 111 q 683 88 660 88 q 700 93 692 88 q 721 118 708 99 l 761 96 q 693 5 736 32 q 575 -22 650 -22 m 581 756 l 389 893 l 197 756 l 142 808 l 336 1051 l 442 1051 l 636 808 l 581 756 m 369 -325 q 279 -292 317 -325 q 242 -206 242 -258 q 279 -119 242 -153 q 369 -86 317 -86 q 460 -119 422 -86 q 497 -206 497 -153 q 460 -292 497 -258 q 369 -325 422 -325 z "},"ầ":{"ha":750,"x_min":-7,"x_max":761,"o":"m 346 99 q 404 122 372 99 l 404 353 q 364 338 383 347 q 333 319 349 331 q 304 290 318 307 q 282 251 290 274 q 274 200 274 228 q 294 124 274 149 q 346 99 315 99 m 575 -22 q 469 3 508 -22 q 413 76 431 28 q 373 36 392 54 q 331 5 354 18 q 281 -15 308 -8 q 215 -22 253 -22 q 83 24 132 -22 q 35 157 35 71 q 47 231 35 197 q 92 294 60 265 q 180 349 125 324 q 319 396 235 374 q 358 406 336 400 q 404 418 381 411 l 404 468 q 400 542 404 513 q 384 590 396 572 q 352 616 372 608 q 299 624 332 624 l 278 624 l 278 576 q 243 456 278 492 q 164 421 208 421 q 58 496 79 421 q 144 642 58 586 q 397 699 229 699 q 519 683 469 699 q 601 635 569 668 q 646 551 632 603 q 660 429 660 500 l 660 111 q 683 88 660 88 q 700 93 692 88 q 721 118 708 99 l 761 96 q 693 5 736 32 q 575 -22 650 -22 m 86 949 q 17 1001 42 971 q -7 1060 -7 1031 q 19 1122 -7 1100 q 75 1143 46 1143 q 133 1119 103 1143 q 192 1026 164 1094 l 214 971 l 160 913 l 86 949 m 165 756 l 118 811 l 336 1043 l 450 1043 l 668 811 l 621 756 l 393 881 l 165 756 z "},"ẩ":{"ha":750,"x_min":35,"x_max":817,"o":"m 346 99 q 404 122 372 99 l 404 353 q 364 338 383 347 q 333 319 349 331 q 304 290 318 307 q 282 251 290 274 q 274 200 274 228 q 294 124 274 149 q 346 99 315 99 m 575 -22 q 469 3 508 -22 q 413 76 431 28 q 373 36 392 54 q 331 5 354 18 q 281 -15 308 -8 q 215 -22 253 -22 q 83 24 132 -22 q 35 157 35 71 q 47 231 35 197 q 92 294 60 265 q 180 349 125 324 q 319 396 235 374 q 358 406 336 400 q 404 418 381 411 l 404 468 q 400 542 404 513 q 384 590 396 572 q 352 616 372 608 q 299 624 332 624 l 278 624 l 278 576 q 243 456 278 492 q 164 421 208 421 q 58 496 79 421 q 144 642 58 586 q 397 699 229 699 q 519 683 469 699 q 601 635 569 668 q 646 551 632 603 q 660 429 660 500 l 660 111 q 683 88 660 88 q 700 93 692 88 q 721 118 708 99 l 761 96 q 693 5 736 32 q 575 -22 650 -22 m 165 756 l 118 811 l 336 1043 l 450 1043 l 668 811 l 621 756 l 393 881 l 165 756 m 610 979 q 677 1008 660 994 q 694 1039 694 1021 q 669 1067 694 1058 q 581 1082 643 1075 l 596 1240 q 763 1184 708 1231 q 817 1057 817 1138 q 769 953 817 992 q 633 904 721 915 l 610 979 z "},"ẫ":{"ha":750,"x_min":35,"x_max":761,"o":"m 346 99 q 404 122 372 99 l 404 353 q 364 338 383 347 q 333 319 349 331 q 304 290 318 307 q 282 251 290 274 q 274 200 274 228 q 294 124 274 149 q 346 99 315 99 m 575 -22 q 469 3 508 -22 q 413 76 431 28 q 373 36 392 54 q 331 5 354 18 q 281 -15 308 -8 q 215 -22 253 -22 q 83 24 132 -22 q 35 157 35 71 q 47 231 35 197 q 92 294 60 265 q 180 349 125 324 q 319 396 235 374 q 358 406 336 400 q 404 418 381 411 l 404 468 q 400 542 404 513 q 384 590 396 572 q 352 616 372 608 q 299 624 332 624 l 278 624 l 278 576 q 243 456 278 492 q 164 421 208 421 q 58 496 79 421 q 144 642 58 586 q 397 699 229 699 q 519 683 469 699 q 601 635 569 668 q 646 551 632 603 q 660 429 660 500 l 660 111 q 683 88 660 88 q 700 93 692 88 q 721 118 708 99 l 761 96 q 693 5 736 32 q 575 -22 650 -22 m 165 756 l 118 811 l 336 1001 l 450 1001 l 668 811 l 621 756 l 393 858 l 165 756 m 139 1044 q 195 1169 150 1126 q 296 1213 240 1213 q 358 1204 332 1213 q 407 1189 385 1196 q 449 1176 428 1182 q 496 1171 471 1171 q 582 1225 556 1171 l 647 1203 q 627 1130 642 1161 q 592 1076 613 1099 q 547 1043 571 1054 q 497 1032 522 1032 q 431 1041 461 1032 q 378 1057 401 1050 q 336 1069 357 1064 q 289 1075 315 1075 q 238 1060 260 1075 q 204 1022 217 1046 l 139 1044 z "},"ạ":{"ha":750,"x_min":35,"x_max":761,"o":"m 346 99 q 404 122 372 99 l 404 353 q 364 338 383 347 q 333 319 349 331 q 304 290 318 307 q 282 251 290 274 q 274 200 274 228 q 294 124 274 149 q 346 99 315 99 m 575 -22 q 469 3 508 -22 q 413 76 431 28 q 373 36 392 54 q 331 5 354 18 q 281 -15 308 -8 q 215 -22 253 -22 q 83 24 132 -22 q 35 157 35 71 q 47 231 35 197 q 92 294 60 265 q 180 349 125 324 q 319 396 235 374 q 358 406 336 400 q 404 418 381 411 l 404 468 q 400 542 404 513 q 384 590 396 572 q 352 616 372 608 q 299 624 332 624 l 278 624 l 278 576 q 243 456 278 492 q 164 421 208 421 q 58 496 79 421 q 144 642 58 586 q 397 699 229 699 q 519 683 469 699 q 601 635 569 668 q 646 551 632 603 q 660 429 660 500 l 660 111 q 683 88 660 88 q 700 93 692 88 q 721 118 708 99 l 761 96 q 693 5 736 32 q 575 -22 650 -22 m 369 -325 q 279 -292 317 -325 q 242 -206 242 -258 q 279 -119 242 -153 q 369 -86 317 -86 q 460 -119 422 -86 q 497 -206 497 -153 q 460 -292 497 -258 q 369 -325 422 -325 z "},"ả":{"ha":750,"x_min":35,"x_max":761,"o":"m 346 99 q 404 122 372 99 l 404 353 q 364 338 383 347 q 333 319 349 331 q 304 290 318 307 q 282 251 290 274 q 274 200 274 228 q 294 124 274 149 q 346 99 315 99 m 575 -22 q 469 3 508 -22 q 413 76 431 28 q 373 36 392 54 q 331 5 354 18 q 281 -15 308 -8 q 215 -22 253 -22 q 83 24 132 -22 q 35 157 35 71 q 47 231 35 197 q 92 294 60 265 q 180 349 125 324 q 319 396 235 374 q 358 406 336 400 q 404 418 381 411 l 404 468 q 400 542 404 513 q 384 590 396 572 q 352 616 372 608 q 299 624 332 624 l 278 624 l 278 576 q 243 456 278 492 q 164 421 208 421 q 58 496 79 421 q 144 642 58 586 q 397 699 229 699 q 519 683 469 699 q 601 635 569 668 q 646 551 632 603 q 660 429 660 500 l 660 111 q 683 88 660 88 q 700 93 692 88 q 721 118 708 99 l 761 96 q 693 5 736 32 q 575 -22 650 -22 m 342 774 l 318 849 q 385 877 368 864 q 403 908 403 890 q 377 936 403 928 q 289 951 351 944 l 304 1110 q 471 1053 417 1100 q 525 926 525 1007 q 477 823 525 861 q 342 774 429 785 z "},"å":{"ha":750,"x_min":35,"x_max":761,"o":"m 346 99 q 404 122 372 99 l 404 353 q 364 338 383 347 q 333 319 349 331 q 304 290 318 307 q 282 251 290 274 q 274 200 274 228 q 294 124 274 149 q 346 99 315 99 m 575 -22 q 469 3 508 -22 q 413 76 431 28 q 373 36 392 54 q 331 5 354 18 q 281 -15 308 -8 q 215 -22 253 -22 q 83 24 132 -22 q 35 157 35 71 q 47 231 35 197 q 92 294 60 265 q 180 349 125 324 q 319 396 235 374 q 358 406 336 400 q 404 418 381 411 l 404 468 q 400 542 404 513 q 384 590 396 572 q 352 616 372 608 q 299 624 332 624 l 278 624 l 278 576 q 243 456 278 492 q 164 421 208 421 q 58 496 79 421 q 144 642 58 586 q 397 699 229 699 q 519 683 469 699 q 601 635 569 668 q 646 551 632 603 q 660 429 660 500 l 660 111 q 683 88 660 88 q 700 93 692 88 q 721 118 708 99 l 761 96 q 693 5 736 32 q 575 -22 650 -22 m 375 847 q 437 876 415 847 q 458 936 458 904 q 437 998 458 971 q 375 1025 415 1025 q 313 998 335 1025 q 292 936 292 971 q 313 876 292 904 q 375 847 335 847 m 375 769 q 249 815 300 769 q 199 936 199 860 q 249 1058 199 1013 q 375 1103 300 1103 q 501 1059 450 1103 q 551 936 551 1015 q 501 813 551 857 q 375 769 450 769 z "},"ą":{"ha":750,"x_min":35,"x_max":806,"o":"m 35 157 q 47 231 35 197 q 92 294 60 265 q 180 349 125 324 q 319 396 235 374 q 358 406 336 400 q 404 418 381 411 l 404 467 q 400 541 404 511 q 384 590 396 571 q 352 616 372 608 q 299 624 332 624 l 278 624 l 278 576 q 243 456 278 492 q 164 419 208 419 q 58 494 79 419 q 144 642 58 585 q 397 699 229 699 q 519 683 469 699 q 601 635 569 668 q 646 550 632 601 q 660 428 660 499 l 660 111 q 683 88 660 88 q 700 93 692 88 q 721 118 708 99 l 761 96 q 728 39 747 61 q 683 0 710 17 q 627 -46 646 -24 q 608 -101 608 -68 q 635 -164 608 -140 q 708 -187 663 -187 q 753 -184 736 -187 q 785 -176 769 -181 l 806 -247 q 716 -298 768 -279 q 606 -317 664 -317 q 484 -276 526 -317 q 442 -176 442 -235 q 474 -85 442 -122 q 567 -22 507 -49 q 467 6 504 -19 q 413 76 431 31 q 373 36 392 54 q 331 5 354 18 q 281 -15 308 -8 q 215 -22 253 -22 q 83 24 132 -22 q 35 157 35 71 m 346 99 q 404 122 372 99 l 404 353 q 364 338 383 347 q 333 319 349 331 q 304 290 318 307 q 282 251 290 274 q 274 200 274 228 q 294 124 274 149 q 346 99 315 99 z "},"æ":{"ha":1100,"x_min":35,"x_max":1072,"o":"m 274 200 q 297 121 274 143 q 351 99 321 99 q 375 101 364 99 q 397 108 386 103 q 419 124 407 114 q 447 149 432 133 q 400 340 400 231 l 400 351 q 380 345 389 349 q 364 338 371 342 q 333 319 349 331 q 304 290 318 307 q 282 251 290 274 q 274 200 274 228 m 761 -22 q 602 9 674 -22 q 482 99 531 40 q 367 3 428 29 q 231 -22 306 -22 q 85 24 136 -22 q 35 157 35 71 q 47 231 35 197 q 92 294 60 265 q 180 349 125 324 q 319 396 235 374 q 358 406 336 400 q 404 418 381 411 l 404 467 q 400 541 404 511 q 384 590 396 571 q 352 616 372 608 q 299 624 332 624 l 278 624 l 278 576 q 243 456 278 492 q 164 419 208 419 q 58 494 79 419 q 144 642 58 585 q 397 699 229 699 q 583 638 522 699 q 675 685 626 671 q 774 699 724 699 q 904 675 849 699 q 997 610 960 651 q 1053 513 1035 568 q 1072 394 1072 457 q 1071 356 1072 372 q 1065 321 1069 340 l 679 321 q 739 173 690 218 q 850 128 788 128 q 941 147 903 128 q 1008 193 979 165 l 1063 140 q 942 17 1018 56 q 761 -22 865 -22 m 756 624 q 726 613 740 624 q 702 576 713 603 q 685 507 692 550 q 678 400 679 464 l 743 400 q 810 420 793 400 q 828 493 828 440 q 806 594 828 565 q 756 624 783 624 z "},"ç":{"ha":726,"x_min":31,"x_max":693,"o":"m 460 624 q 409 610 436 624 q 360 567 382 597 q 323 488 338 536 q 308 367 308 439 q 358 189 308 250 q 490 128 407 128 q 569 147 536 128 q 632 193 603 165 l 686 140 q 566 17 642 56 q 390 -22 490 -22 q 254 0 319 -22 q 140 67 189 22 q 60 178 90 111 q 31 336 31 246 q 61 490 31 422 q 145 603 92 557 q 272 674 199 650 q 428 699 344 699 q 534 682 486 699 q 616 636 582 665 q 670 569 650 607 q 693 488 690 531 q 654 426 679 446 q 588 407 629 407 q 545 415 565 407 q 508 440 525 422 q 481 489 492 458 q 468 565 469 519 l 465 624 l 460 624 m 318 -125 l 339 7 l 419 7 l 411 -67 q 524 -115 493 -82 q 556 -187 556 -149 q 506 -279 556 -243 q 356 -315 456 -315 q 293 -310 319 -315 q 239 -294 267 -306 l 256 -222 q 332 -236 296 -236 q 385 -223 368 -236 q 401 -187 401 -210 q 318 -125 401 -129 z "},"ć":{"ha":726,"x_min":31,"x_max":693,"o":"m 460 624 q 409 610 436 624 q 360 567 382 597 q 323 488 338 536 q 308 367 308 439 q 358 189 308 250 q 490 128 407 128 q 569 147 536 128 q 632 193 603 165 l 686 140 q 566 17 642 56 q 390 -22 490 -22 q 254 0 319 -22 q 140 67 189 22 q 60 178 90 111 q 31 336 31 246 q 61 490 31 422 q 145 603 92 557 q 272 674 199 650 q 428 699 344 699 q 534 682 486 699 q 616 636 582 665 q 670 569 650 607 q 693 488 690 531 q 654 426 679 446 q 588 407 629 407 q 545 415 565 407 q 508 440 525 422 q 481 489 492 458 q 468 565 469 519 l 465 624 l 460 624 m 294 815 q 309 841 301 828 q 328 874 317 854 q 356 921 339 893 q 397 989 372 949 q 454 1065 428 1040 q 521 1089 481 1089 q 579 1065 553 1089 q 606 1001 606 1042 q 576 932 606 964 q 501 868 547 900 q 444 828 467 844 q 404 800 421 811 q 376 781 388 789 q 354 767 364 774 l 294 815 z "},"č":{"ha":726,"x_min":31,"x_max":693,"o":"m 460 624 q 409 610 436 624 q 360 567 382 597 q 323 488 338 536 q 308 367 308 439 q 358 189 308 250 q 490 128 407 128 q 569 147 536 128 q 632 193 603 165 l 686 140 q 566 17 642 56 q 390 -22 490 -22 q 254 0 319 -22 q 140 67 189 22 q 60 178 90 111 q 31 336 31 246 q 61 490 31 422 q 145 603 92 557 q 272 674 199 650 q 428 699 344 699 q 534 682 486 699 q 616 636 582 665 q 670 569 650 607 q 693 488 690 531 q 654 426 679 446 q 588 407 629 407 q 545 415 565 407 q 508 440 525 422 q 481 489 492 458 q 468 565 469 519 l 465 624 l 460 624 m 242 1082 l 418 939 l 594 1082 l 656 1031 l 481 782 l 356 782 l 181 1031 l 242 1082 z "},"ĉ":{"ha":726,"x_min":31,"x_max":693,"o":"m 460 624 q 409 610 436 624 q 360 567 382 597 q 323 488 338 536 q 308 367 308 439 q 358 189 308 250 q 490 128 407 128 q 569 147 536 128 q 632 193 603 165 l 686 140 q 566 17 642 56 q 390 -22 490 -22 q 254 0 319 -22 q 140 67 189 22 q 60 178 90 111 q 31 336 31 246 q 61 490 31 422 q 145 603 92 557 q 272 674 199 650 q 428 699 344 699 q 534 682 486 699 q 616 636 582 665 q 670 569 650 607 q 693 488 690 531 q 654 426 679 446 q 588 407 629 407 q 545 415 565 407 q 508 440 525 422 q 481 489 492 458 q 468 565 469 519 l 465 624 l 460 624 m 610 756 l 418 893 l 226 756 l 171 808 l 365 1051 l 471 1051 l 665 808 l 610 756 z "},"ċ":{"ha":726,"x_min":31,"x_max":693,"o":"m 460 624 q 409 610 436 624 q 360 567 382 597 q 323 488 338 536 q 308 367 308 439 q 358 189 308 250 q 490 128 407 128 q 569 147 536 128 q 632 193 603 165 l 686 140 q 566 17 642 56 q 390 -22 490 -22 q 254 0 319 -22 q 140 67 189 22 q 60 178 90 111 q 31 336 31 246 q 61 490 31 422 q 145 603 92 557 q 272 674 199 650 q 428 699 344 699 q 534 682 486 699 q 616 636 582 665 q 670 569 650 607 q 693 488 690 531 q 654 426 679 446 q 588 407 629 407 q 545 415 565 407 q 508 440 525 422 q 481 489 492 458 q 468 565 469 519 l 465 624 l 460 624 m 444 781 q 354 814 392 781 q 317 900 317 847 q 354 986 317 953 q 444 1019 392 1019 q 535 986 497 1019 q 572 900 572 953 q 535 814 572 847 q 444 781 497 781 z "},"ď":{"ha":854,"x_min":31,"x_max":992,"o":"m 311 335 q 345 172 311 229 q 436 115 379 115 q 493 131 467 115 l 493 553 q 442 565 469 565 q 347 508 383 565 q 311 335 311 451 m 513 -17 l 500 58 q 306 -22 421 -22 q 199 0 249 -22 q 111 67 149 22 q 52 177 74 111 q 31 332 31 243 q 58 488 31 419 q 128 602 85 556 q 228 674 172 649 q 340 699 283 699 q 434 682 396 699 q 503 635 472 665 l 503 863 l 414 876 l 414 939 l 739 1001 l 763 986 l 757 793 l 757 83 l 807 71 l 807 0 l 513 -17 m 918 1015 q 977 995 963 1015 q 992 943 992 975 q 981 879 992 914 q 950 804 969 844 l 904 714 l 828 714 l 835 990 q 878 1010 858 1004 q 918 1015 897 1015 z "},"đ":{"ha":840,"x_min":31,"x_max":807,"o":"m 285 719 l 285 807 l 503 807 l 503 863 l 414 876 l 414 939 l 739 1001 l 763 986 l 758 807 l 807 807 l 807 719 l 757 719 l 757 83 l 807 71 l 807 0 l 513 -17 l 500 58 q 306 -22 421 -22 q 199 -1 249 -22 q 111 65 149 21 q 52 174 74 108 q 31 326 31 239 q 58 475 31 410 q 128 585 85 540 q 228 653 172 629 q 340 676 283 676 q 434 660 396 676 q 503 613 472 643 l 503 719 l 285 719 m 311 329 q 345 171 311 226 q 436 115 379 115 q 493 131 467 115 l 493 531 q 442 543 469 543 q 347 490 383 543 q 311 329 311 438 z "},"ḍ":{"ha":840,"x_min":31,"x_max":807,"o":"m 311 335 q 345 172 311 229 q 436 115 379 115 q 493 131 467 115 l 493 553 q 442 565 469 565 q 347 508 383 565 q 311 335 311 451 m 513 -17 l 500 58 q 306 -22 421 -22 q 199 0 249 -22 q 111 67 149 22 q 52 177 74 111 q 31 332 31 243 q 58 488 31 419 q 128 602 85 556 q 228 674 172 649 q 340 699 283 699 q 434 682 396 699 q 503 635 472 665 l 503 863 l 414 876 l 414 939 l 739 1001 l 763 986 l 757 793 l 757 83 l 807 71 l 807 0 l 513 -17 m 456 -325 q 365 -292 403 -325 q 328 -206 328 -258 q 365 -119 328 -153 q 456 -86 403 -86 q 546 -119 508 -86 q 583 -206 583 -153 q 546 -292 583 -258 q 456 -325 508 -325 z "},"ḏ":{"ha":840,"x_min":31,"x_max":807,"o":"m 311 335 q 345 172 311 229 q 436 115 379 115 q 493 131 467 115 l 493 553 q 442 565 469 565 q 347 508 383 565 q 311 335 311 451 m 513 -17 l 500 58 q 306 -22 421 -22 q 199 0 249 -22 q 111 67 149 22 q 52 177 74 111 q 31 332 31 243 q 58 488 31 419 q 128 602 85 556 q 228 674 172 649 q 340 699 283 699 q 434 682 396 699 q 503 635 472 665 l 503 863 l 414 876 l 414 939 l 739 1001 l 763 986 l 757 793 l 757 83 l 807 71 l 807 0 l 513 -17 m 218 -279 l 218 -140 l 693 -140 l 693 -279 l 218 -279 z "},"è":{"ha":731,"x_min":31,"x_max":703,"o":"m 404 699 q 535 675 479 699 q 628 610 590 651 q 684 513 665 568 q 703 394 703 457 q 701 356 703 372 q 696 321 700 340 l 310 321 q 369 173 321 218 q 481 128 418 128 q 572 147 533 128 q 639 193 610 165 l 693 140 q 572 17 649 56 q 392 -22 496 -22 q 247 2 314 -22 q 133 73 181 26 q 58 187 85 119 q 31 340 31 254 q 63 497 31 429 q 149 609 96 564 q 269 676 203 654 q 404 699 336 699 m 388 624 q 357 613 371 624 q 333 576 343 603 q 316 507 322 550 q 308 400 310 464 l 374 400 q 441 420 424 400 q 458 493 458 440 q 437 594 458 565 q 388 624 415 624 m 489 815 l 429 767 q 407 781 418 774 q 379 800 396 789 q 340 828 363 811 q 282 869 317 844 q 207 933 236 901 q 178 1001 178 964 q 204 1065 178 1042 q 263 1089 231 1089 q 299 1083 283 1089 q 328 1065 314 1078 q 356 1034 342 1053 q 385 990 369 1015 q 426 923 410 950 q 455 876 443 896 q 474 842 467 856 q 489 815 482 828 z "},"é":{"ha":731,"x_min":31,"x_max":703,"o":"m 404 699 q 535 675 479 699 q 628 610 590 651 q 684 513 665 568 q 703 394 703 457 q 701 356 703 372 q 696 321 700 340 l 310 321 q 369 173 321 218 q 481 128 418 128 q 572 147 533 128 q 639 193 610 165 l 693 140 q 572 17 649 56 q 392 -22 496 -22 q 247 2 314 -22 q 133 73 181 26 q 58 187 85 119 q 31 340 31 254 q 63 497 31 429 q 149 609 96 564 q 269 676 203 654 q 404 699 336 699 m 388 624 q 357 613 371 624 q 333 576 343 603 q 316 507 322 550 q 308 400 310 464 l 374 400 q 441 420 424 400 q 458 493 458 440 q 437 594 458 565 q 388 624 415 624 m 297 815 q 312 841 304 828 q 331 874 319 854 q 358 921 342 893 q 400 989 375 949 q 457 1065 431 1040 q 524 1089 483 1089 q 582 1065 556 1089 q 608 1001 608 1042 q 579 932 608 964 q 504 868 550 900 q 447 828 469 844 q 407 800 424 811 q 378 781 390 789 q 357 767 367 774 l 297 815 z "},"ê":{"ha":731,"x_min":31,"x_max":703,"o":"m 404 699 q 535 675 479 699 q 628 610 590 651 q 684 513 665 568 q 703 394 703 457 q 701 356 703 372 q 696 321 700 340 l 310 321 q 369 173 321 218 q 481 128 418 128 q 572 147 533 128 q 639 193 610 165 l 693 140 q 572 17 649 56 q 392 -22 496 -22 q 247 2 314 -22 q 133 73 181 26 q 58 187 85 119 q 31 340 31 254 q 63 497 31 429 q 149 609 96 564 q 269 676 203 654 q 404 699 336 699 m 388 624 q 357 613 371 624 q 333 576 343 603 q 316 507 322 550 q 308 400 310 464 l 374 400 q 441 420 424 400 q 458 493 458 440 q 437 594 458 565 q 388 624 415 624 m 585 756 l 393 893 l 201 756 l 146 808 l 340 1051 l 446 1051 l 640 808 l 585 756 z "},"ě":{"ha":731,"x_min":31,"x_max":703,"o":"m 404 699 q 535 675 479 699 q 628 610 590 651 q 684 513 665 568 q 703 394 703 457 q 701 356 703 372 q 696 321 700 340 l 310 321 q 369 173 321 218 q 481 128 418 128 q 572 147 533 128 q 639 193 610 165 l 693 140 q 572 17 649 56 q 392 -22 496 -22 q 247 2 314 -22 q 133 73 181 26 q 58 187 85 119 q 31 340 31 254 q 63 497 31 429 q 149 609 96 564 q 269 676 203 654 q 404 699 336 699 m 388 624 q 357 613 371 624 q 333 576 343 603 q 316 507 322 550 q 308 400 310 464 l 374 400 q 441 420 424 400 q 458 493 458 440 q 437 594 458 565 q 388 624 415 624 m 214 1082 l 390 939 l 567 1082 l 628 1031 l 453 782 l 328 782 l 153 1031 l 214 1082 z "},"ë":{"ha":731,"x_min":31,"x_max":703,"o":"m 404 699 q 535 675 479 699 q 628 610 590 651 q 684 513 665 568 q 703 394 703 457 q 701 356 703 372 q 696 321 700 340 l 310 321 q 369 173 321 218 q 481 128 418 128 q 572 147 533 128 q 639 193 610 165 l 693 140 q 572 17 649 56 q 392 -22 496 -22 q 247 2 314 -22 q 133 73 181 26 q 58 187 85 119 q 31 340 31 254 q 63 497 31 429 q 149 609 96 564 q 269 676 203 654 q 404 699 336 699 m 388 624 q 357 613 371 624 q 333 576 343 603 q 316 507 322 550 q 308 400 310 464 l 374 400 q 441 420 424 400 q 458 493 458 440 q 437 594 458 565 q 388 624 415 624 m 575 788 q 494 816 531 788 q 458 897 458 844 q 494 978 458 949 q 575 1007 531 1007 q 657 978 622 1007 q 692 897 692 950 q 657 816 692 844 q 575 788 622 788 m 225 788 q 144 816 181 788 q 108 897 108 844 q 144 978 108 949 q 225 1007 181 1007 q 307 978 272 1007 q 342 897 342 950 q 307 816 342 844 q 225 788 272 788 z "},"ē":{"ha":731,"x_min":31,"x_max":703,"o":"m 404 699 q 535 675 479 699 q 628 610 590 651 q 684 513 665 568 q 703 394 703 457 q 701 356 703 372 q 696 321 700 340 l 310 321 q 369 173 321 218 q 481 128 418 128 q 572 147 533 128 q 639 193 610 165 l 693 140 q 572 17 649 56 q 392 -22 496 -22 q 247 2 314 -22 q 133 73 181 26 q 58 187 85 119 q 31 340 31 254 q 63 497 31 429 q 149 609 96 564 q 269 676 203 654 q 404 699 336 699 m 388 624 q 357 613 371 624 q 333 576 343 603 q 316 507 322 550 q 308 400 310 464 l 374 400 q 441 420 424 400 q 458 493 458 440 q 437 594 458 565 q 388 624 415 624 m 156 810 l 156 949 l 631 949 l 631 810 l 156 810 z "},"ė":{"ha":731,"x_min":31,"x_max":703,"o":"m 404 699 q 535 675 479 699 q 628 610 590 651 q 684 513 665 568 q 703 394 703 457 q 701 356 703 372 q 696 321 700 340 l 310 321 q 369 173 321 218 q 481 128 418 128 q 572 147 533 128 q 639 193 610 165 l 693 140 q 572 17 649 56 q 392 -22 496 -22 q 247 2 314 -22 q 133 73 181 26 q 58 187 85 119 q 31 340 31 254 q 63 497 31 429 q 149 609 96 564 q 269 676 203 654 q 404 699 336 699 m 388 624 q 357 613 371 624 q 333 576 343 603 q 316 507 322 550 q 308 400 310 464 l 374 400 q 441 420 424 400 q 458 493 458 440 q 437 594 458 565 q 388 624 415 624 m 407 781 q 317 814 354 781 q 279 900 279 847 q 317 986 279 953 q 407 1019 354 1019 q 497 986 460 1019 q 535 900 535 953 q 497 814 535 847 q 407 781 460 781 z "},"ę":{"ha":731,"x_min":31,"x_max":703,"o":"m 319 -176 q 347 -86 319 -124 q 424 -21 374 -49 q 408 -22 415 -22 q 392 -22 400 -22 q 248 3 314 -22 q 133 76 182 29 q 58 191 85 124 q 31 342 31 258 q 63 498 31 431 q 149 610 96 565 q 269 676 203 654 q 404 699 336 699 q 535 675 479 699 q 628 610 590 651 q 684 513 665 568 q 703 394 703 457 q 701 356 703 372 q 696 321 700 340 l 310 321 q 369 173 321 218 q 481 128 418 128 q 572 147 533 128 q 639 193 610 165 l 693 140 q 636 64 669 96 q 560 11 603 32 q 502 -37 518 -10 q 486 -96 486 -64 q 513 -162 486 -137 q 586 -186 540 -186 q 631 -183 614 -186 q 663 -175 647 -179 l 683 -246 q 595 -297 647 -279 q 483 -315 543 -315 q 361 -275 403 -315 q 319 -176 319 -235 m 386 624 q 357 613 371 624 q 333 576 343 603 q 316 507 322 550 q 308 400 310 464 l 374 400 q 441 420 424 400 q 458 493 458 440 q 436 594 458 565 q 386 624 414 624 z "},"ĕ":{"ha":731,"x_min":31,"x_max":703,"o":"m 404 699 q 535 675 479 699 q 628 610 590 651 q 684 513 665 568 q 703 394 703 457 q 701 356 703 372 q 696 321 700 340 l 310 321 q 369 173 321 218 q 481 128 418 128 q 572 147 533 128 q 639 193 610 165 l 693 140 q 572 17 649 56 q 392 -22 496 -22 q 247 2 314 -22 q 133 73 181 26 q 58 187 85 119 q 31 340 31 254 q 63 497 31 429 q 149 609 96 564 q 269 676 203 654 q 404 699 336 699 m 388 624 q 357 613 371 624 q 333 576 343 603 q 316 507 322 550 q 308 400 310 464 l 374 400 q 441 420 424 400 q 458 493 458 440 q 437 594 458 565 q 388 624 415 624 m 147 1003 l 225 1025 q 284 941 247 975 q 378 907 321 907 q 473 942 435 907 q 531 1025 511 976 l 608 1003 q 594 931 606 969 q 556 858 582 892 q 485 803 529 825 q 378 782 442 782 q 269 803 313 782 q 200 858 226 825 q 161 931 174 892 q 147 1003 149 969 z "},"ế":{"ha":731,"x_min":31,"x_max":792,"o":"m 404 699 q 535 675 479 699 q 628 610 590 651 q 684 513 665 568 q 703 394 703 457 q 701 356 703 372 q 696 321 700 340 l 310 321 q 369 173 321 218 q 481 128 418 128 q 572 147 533 128 q 639 193 610 165 l 693 140 q 572 17 649 56 q 392 -22 496 -22 q 247 2 314 -22 q 133 73 181 26 q 58 187 85 119 q 31 340 31 254 q 63 497 31 429 q 149 609 96 564 q 269 676 203 654 q 404 699 336 699 m 388 624 q 357 613 371 624 q 333 576 343 603 q 316 507 322 550 q 308 400 310 464 l 374 400 q 441 420 424 400 q 458 493 458 440 q 437 594 458 565 q 388 624 415 624 m 164 756 l 117 811 l 335 1043 l 449 1043 l 667 811 l 619 756 l 392 881 l 164 756 m 625 913 l 571 971 l 593 1026 q 651 1119 621 1094 q 710 1143 682 1143 q 765 1122 739 1143 q 792 1060 792 1100 q 767 1001 792 1031 q 699 949 743 971 l 625 913 z "},"ệ":{"ha":731,"x_min":31,"x_max":703,"o":"m 404 699 q 535 675 479 699 q 628 610 590 651 q 684 513 665 568 q 703 394 703 457 q 701 356 703 372 q 696 321 700 340 l 310 321 q 369 173 321 218 q 481 128 418 128 q 572 147 533 128 q 639 193 610 165 l 693 140 q 572 17 649 56 q 392 -22 496 -22 q 247 2 314 -22 q 133 73 181 26 q 58 187 85 119 q 31 340 31 254 q 63 497 31 429 q 149 609 96 564 q 269 676 203 654 q 404 699 336 699 m 388 624 q 357 613 371 624 q 333 576 343 603 q 316 507 322 550 q 308 400 310 464 l 374 400 q 441 420 424 400 q 458 493 458 440 q 437 594 458 565 q 388 624 415 624 m 585 756 l 393 893 l 201 756 l 146 808 l 340 1051 l 446 1051 l 640 808 l 585 756 m 378 -325 q 288 -292 325 -325 q 250 -206 250 -258 q 288 -119 250 -153 q 378 -86 325 -86 q 468 -119 431 -86 q 506 -206 506 -153 q 468 -292 506 -258 q 378 -325 431 -325 z "},"ề":{"ha":731,"x_min":-22,"x_max":703,"o":"m 404 699 q 535 675 479 699 q 628 610 590 651 q 684 513 665 568 q 703 394 703 457 q 701 356 703 372 q 696 321 700 340 l 310 321 q 369 173 321 218 q 481 128 418 128 q 572 147 533 128 q 639 193 610 165 l 693 140 q 572 17 649 56 q 392 -22 496 -22 q 247 2 314 -22 q 133 73 181 26 q 58 187 85 119 q 31 340 31 254 q 63 497 31 429 q 149 609 96 564 q 269 676 203 654 q 404 699 336 699 m 388 624 q 357 613 371 624 q 333 576 343 603 q 316 507 322 550 q 308 400 310 464 l 374 400 q 441 420 424 400 q 458 493 458 440 q 437 594 458 565 q 388 624 415 624 m 71 949 q 2 1001 26 971 q -22 1060 -22 1031 q 4 1122 -22 1100 q 60 1143 31 1143 q 118 1119 88 1143 q 176 1026 149 1094 l 199 971 l 144 913 l 71 949 m 150 756 l 103 811 l 321 1043 l 435 1043 l 653 811 l 606 756 l 378 881 l 150 756 z "},"ể":{"ha":731,"x_min":31,"x_max":801,"o":"m 404 699 q 535 675 479 699 q 628 610 590 651 q 684 513 665 568 q 703 394 703 457 q 701 356 703 372 q 696 321 700 340 l 310 321 q 369 173 321 218 q 481 128 418 128 q 572 147 533 128 q 639 193 610 165 l 693 140 q 572 17 649 56 q 392 -22 496 -22 q 247 2 314 -22 q 133 73 181 26 q 58 187 85 119 q 31 340 31 254 q 63 497 31 429 q 149 609 96 564 q 269 676 203 654 q 404 699 336 699 m 388 624 q 357 613 371 624 q 333 576 343 603 q 316 507 322 550 q 308 400 310 464 l 374 400 q 441 420 424 400 q 458 493 458 440 q 437 594 458 565 q 388 624 415 624 m 150 756 l 103 811 l 321 1043 l 435 1043 l 653 811 l 606 756 l 378 881 l 150 756 m 594 979 q 662 1008 644 994 q 679 1039 679 1021 q 653 1067 679 1058 q 565 1082 628 1075 l 581 1240 q 747 1184 693 1231 q 801 1057 801 1138 q 753 953 801 992 q 618 904 706 915 l 594 979 z "},"ễ":{"ha":731,"x_min":31,"x_max":703,"o":"m 404 699 q 535 675 479 699 q 628 610 590 651 q 684 513 665 568 q 703 394 703 457 q 701 356 703 372 q 696 321 700 340 l 310 321 q 369 173 321 218 q 481 128 418 128 q 572 147 533 128 q 639 193 610 165 l 693 140 q 572 17 649 56 q 392 -22 496 -22 q 247 2 314 -22 q 133 73 181 26 q 58 187 85 119 q 31 340 31 254 q 63 497 31 429 q 149 609 96 564 q 269 676 203 654 q 404 699 336 699 m 388 624 q 357 613 371 624 q 333 576 343 603 q 316 507 322 550 q 308 400 310 464 l 374 400 q 441 420 424 400 q 458 493 458 440 q 437 594 458 565 q 388 624 415 624 m 150 756 l 103 811 l 321 1001 l 435 1001 l 653 811 l 606 756 l 378 858 l 150 756 m 124 1044 q 180 1169 135 1126 q 281 1213 225 1213 q 343 1204 317 1213 q 392 1189 369 1196 q 434 1176 413 1182 q 481 1171 456 1171 q 567 1225 540 1171 l 632 1203 q 612 1130 626 1161 q 576 1076 597 1099 q 531 1043 556 1054 q 482 1032 507 1032 q 416 1041 446 1032 q 363 1057 386 1050 q 321 1069 342 1064 q 274 1075 300 1075 q 223 1060 244 1075 q 189 1022 201 1046 l 124 1044 z "},"ẹ":{"ha":731,"x_min":31,"x_max":703,"o":"m 404 699 q 535 675 479 699 q 628 610 590 651 q 684 513 665 568 q 703 394 703 457 q 701 356 703 372 q 696 321 700 340 l 310 321 q 369 173 321 218 q 481 128 418 128 q 572 147 533 128 q 639 193 610 165 l 693 140 q 572 17 649 56 q 392 -22 496 -22 q 247 2 314 -22 q 133 73 181 26 q 58 187 85 119 q 31 340 31 254 q 63 497 31 429 q 149 609 96 564 q 269 676 203 654 q 404 699 336 699 m 388 624 q 357 613 371 624 q 333 576 343 603 q 316 507 322 550 q 308 400 310 464 l 374 400 q 441 420 424 400 q 458 493 458 440 q 437 594 458 565 q 388 624 415 624 m 378 -325 q 288 -292 325 -325 q 250 -206 250 -258 q 288 -119 250 -153 q 378 -86 325 -86 q 468 -119 431 -86 q 506 -206 506 -153 q 468 -292 506 -258 q 378 -325 431 -325 z "},"ẻ":{"ha":731,"x_min":31,"x_max":703,"o":"m 404 699 q 535 675 479 699 q 628 610 590 651 q 684 513 665 568 q 703 394 703 457 q 701 356 703 372 q 696 321 700 340 l 310 321 q 369 173 321 218 q 481 128 418 128 q 572 147 533 128 q 639 193 610 165 l 693 140 q 572 17 649 56 q 392 -22 496 -22 q 247 2 314 -22 q 133 73 181 26 q 58 187 85 119 q 31 340 31 254 q 63 497 31 429 q 149 609 96 564 q 269 676 203 654 q 404 699 336 699 m 388 624 q 357 613 371 624 q 333 576 343 603 q 316 507 322 550 q 308 400 310 464 l 374 400 q 441 420 424 400 q 458 493 458 440 q 437 594 458 565 q 388 624 415 624 m 340 774 l 317 849 q 384 877 367 864 q 401 908 401 890 q 376 936 401 928 q 288 951 350 944 l 303 1110 q 469 1053 415 1100 q 524 926 524 1007 q 476 823 524 861 q 340 774 428 785 z "},"ẽ":{"ha":731,"x_min":31,"x_max":703,"o":"m 404 699 q 535 675 479 699 q 628 610 590 651 q 684 513 665 568 q 703 394 703 457 q 701 356 703 372 q 696 321 700 340 l 310 321 q 369 173 321 218 q 481 128 418 128 q 572 147 533 128 q 639 193 610 165 l 693 140 q 572 17 649 56 q 392 -22 496 -22 q 247 2 314 -22 q 133 73 181 26 q 58 187 85 119 q 31 340 31 254 q 63 497 31 429 q 149 609 96 564 q 269 676 203 654 q 404 699 336 699 m 388 624 q 357 613 371 624 q 333 576 343 603 q 316 507 322 550 q 308 400 310 464 l 374 400 q 441 420 424 400 q 458 493 458 440 q 437 594 458 565 q 388 624 415 624 m 124 818 q 181 966 135 915 q 289 1017 226 1017 q 344 1006 319 1017 q 392 983 368 996 q 433 960 411 972 q 481 949 456 949 q 532 967 510 949 q 567 1019 554 986 l 632 992 q 575 844 621 896 q 471 792 529 792 q 415 802 443 792 q 363 825 386 813 q 322 848 343 836 q 274 860 300 860 q 223 841 244 860 q 189 790 201 822 l 124 818 z "},"ğ":{"ha":768,"x_min":10,"x_max":761,"o":"m 340 -218 q 492 -192 442 -218 q 542 -126 542 -167 q 522 -81 542 -103 q 454 -58 503 -58 l 315 -58 q 233 -55 271 -58 q 164 -42 194 -51 q 155 -70 157 -57 q 153 -104 153 -83 q 197 -191 153 -164 q 340 -218 240 -218 m 39 475 q 56 562 39 521 q 110 633 74 603 q 206 681 147 663 q 346 699 264 699 q 488 681 429 699 q 583 632 547 663 l 739 703 l 761 689 l 761 574 l 631 574 q 653 475 653 531 q 635 391 653 431 q 581 322 618 351 q 486 274 544 292 q 346 256 428 256 q 210 272 265 256 q 200 219 200 251 q 219 183 200 196 q 281 171 238 171 l 435 171 q 583 155 524 171 q 679 111 643 139 q 731 44 715 83 q 746 -42 746 4 q 718 -147 746 -99 q 635 -231 690 -196 q 498 -287 579 -267 q 311 -308 417 -308 q 163 -294 221 -308 q 70 -258 104 -281 q 23 -207 36 -236 q 10 -149 10 -178 q 38 -69 10 -104 q 117 -11 65 -35 q 56 39 74 8 q 39 103 39 69 q 70 204 39 157 q 153 293 101 251 q 66 372 93 324 q 39 475 39 419 m 346 629 q 289 590 307 629 q 271 478 271 551 q 288 365 271 404 q 346 325 304 325 q 406 365 388 325 q 424 478 424 404 q 404 590 424 551 q 346 629 385 629 m 129 1003 l 207 1025 q 266 941 229 975 q 360 907 303 907 q 455 942 417 907 q 513 1025 493 976 l 590 1003 q 576 931 588 969 q 538 858 564 892 q 467 803 511 825 q 360 782 424 782 q 251 803 294 782 q 182 858 208 825 q 143 931 156 892 q 129 1003 131 969 z "},"ġ":{"ha":768,"x_min":10,"x_max":761,"o":"m 340 -218 q 492 -192 442 -218 q 542 -126 542 -167 q 522 -81 542 -103 q 454 -58 503 -58 l 315 -58 q 233 -55 271 -58 q 164 -42 194 -51 q 155 -70 157 -57 q 153 -104 153 -83 q 197 -191 153 -164 q 340 -218 240 -218 m 39 475 q 56 562 39 521 q 110 633 74 603 q 206 681 147 663 q 346 699 264 699 q 488 681 429 699 q 583 632 547 663 l 739 703 l 761 689 l 761 574 l 631 574 q 653 475 653 531 q 635 391 653 431 q 581 322 618 351 q 486 274 544 292 q 346 256 428 256 q 210 272 265 256 q 200 219 200 251 q 219 183 200 196 q 281 171 238 171 l 435 171 q 583 155 524 171 q 679 111 643 139 q 731 44 715 83 q 746 -42 746 4 q 718 -147 746 -99 q 635 -231 690 -196 q 498 -287 579 -267 q 311 -308 417 -308 q 163 -294 221 -308 q 70 -258 104 -281 q 23 -207 36 -236 q 10 -149 10 -178 q 38 -69 10 -104 q 117 -11 65 -35 q 56 39 74 8 q 39 103 39 69 q 70 204 39 157 q 153 293 101 251 q 66 372 93 324 q 39 475 39 419 m 346 629 q 289 590 307 629 q 271 478 271 551 q 288 365 271 404 q 346 325 304 325 q 406 365 388 325 q 424 478 424 404 q 404 590 424 551 q 346 629 385 629 m 356 781 q 265 814 303 781 q 228 900 228 847 q 265 986 228 953 q 356 1019 303 1019 q 446 986 408 1019 q 483 900 483 953 q 446 814 483 847 q 356 781 408 781 z "},"ģ":{"ha":768,"x_min":10,"x_max":761,"o":"m 340 -218 q 492 -192 442 -218 q 542 -126 542 -167 q 522 -81 542 -103 q 454 -58 503 -58 l 315 -58 q 233 -55 271 -58 q 164 -42 194 -51 q 155 -70 157 -57 q 153 -104 153 -83 q 197 -191 153 -164 q 340 -218 240 -218 m 39 475 q 56 562 39 521 q 110 633 74 603 q 206 681 147 663 q 346 699 264 699 q 488 681 429 699 q 583 632 547 663 l 739 703 l 761 689 l 761 574 l 631 574 q 653 475 653 531 q 635 391 653 431 q 581 322 618 351 q 486 274 544 292 q 346 256 428 256 q 210 272 265 256 q 200 219 200 251 q 219 183 200 196 q 281 171 238 171 l 435 171 q 583 155 524 171 q 679 111 643 139 q 731 44 715 83 q 746 -42 746 4 q 718 -147 746 -99 q 635 -231 690 -196 q 498 -287 579 -267 q 311 -308 417 -308 q 163 -294 221 -308 q 70 -258 104 -281 q 23 -207 36 -236 q 10 -149 10 -178 q 38 -69 10 -104 q 117 -11 65 -35 q 56 39 74 8 q 39 103 39 69 q 70 204 39 157 q 153 293 101 251 q 66 372 93 324 q 39 475 39 419 m 346 629 q 289 590 307 629 q 271 478 271 551 q 288 365 271 404 q 346 325 304 325 q 406 365 388 325 q 424 478 424 404 q 404 590 424 551 q 346 629 385 629 m 246 886 q 263 951 246 921 q 308 1008 279 982 q 377 1054 338 1033 q 463 1090 417 1075 l 486 1029 q 430 1003 454 1015 q 386 974 406 992 q 443 928 422 954 q 464 868 464 903 q 433 804 464 829 q 356 779 401 779 q 311 785 332 779 q 260 810 290 790 q 246 886 246 847 z "},"ǧ":{"ha":768,"x_min":10,"x_max":761,"o":"m 340 -218 q 492 -192 442 -218 q 542 -126 542 -167 q 522 -81 542 -103 q 454 -58 503 -58 l 315 -58 q 233 -55 271 -58 q 164 -42 194 -51 q 155 -70 157 -57 q 153 -104 153 -83 q 197 -191 153 -164 q 340 -218 240 -218 m 39 475 q 56 562 39 521 q 110 633 74 603 q 206 681 147 663 q 346 699 264 699 q 488 681 429 699 q 583 632 547 663 l 739 703 l 761 689 l 761 574 l 631 574 q 653 475 653 531 q 635 391 653 431 q 581 322 618 351 q 486 274 544 292 q 346 256 428 256 q 210 272 265 256 q 200 219 200 251 q 219 183 200 196 q 281 171 238 171 l 435 171 q 583 155 524 171 q 679 111 643 139 q 731 44 715 83 q 746 -42 746 4 q 718 -147 746 -99 q 635 -231 690 -196 q 498 -287 579 -267 q 311 -308 417 -308 q 163 -294 221 -308 q 70 -258 104 -281 q 23 -207 36 -236 q 10 -149 10 -178 q 38 -69 10 -104 q 117 -11 65 -35 q 56 39 74 8 q 39 103 39 69 q 70 204 39 157 q 153 293 101 251 q 66 372 93 324 q 39 475 39 419 m 346 629 q 289 590 307 629 q 271 478 271 551 q 288 365 271 404 q 346 325 304 325 q 406 365 388 325 q 424 478 424 404 q 404 590 424 551 q 346 629 385 629 m 176 1082 l 353 939 l 529 1082 l 590 1031 l 415 782 l 290 782 l 115 1031 l 176 1082 z "},"ĝ":{"ha":768,"x_min":10,"x_max":761,"o":"m 340 -218 q 492 -192 442 -218 q 542 -126 542 -167 q 522 -81 542 -103 q 454 -58 503 -58 l 315 -58 q 233 -55 271 -58 q 164 -42 194 -51 q 155 -70 157 -57 q 153 -104 153 -83 q 197 -191 153 -164 q 340 -218 240 -218 m 39 475 q 56 562 39 521 q 110 633 74 603 q 206 681 147 663 q 346 699 264 699 q 488 681 429 699 q 583 632 547 663 l 739 703 l 761 689 l 761 574 l 631 574 q 653 475 653 531 q 635 391 653 431 q 581 322 618 351 q 486 274 544 292 q 346 256 428 256 q 210 272 265 256 q 200 219 200 251 q 219 183 200 196 q 281 171 238 171 l 435 171 q 583 155 524 171 q 679 111 643 139 q 731 44 715 83 q 746 -42 746 4 q 718 -147 746 -99 q 635 -231 690 -196 q 498 -287 579 -267 q 311 -308 417 -308 q 163 -294 221 -308 q 70 -258 104 -281 q 23 -207 36 -236 q 10 -149 10 -178 q 38 -69 10 -104 q 117 -11 65 -35 q 56 39 74 8 q 39 103 39 69 q 70 204 39 157 q 153 293 101 251 q 66 372 93 324 q 39 475 39 419 m 346 629 q 289 590 307 629 q 271 478 271 551 q 288 365 271 404 q 346 325 304 325 q 406 365 388 325 q 424 478 424 404 q 404 590 424 551 q 346 629 385 629 m 549 756 l 357 893 l 165 756 l 110 808 l 304 1051 l 410 1051 l 604 808 l 549 756 z "}}}
